<svg width="47" height="47" viewBox="0 0 47 47" fill="none" xmlns="http://www.w3.org/2000/svg">
<path d="M30.6096 4.20129C30.7 4.20129 30.7904 4.20129 30.8859 4.20129C31.1077 6.94089 30.062 8.98791 28.7911 10.4703C27.5441 11.9424 25.8366 13.3702 23.0748 13.1536C22.8906 10.4532 23.938 8.55803 25.2071 7.07906C26.3842 5.70074 28.5421 4.47423 30.6096 4.20129Z" fill="white"/>
<path d="M38.9701 32.7163C38.9701 32.7436 38.9701 32.7675 38.9701 32.793C38.1939 35.1437 37.0869 37.1583 35.7358 39.0279C34.5025 40.7252 32.9911 43.0094 30.2925 43.0094C27.9606 43.0094 26.4116 41.5099 24.0218 41.469C21.4937 41.4281 20.1034 42.7228 17.792 43.0486C17.5276 43.0486 17.2632 43.0486 17.0039 43.0486C15.3066 42.803 13.9368 41.4588 12.9389 40.2476C9.99626 36.6687 7.72237 32.0459 7.29932 26.13C7.29932 25.55 7.29932 24.9717 7.29932 24.3917C7.47843 20.1578 9.53568 16.7154 12.2702 15.0471C13.7133 14.1601 15.6972 13.4044 17.9063 13.7421C18.853 13.8888 19.8202 14.2129 20.6681 14.5336C21.4715 14.8424 22.4763 15.39 23.4281 15.361C24.0729 15.3422 24.7143 15.0062 25.3643 14.769C27.268 14.0816 29.1342 13.2935 31.594 13.6636C34.5503 14.1106 36.6484 15.4241 37.9449 17.4506C35.4441 19.0422 33.467 21.4406 33.8048 25.5364C34.105 29.2568 36.268 31.4335 38.9701 32.7163Z" fill="white"/>
</svg>
