<svg width="27" height="18" viewBox="0 0 27 18" fill="none" xmlns="http://www.w3.org/2000/svg">
<path d="M26.0654 16.1275C26.0654 16.6552 25.6469 17.0774 25.1238 17.0774H1.68678C1.16363 17.0774 0.745117 16.6552 0.745117 16.1275V1.91437C0.745117 1.38665 1.16363 0.964478 1.68678 0.964478H25.1238C25.6469 0.964478 26.0654 1.38665 26.0654 1.91437V16.1275Z" fill="#1A1F71"/>
<path d="M10.3709 5.644L7.54593 12.4339H5.69748L4.30242 7.01606C4.23266 6.69943 4.12804 6.5587 3.8839 6.41798C3.46538 6.20689 2.76785 5.96063 2.17495 5.85508L2.20983 5.644H5.17433C5.55797 5.644 5.90673 5.89026 5.97649 6.34762L6.70889 10.2879L8.52247 5.67918H10.3709V5.644ZM17.5904 10.2175C17.5904 8.4233 15.149 8.31776 15.149 7.54377C15.149 7.29751 15.3931 7.05124 15.8814 6.98088C16.1255 6.94569 16.8231 6.91051 17.5904 7.29751L17.9042 5.85508C17.4857 5.71436 16.9626 5.53845 16.265 5.53845C14.5561 5.53845 13.3354 6.45316 13.3354 7.79004C13.3354 8.77511 14.2073 9.30283 14.87 9.61946C15.5326 9.93608 15.7768 10.1472 15.7768 10.4638C15.7768 10.9212 15.2536 11.1322 14.7305 11.1322C13.8586 11.1322 13.3354 10.886 12.9518 10.7101L12.6379 12.1877C13.0564 12.3636 13.7888 12.5395 14.5561 12.5395C16.3697 12.5395 17.5555 11.6248 17.5904 10.2175ZM22.1243 12.4339H23.7286L22.3335 5.644H20.8339C20.4851 5.644 20.2061 5.85508 20.1015 6.13653L17.4857 12.4339H19.2993L19.6481 11.4137H21.8802L22.1243 12.4339ZM20.1712 10.0416L21.078 7.50859L21.6011 10.0416H20.1712ZM12.8472 5.644L11.4172 12.4339H9.67339L11.1033 5.644H12.8472Z" fill="white"/>
</svg>
