<svg width="26" height="18" viewBox="0 0 26 18" fill="none" xmlns="http://www.w3.org/2000/svg">
<path d="M16.4892 2.9137H9.64244V15.1291H16.4892V2.9137Z" fill="#FF5F00"/>
<path d="M10.077 9.02154C10.0748 6.63783 11.1769 4.38555 13.0656 2.91386C9.85748 0.410293 5.2501 0.774678 2.48163 3.75092C-0.286844 6.72716 -0.286844 11.3159 2.48163 14.2922C5.2501 17.2684 9.85748 17.6328 13.0656 15.1292C11.1769 13.6575 10.0748 11.4052 10.077 9.02154Z" fill="#EB001B"/>
<path d="M25.7254 9.02148C25.7254 11.9957 24.0151 14.7089 21.3207 16.0088C18.6262 17.3088 15.4207 16.9672 13.0654 15.1292C14.9524 13.6561 16.054 11.4047 16.054 9.02148C16.054 6.63828 14.9524 4.3869 13.0654 2.9138C15.4207 1.07578 18.6262 0.734202 21.3207 2.03412C24.0151 3.33404 25.7254 6.04726 25.7254 9.02148Z" fill="#F79E1B"/>
<path d="M24.9794 13.8374V13.5855H25.0809V13.5342H24.8223V13.5855H24.9239V13.8374H24.9794ZM25.4816 13.8374V13.5337H25.4023L25.3111 13.7426L25.2199 13.5337H25.1405V13.8374H25.1965V13.6083L25.282 13.8058H25.3401L25.4256 13.6078V13.8374H25.4816Z" fill="#F79E1B"/>
</svg>
