<svg width="78" height="60" viewBox="0 0 78 60" fill="none" xmlns="http://www.w3.org/2000/svg">
<path d="M11.1339 60C10.9161 60 10.7158 59.9644 10.533 59.8931C10.3502 59.8219 10.1907 59.7202 10.0552 59.5888C9.91974 59.4569 9.81403 59.3038 9.73869 59.1292C9.66335 58.9546 9.62598 58.7613 9.62598 58.5487C9.62598 58.3361 9.66335 58.1428 9.73869 57.9682C9.81403 57.7936 9.92032 57.64 10.0576 57.5086C10.1948 57.3772 10.3542 57.2755 10.537 57.2043C10.7198 57.133 10.9202 57.0974 11.138 57.0974C11.3693 57.0974 11.5801 57.1371 11.7711 57.2166C11.9621 57.296 12.1232 57.4134 12.2547 57.5693L11.9159 57.8882C11.8114 57.7778 11.6957 57.6949 11.569 57.64C11.4429 57.5851 11.3068 57.557 11.1619 57.557C11.0171 57.557 10.8793 57.581 10.7566 57.6295C10.634 57.6779 10.5283 57.7463 10.4383 57.835C10.3484 57.9238 10.2777 58.0283 10.2269 58.1492C10.1755 58.2701 10.1504 58.4033 10.1504 58.5481C10.1504 58.693 10.1761 58.8261 10.2269 58.947C10.2777 59.0679 10.3484 59.173 10.4383 59.2612C10.5283 59.35 10.6346 59.4183 10.7566 59.4668C10.8787 59.5153 11.0142 59.5392 11.1619 59.5392C11.3097 59.5392 11.4429 59.5118 11.569 59.4563C11.6952 59.4014 11.8108 59.3173 11.9159 59.2046L12.2547 59.5229C12.1232 59.6788 11.9615 59.7973 11.7711 59.8779C11.5801 59.9585 11.3681 59.9988 11.1339 59.9988V60Z" fill="#133D59"/>
<path d="M14.6268 59.9999C14.409 59.9999 14.2069 59.9637 14.02 59.8907C13.8331 59.8183 13.6714 59.7161 13.5341 59.5847C13.3969 59.4527 13.2906 59.2991 13.2153 59.1227C13.1399 58.9469 13.1025 58.7554 13.1025 58.5481C13.1025 58.3407 13.1399 58.1457 13.2153 57.9693C13.2906 57.7935 13.3969 57.6399 13.5341 57.5097C13.6714 57.3794 13.8326 57.2778 14.0177 57.2048C14.2034 57.1324 14.4061 57.0962 14.6262 57.0962C14.8464 57.0962 15.0456 57.1318 15.2313 57.2031C15.417 57.2743 15.5776 57.3748 15.7131 57.5056C15.8486 57.6358 15.9543 57.79 16.0296 57.9675C16.105 58.1445 16.1424 58.3384 16.1424 58.5481C16.1424 58.7577 16.1044 58.9505 16.0296 59.1268C15.9543 59.3026 15.8486 59.4568 15.7131 59.5882C15.5776 59.7202 15.417 59.8212 15.2313 59.8925C15.0456 59.9637 14.8441 59.9994 14.6262 59.9994L14.6268 59.9999ZM14.6268 59.5403C14.7693 59.5403 14.9002 59.5164 15.0199 59.4679C15.1396 59.4194 15.2436 59.3511 15.3323 59.2623C15.4211 59.1736 15.49 59.069 15.5397 58.9481C15.5893 58.8272 15.6144 58.6941 15.6144 58.5492C15.6144 58.4044 15.5905 58.2712 15.542 58.1503C15.4935 58.0295 15.4246 57.9243 15.3341 57.8361C15.2441 57.7474 15.139 57.679 15.0199 57.6306C14.9002 57.5821 14.7693 57.5581 14.6268 57.5581C14.4843 57.5581 14.3518 57.5821 14.2297 57.6306C14.1076 57.679 14.0019 57.748 13.9132 57.8379C13.8244 57.9278 13.7543 58.033 13.7035 58.1521C13.6521 58.2718 13.627 58.4038 13.627 58.5492C13.627 58.6947 13.6527 58.8231 13.7035 58.9446C13.7543 59.0655 13.8244 59.1712 13.9132 59.2612C14.0019 59.3511 14.1071 59.42 14.2297 59.4685C14.3523 59.517 14.4843 59.5409 14.6268 59.5409V59.5403Z" fill="#133D59"/>
<path d="M17.3027 59.9595V57.137H17.7343L19.5045 59.3142H19.2907V57.137H19.807V59.9595H19.3754L17.6093 57.7823H17.8231V59.9595H17.3027Z" fill="#133D59"/>
<path d="M21.1738 59.9595V57.137H21.6054L23.3756 59.3142H23.1618V57.137H23.6781V59.9595H23.2465L21.4804 57.7823H21.6942V59.9595H21.1738Z" fill="#133D59"/>
<path d="M25.5678 59.5158H27.1604V59.959H25.0439V57.1365H27.1044V57.5797H25.5684V59.5152L25.5678 59.5158ZM25.5275 58.3104H26.9309V58.7419H25.5275V58.3104Z" fill="#133D59"/>
<path d="M29.6564 60.0002C29.4385 60.0002 29.2382 59.9646 29.0554 59.8934C28.8726 59.8221 28.7132 59.7205 28.5777 59.5891C28.4422 59.4571 28.3365 59.3041 28.2612 59.1295C28.1858 58.9548 28.1484 58.7615 28.1484 58.549C28.1484 58.3364 28.1858 58.1431 28.2612 57.9684C28.3365 57.7938 28.4428 57.6402 28.58 57.5088C28.7173 57.3774 28.8767 57.2758 29.0595 57.2045C29.2423 57.1333 29.4426 57.0977 29.6605 57.0977C29.8917 57.0977 30.1026 57.1374 30.2935 57.2168C30.4845 57.2962 30.6457 57.4136 30.7771 57.5695L30.4384 57.8884C30.3338 57.778 30.2182 57.6951 30.0915 57.6402C29.9653 57.5853 29.8292 57.5573 29.6844 57.5573C29.5396 57.5573 29.4017 57.5812 29.2791 57.6297C29.1565 57.6782 29.0508 57.7465 28.9608 57.8353C28.8709 57.924 28.8002 58.0286 28.7494 58.1495C28.698 58.2704 28.6729 58.4035 28.6729 58.5484C28.6729 58.6932 28.6986 58.8264 28.7494 58.9473C28.8002 59.0681 28.8709 59.1733 28.9608 59.2615C29.0508 59.3502 29.157 59.4186 29.2791 59.467C29.4012 59.5155 29.5367 59.5394 29.6844 59.5394C29.8322 59.5394 29.9653 59.512 30.0915 59.4565C30.2176 59.4016 30.3333 59.3175 30.4384 59.2048L30.7771 59.5231C30.6457 59.679 30.4839 59.7976 30.2935 59.8782C30.1026 59.9588 29.8906 59.9991 29.6564 59.9991V60.0002Z" fill="#133D59"/>
<path d="M32.4268 59.9594V57.5807H31.4912V57.1375H33.8863V57.5807H32.9507V59.9594H32.4268Z" fill="#133D59"/>
<path d="M34.8857 59.9595V57.137H35.4096V59.9595H34.8857Z" fill="#133D59"/>
<path d="M37.5915 59.9595L36.3574 57.137H36.9263L38.0271 59.6891H37.6966L38.8173 57.137H39.3377L38.1077 59.9595H37.5915Z" fill="#133D59"/>
<path d="M40.2412 59.9595V57.137H40.7651V59.9595H40.2412Z" fill="#133D59"/>
<path d="M42.7032 59.9594V57.5807H41.7676V57.1375H44.1626V57.5807H43.227V59.9594H42.7032Z" fill="#133D59"/>
<path d="M45.8171 59.9595V58.8429L45.938 59.1612L44.708 57.137H45.2646L46.2562 58.7699H45.942L46.9296 57.137H47.4459L46.22 59.1612L46.3368 58.8429V59.9595H45.8165H45.8171Z" fill="#133D59"/>
<path d="M50.1104 59.9595V57.137H50.6342V59.9595H50.1104Z" fill="#133D59"/>
<path d="M52.8762 59.9999C52.6561 59.9999 52.4452 59.9684 52.2455 59.9047C52.0452 59.8417 51.8846 59.7605 51.7637 59.6612L51.9453 59.2541C52.058 59.3429 52.1982 59.4171 52.3646 59.4761C52.5311 59.5351 52.7022 59.5648 52.8768 59.5648C53.0246 59.5648 53.1443 59.5485 53.236 59.5164C53.3271 59.4842 53.3943 59.4404 53.4375 59.385C53.4807 59.3301 53.5017 59.2676 53.5017 59.1975C53.5017 59.1116 53.4708 59.0421 53.4089 58.9896C53.3469 58.937 53.2669 58.8956 53.1688 58.8646C53.0707 58.8336 52.9621 58.8056 52.8424 58.7799C52.7226 58.7542 52.6029 58.7227 52.4832 58.6853C52.3635 58.6473 52.2537 58.6 52.1544 58.5422C52.0551 58.4844 51.9751 58.4073 51.9143 58.3104C51.8542 58.2134 51.8238 58.0902 51.8238 57.9395C51.8238 57.7888 51.8647 57.6458 51.9471 57.5179C52.0288 57.3905 52.1538 57.2877 52.322 57.2112C52.4896 57.1347 52.7028 57.0962 52.9609 57.0962C53.1303 57.0962 53.2979 57.1178 53.4649 57.161C53.632 57.2042 53.7768 57.2656 53.9006 57.3467L53.7353 57.7538C53.6092 57.6785 53.4784 57.623 53.344 57.5868C53.2097 57.5506 53.0806 57.5325 52.9568 57.5325C52.8143 57.5325 52.6975 57.55 52.6058 57.585C52.5141 57.6201 52.4481 57.6662 52.4061 57.724C52.364 57.7818 52.3436 57.8455 52.3436 57.9156C52.3436 58.0014 52.374 58.0709 52.4341 58.1229C52.4949 58.1755 52.5737 58.2163 52.6718 58.2455C52.7699 58.2753 52.8791 58.3034 53.0006 58.3302C53.1215 58.3571 53.2412 58.3886 53.3592 58.4248C53.4778 58.461 53.5864 58.5083 53.6857 58.5656C53.785 58.6234 53.865 58.6999 53.9257 58.7957C53.9859 58.8909 54.0162 59.0129 54.0162 59.1607C54.0162 59.3085 53.9754 59.4504 53.893 59.5783C53.8112 59.7062 53.6851 59.8084 53.5157 59.8849C53.3464 59.9614 53.1326 59.9999 52.8745 59.9999H52.8762Z" fill="#133D59"/>
<path d="M56.8604 59.9595V57.137H57.3842V59.9595H56.8604ZM57.3241 59.2943L57.3001 58.6735L58.7759 57.1375H59.3687L58.1388 58.444L57.8485 58.7623L57.3246 59.2943H57.3241ZM58.8279 59.9595L57.7434 58.6735L58.0944 58.2904L59.4452 59.9595H58.8285H58.8279Z" fill="#133D59"/>
<path d="M60.4043 59.9595V57.137H60.9282V59.9595H60.4043Z" fill="#133D59"/>
<path d="M62.2949 59.9595V57.137H62.7265L64.4967 59.3142H64.2829V57.137H64.7992V59.9595H64.3676L62.6015 57.7823H62.8153V59.9595H62.2949Z" fill="#133D59"/>
<path d="M67.485 60.0002C67.2649 60.0002 67.0622 59.9646 66.8782 59.8934C66.6943 59.8221 66.5337 59.7205 66.3964 59.5891C66.2592 59.4571 66.1529 59.3041 66.0776 59.1295C66.0022 58.9548 65.9648 58.7615 65.9648 58.549C65.9648 58.3364 66.0022 58.1431 66.0776 57.9684C66.1529 57.7938 66.2598 57.6402 66.3982 57.5088C66.5366 57.3774 66.6978 57.2758 66.8818 57.2045C67.0657 57.1333 67.2707 57.0977 67.4967 57.0977C67.7227 57.0977 67.9476 57.1368 68.1397 57.2145C68.3319 57.2921 68.4936 57.4066 68.6256 57.5573L68.2951 57.8797C68.1847 57.7693 68.0661 57.6881 67.9382 57.6355C67.8103 57.583 67.6702 57.5573 67.5172 57.5573C67.3642 57.5573 67.2287 57.5812 67.1037 57.6297C66.9787 57.6782 66.8707 57.7465 66.779 57.8353C66.6879 57.924 66.6166 58.0286 66.5652 58.1495C66.5138 58.2704 66.4887 58.4035 66.4887 58.5484C66.4887 58.6932 66.5144 58.8234 66.5652 58.9455C66.616 59.0676 66.6873 59.1733 66.779 59.262C66.8701 59.3508 66.9781 59.4191 67.1013 59.4676C67.2252 59.5161 67.3618 59.54 67.5125 59.54C67.6521 59.54 67.7876 59.5178 67.9178 59.4735C68.048 59.4291 68.1724 59.3543 68.291 59.2498L68.5853 59.6411C68.4399 59.7596 68.2706 59.8484 68.0772 59.9091C67.8839 59.9693 67.6859 59.9997 67.4845 59.9997L67.485 60.0002ZM68.0942 59.5727V58.5203H68.5859V59.6411L68.0942 59.5727Z" fill="#133D59"/>
<path d="M5.47866 53.8524H0.431554C0.215467 53.8524 0.107422 53.7443 0.107422 53.5283V44.2528C0.107422 44.0368 0.215467 43.9287 0.431554 43.9287H5.47866C5.68423 43.9287 5.78702 44.0368 5.78702 44.2528V45.3023C5.78702 45.5184 5.68423 45.6265 5.47866 45.6265H2.25311C2.12989 45.6265 2.06798 45.6831 2.06798 45.7964V47.8031C2.06798 47.9164 2.12989 47.9731 2.25311 47.9731H4.8923C5.10839 47.9731 5.21643 48.0811 5.21643 48.2972V49.3467C5.21643 49.5628 5.10839 49.6708 4.8923 49.6708H2.25311C2.12989 49.6708 2.06798 49.7274 2.06798 49.8407V51.9859C2.06798 52.0992 2.12989 52.1558 2.25311 52.1558H5.47866C5.68423 52.1558 5.78702 52.2639 5.78702 52.4799V53.5294C5.78702 53.7455 5.68423 53.8536 5.47866 53.8536V53.8524Z" fill="#133D59"/>
<path d="M5.4787 53.9605H0.431592C0.157102 53.9605 0 53.8028 0 53.5283V44.2529C0 43.9784 0.157102 43.8213 0.431592 43.8213H5.4787C5.74326 43.8213 5.8951 43.9784 5.8951 44.2529V45.3024C5.8951 45.5769 5.74326 45.734 5.4787 45.734H2.25315C2.17548 45.734 2.17548 45.7562 2.17548 45.7959V47.8026C2.17548 47.844 2.17548 47.8645 2.25315 47.8645H4.89234C5.16683 47.8645 5.32452 48.0216 5.32452 48.2961V49.3455C5.32452 49.62 5.16683 49.7777 4.89234 49.7777H2.25315C2.17548 49.7777 2.17548 49.7999 2.17548 49.8396V51.9847C2.17548 52.0262 2.17548 52.0466 2.25315 52.0466H5.4787C5.74326 52.0466 5.8951 52.2037 5.8951 52.4782V53.5277C5.8951 53.8022 5.74326 53.9599 5.4787 53.9599V53.9605ZM0.431592 44.0368C0.275658 44.0368 0.215504 44.0975 0.215504 44.2529V53.5283C0.215504 53.6842 0.276243 53.745 0.431592 53.745H5.4787C5.60251 53.745 5.6796 53.7088 5.6796 53.5283V52.4788C5.6796 52.2989 5.60251 52.2627 5.4787 52.2627H2.25315C2.06977 52.2627 1.95997 52.1588 1.95997 51.9853V49.8402C1.95997 49.6662 2.06977 49.5628 2.25315 49.5628H4.89234C5.04827 49.5628 5.10901 49.5021 5.10901 49.3461V48.2966C5.10901 48.1407 5.04827 48.0806 4.89234 48.0806H2.25315C2.06977 48.0806 1.95997 47.9766 1.95997 47.8031V45.7964C1.95997 45.6224 2.06977 45.519 2.25315 45.519H5.4787C5.60251 45.519 5.6796 45.4828 5.6796 45.3029V44.2535C5.6796 44.0736 5.60251 44.0374 5.4787 44.0374H0.431592V44.0368Z" fill="#133D59"/>
<path d="M7.25347 51.3216V51.0133C7.25347 50.7972 7.36151 50.6891 7.5776 50.6891H8.88931C9.10539 50.6891 9.21344 50.7972 9.21344 51.0133V51.1371C9.21344 51.5284 9.29053 51.7953 9.44471 51.9395C9.59889 52.0838 9.88214 52.1556 10.2939 52.1556H11.0192C11.4205 52.1556 11.7008 52.0785 11.8602 51.9243C12.0197 51.7702 12.0997 51.4822 12.0997 51.06V50.8749C12.0997 50.5764 11.9788 50.3475 11.737 50.1881C11.4952 50.0286 11.1938 49.9334 10.8341 49.9025C10.4738 49.8715 10.0854 49.8125 9.66897 49.7249C9.25198 49.6373 8.86361 49.5246 8.50385 49.3856C8.14351 49.2466 7.84274 48.9739 7.60096 48.5674C7.35917 48.1609 7.23828 47.6388 7.23828 47.001V46.4608C7.23828 45.6584 7.4643 45.0358 7.9175 44.5931C8.37011 44.151 8.99793 43.9297 9.80038 43.9297H11.3439C12.1569 43.9297 12.7894 44.151 13.2426 44.5931C13.6952 45.0358 13.9218 45.6584 13.9218 46.4608V46.754C13.9218 46.9701 13.8138 47.0781 13.5977 47.0781H12.286C12.0699 47.0781 11.9618 46.9701 11.9618 46.754V46.6612C11.9618 46.2599 11.8847 45.9872 11.7306 45.8429C11.5764 45.6993 11.2931 45.6269 10.882 45.6269H10.2799C9.85761 45.6269 9.57203 45.7069 9.4231 45.8663C9.27359 46.0257 9.19942 46.337 9.19942 46.8001V47.0933C9.19942 47.5769 9.62109 47.8549 10.465 47.9267C11.3393 47.9986 12.1166 48.1738 12.7952 48.4518C13.1556 48.6059 13.4563 48.8816 13.6981 49.2776C13.9399 49.6741 14.0608 50.1805 14.0608 50.7978V51.3222C14.0608 52.1247 13.8342 52.7472 13.3816 53.1899C12.929 53.6326 12.3012 53.8534 11.4987 53.8534H9.81615C9.0137 53.8534 8.38588 53.632 7.93327 53.1899C7.48065 52.7478 7.25405 52.1252 7.25405 51.3222L7.25347 51.3216Z" fill="#133D59"/>
<path d="M11.4986 53.96H9.81599C8.98785 53.96 8.32908 53.7264 7.85777 53.2656C7.38588 52.8042 7.14644 52.1501 7.14644 51.3208V51.0124C7.14644 50.7379 7.30412 50.5803 7.57861 50.5803H8.89032C9.16481 50.5803 9.3225 50.7379 9.3225 51.0124V51.1362C9.3225 51.4942 9.38907 51.7378 9.51989 51.8598C9.65305 51.9842 9.91352 52.0473 10.2955 52.0473H11.0208C11.3911 52.0473 11.6486 51.9796 11.7871 51.8458C11.9237 51.7133 11.9932 51.4487 11.9932 51.0592V50.874C11.9932 50.6124 11.8904 50.4167 11.679 50.2771C11.4536 50.1288 11.1668 50.0383 10.8264 50.0091C10.4619 49.9775 10.0654 49.9174 9.64838 49.8298C9.22847 49.7416 8.83075 49.626 8.46632 49.4852C8.08496 49.338 7.76258 49.0478 7.5097 48.622C7.25915 48.201 7.13184 47.6555 7.13184 47.0002V46.46C7.13184 45.6313 7.37128 44.9766 7.84317 44.5152C8.31506 44.0544 8.97384 43.8208 9.80139 43.8208H11.345C12.183 43.8208 12.8471 44.0544 13.3184 44.5152C13.7908 44.9766 14.0297 45.6313 14.0297 46.46V46.7532C14.0297 47.0277 13.8726 47.1853 13.5981 47.1853H12.2864C12.0119 47.1853 11.8548 47.0277 11.8548 46.7532V46.6603C11.8548 46.2924 11.7882 46.0436 11.6574 45.9209C11.5243 45.7971 11.2632 45.7341 10.8824 45.7341H10.2803C9.89133 45.7341 9.62969 45.803 9.50237 45.939C9.4136 46.0342 9.3079 46.2603 9.3079 46.7993V47.0925C9.3079 47.2472 9.3079 47.7191 10.4748 47.8184C11.3561 47.8908 12.1509 48.0701 12.8371 48.351C13.2179 48.5146 13.5385 48.8066 13.7914 49.2201C14.0425 49.6318 14.1699 50.1627 14.1699 50.7969V51.3214C14.1699 52.1507 13.9304 52.8048 13.4585 53.2662C12.9866 53.727 12.3279 53.9606 11.5003 53.9606L11.4986 53.96ZM7.57861 50.7958C7.42268 50.7958 7.36194 50.8565 7.36194 51.0124V51.3208C7.36194 52.0899 7.57978 52.6921 8.00845 53.1114C8.43829 53.5313 9.04625 53.7445 9.81599 53.7445H11.4986C12.2683 53.7445 12.8763 53.5313 13.3061 53.1114C13.7354 52.6921 13.9526 52.0899 13.9526 51.3208V50.7963C13.9526 50.2024 13.8358 49.7095 13.6057 49.3322C13.3768 48.9573 13.0894 48.6944 12.7524 48.5496C12.089 48.278 11.3152 48.104 10.4555 48.0333C9.54968 47.9562 9.09122 47.6397 9.09122 47.0925V46.7993C9.09122 46.3035 9.17415 45.9741 9.3441 45.7919C9.51639 45.6079 9.82242 45.5185 10.2797 45.5185H10.8818C11.3257 45.5185 11.627 45.5986 11.804 45.7638C11.9827 45.9309 12.0697 46.2246 12.0697 46.6609V46.7537C12.0697 46.9097 12.1305 46.9704 12.2858 46.9704H13.5975C13.7535 46.9704 13.8136 46.9097 13.8136 46.7537V46.4606C13.8136 45.692 13.5958 45.0899 13.1671 44.67C12.7373 44.2501 12.1235 44.0369 11.3444 44.0369H9.80081C9.03107 44.0369 8.42311 44.2501 7.99327 44.67C7.56401 45.0893 7.34676 45.692 7.34676 46.4606V47.0008C7.34676 47.6163 7.46356 48.125 7.69425 48.5122C7.92201 48.8954 8.2076 49.1552 8.54341 49.2849C8.89674 49.421 9.28337 49.5337 9.69218 49.6195C10.101 49.7054 10.4888 49.7644 10.8445 49.7953C11.2206 49.8275 11.5412 49.9297 11.7976 50.0979C12.0703 50.2783 12.2087 50.54 12.2087 50.8746V51.0597C12.2087 51.5164 12.12 51.8242 11.9366 52.0018C11.7544 52.1781 11.4548 52.2634 11.0202 52.2634H10.2949C9.85103 52.2634 9.5491 52.1834 9.37214 52.0181C9.19343 51.8517 9.10641 51.5632 9.10641 51.1368V51.013C9.10641 50.8571 9.04567 50.7963 8.88974 50.7963H7.57803L7.57861 50.7958Z" fill="#133D59"/>
<path d="M17.8565 44.2524V53.5278C17.8565 53.7439 17.7484 53.8519 17.5323 53.8519H16.2206C16.0045 53.8519 15.8965 53.7439 15.8965 53.5278V44.2524C15.8965 44.0363 16.0045 43.9282 16.2206 43.9282H17.5323C17.7484 43.9282 17.8565 44.0363 17.8565 44.2524Z" fill="#133D59"/>
<path d="M17.5324 53.96H16.2207C15.9462 53.96 15.7891 53.8023 15.7891 53.5278V44.2524C15.7891 43.9779 15.9462 43.8208 16.2207 43.8208H17.5324C17.8069 43.8208 17.964 43.9779 17.964 44.2524V53.5278C17.964 53.8023 17.8069 53.96 17.5324 53.96ZM16.2207 44.0363C16.0647 44.0363 16.0046 44.097 16.0046 44.2524V53.5278C16.0046 53.6837 16.0653 53.7445 16.2207 53.7445H17.5324C17.6883 53.7445 17.7485 53.6837 17.7485 53.5278V44.2524C17.7485 44.0965 17.6877 44.0363 17.5324 44.0363H16.2207Z" fill="#133D59"/>
<path d="M26.5307 43.929H28.8148C29.0309 43.929 29.1389 44.037 29.1389 44.2531V53.5285C29.1389 53.7446 29.0309 53.8526 28.8148 53.8526H27.5492C27.3332 53.8526 27.2251 53.7446 27.2251 53.5285V46.2131H27.1632L25.5887 51.3834C25.5268 51.589 25.3983 51.6918 25.2026 51.6918H23.9061C23.7105 51.6918 23.582 51.589 23.5201 51.3834L21.9152 46.1973H21.8533V53.5285C21.8533 53.6523 21.8323 53.737 21.7914 53.7831C21.7499 53.8293 21.6623 53.8526 21.5292 53.8526H20.2636C20.0475 53.8526 19.9395 53.7446 19.9395 53.5285V44.2531C19.9395 44.037 20.0475 43.929 20.2636 43.929H22.5635C22.7071 43.929 22.8052 44.0008 22.8566 44.145L24.4925 49.5934H24.5853L26.2369 44.145C26.2679 44.0008 26.3654 43.929 26.5301 43.929H26.5307Z" fill="#133D59"/>
<path d="M28.8147 53.9596H27.5491C27.2746 53.9596 27.1169 53.8019 27.1169 53.5274V46.7335L25.6919 51.4138C25.5967 51.7321 25.373 51.7987 25.2031 51.7987H23.9066C23.736 51.7987 23.5129 51.7321 23.4177 51.4133L21.9618 46.7096V53.5274C21.9618 53.6793 21.9326 53.7861 21.873 53.8533C21.8087 53.9257 21.6995 53.959 21.5302 53.959H20.2646C19.9901 53.959 19.833 53.8013 19.833 53.5268V44.2514C19.833 43.9769 19.9901 43.8198 20.2646 43.8198H22.5645C22.7554 43.8198 22.8915 43.9191 22.9593 44.1072L24.5402 49.3721L26.1346 44.1124C26.1737 43.9267 26.3156 43.8198 26.5311 43.8198H28.8152C29.0897 43.8198 29.2474 43.9769 29.2474 44.2514V53.5268C29.2474 53.8013 29.0897 53.959 28.8152 53.959L28.8147 53.9596ZM27.0836 46.1045H27.333V53.528C27.333 53.6839 27.3937 53.7447 27.5497 53.7447H28.8152C28.9712 53.7447 29.0319 53.6839 29.0319 53.528V44.2526C29.0319 44.0967 28.9712 44.0365 28.8152 44.0365H26.5311C26.391 44.0365 26.3577 44.0996 26.3431 44.1673L24.6664 49.7009H24.4135L22.7543 44.1761C22.7198 44.0803 22.662 44.0371 22.5645 44.0371H20.2646C20.1087 44.0371 20.0485 44.0978 20.0485 44.2532V53.5286C20.0485 53.6845 20.1093 53.7453 20.2646 53.7453H21.5302C21.6808 53.7453 21.7106 53.7131 21.7118 53.712C21.72 53.7032 21.7463 53.6629 21.7463 53.5292V46.0905H21.9951L23.6233 51.3519C23.6718 51.5131 23.7588 51.5844 23.906 51.5844H25.2025C25.3497 51.5844 25.4373 51.5131 25.4852 51.3525L27.083 46.1051L27.0836 46.1045Z" fill="#133D59"/>
<path d="M32.7804 53.8524H31.4687C31.2526 53.8524 31.1445 53.7443 31.1445 53.5283V44.2528C31.1445 44.0368 31.2526 43.9287 31.4687 43.9287H35.2344C36.0369 43.9287 36.6594 44.1471 37.1021 44.5846C37.5442 45.022 37.7656 45.6416 37.7656 46.4441V47.9257C37.7656 48.7282 37.5442 49.3484 37.1021 49.7853C36.6594 50.2227 36.0375 50.4411 35.2344 50.4411H33.2896C33.1664 50.4411 33.1045 50.4978 33.1045 50.6111V53.5277C33.1045 53.7438 32.9965 53.8518 32.7804 53.8518V53.8524ZM33.2745 48.7282H34.9103C35.2397 48.7282 35.471 48.6587 35.6047 48.5197C35.7384 48.3807 35.805 48.1518 35.805 47.8329V46.5364C35.805 46.207 35.7379 45.9728 35.6047 45.8344C35.471 45.6954 35.2391 45.6259 34.9103 45.6259H33.2745C33.1612 45.6259 33.1045 45.6825 33.1045 45.7958V48.5582C33.1045 48.6715 33.1612 48.7282 33.2745 48.7282Z" fill="#F2B21B"/>
<path d="M32.7804 53.9602H31.4687C31.1942 53.9602 31.0371 53.8025 31.0371 53.528V44.2526C31.0371 43.9781 31.1942 43.821 31.4687 43.821H35.2345C36.0626 43.821 36.7161 44.0523 37.1775 44.5079C37.6389 44.9646 37.8731 45.6157 37.8731 46.4445V47.9261C37.8731 48.7549 37.6389 49.406 37.1775 49.8627C36.7161 50.3189 36.0626 50.5495 35.2345 50.5495H33.2897C33.212 50.5495 33.212 50.5717 33.212 50.6115V53.528C33.212 53.8025 33.0549 53.9602 32.7804 53.9602ZM31.4687 44.0366C31.3128 44.0366 31.2526 44.0973 31.2526 44.2526V53.528C31.2526 53.684 31.3134 53.7447 31.4687 53.7447H32.7804C32.9363 53.7447 32.9965 53.684 32.9965 53.528V50.6115C32.9965 50.4374 33.1063 50.334 33.2897 50.334H35.2345C36.0042 50.334 36.6069 50.1238 37.0262 49.7091C37.4456 49.2945 37.6581 48.6947 37.6581 47.9261V46.4445C37.6581 45.6759 37.4456 45.0761 37.0262 44.6615C36.6069 44.2468 36.0036 44.0366 35.2345 44.0366H31.4687ZM34.9103 48.8366H33.2745C33.1005 48.8366 32.9971 48.7327 32.9971 48.5592V45.7968C32.9971 45.6227 33.101 45.5194 33.2745 45.5194H34.9103C35.2736 45.5194 35.5259 45.5982 35.6824 45.7606C35.8378 45.9223 35.9131 46.1764 35.9131 46.5379V47.8344C35.9131 48.1808 35.8354 48.4366 35.6824 48.596C35.5259 48.7584 35.273 48.8372 34.9103 48.8372V48.8366ZM33.2745 45.7343C33.2208 45.7343 33.2126 45.7425 33.2126 45.7962V48.5586C33.2126 48.6123 33.2208 48.6205 33.2745 48.6205H34.9103C35.2076 48.6205 35.4149 48.5615 35.5271 48.4453C35.6404 48.3279 35.6976 48.1218 35.6976 47.8333V46.5367C35.6976 46.2383 35.6404 46.0269 35.5271 45.9095C35.4149 45.7933 35.2076 45.7343 34.9103 45.7343H33.2745Z" fill="#F2B21B"/>
<path d="M40.359 53.8524H38.8773C38.6922 53.8524 38.6303 53.7443 38.6922 53.5283L41.131 44.2528C41.2029 44.0368 41.3571 43.9287 41.5942 43.9287H43.647C43.904 43.9287 44.0582 44.0368 44.1101 44.2528L46.549 53.5283C46.6109 53.7443 46.549 53.8524 46.3639 53.8524H44.8822C44.7689 53.8524 44.6918 53.829 44.6509 53.7829C44.6095 53.7367 44.5791 53.6515 44.5581 53.5283L44.1259 51.8305H41.1164L40.6843 53.5283C40.6632 53.6521 40.6305 53.7367 40.5838 53.7829C40.5371 53.829 40.4629 53.8524 40.3601 53.8524H40.359ZM42.5969 45.7958L41.4855 50.256H43.7696L42.6583 45.7958H42.5963H42.5969Z" fill="#F2B21B"/>
<path d="M46.3623 53.9602H44.8807C44.7335 53.9602 44.6313 53.9257 44.5682 53.8545C44.5127 53.7926 44.4742 53.6915 44.4502 53.5461L44.0408 51.9383H41.199L40.7873 53.5549C40.7645 53.6939 40.7219 53.7961 40.6588 53.8591C40.5916 53.9263 40.4906 53.9602 40.3586 53.9602H38.8769C38.7578 53.9602 38.6702 53.9234 38.6153 53.851C38.5528 53.768 38.544 53.653 38.5878 53.4982L41.0261 44.2246C41.1143 43.9577 41.31 43.8198 41.5932 43.8198H43.646C44.035 43.8198 44.1693 44.0412 44.2137 44.2269L46.6514 53.5005C46.6946 53.653 46.6859 53.768 46.6234 53.851C46.5691 53.9234 46.4809 53.9602 46.3617 53.9602H46.3623ZM41.0308 51.7228H44.2079L44.6605 53.5017C44.6856 53.6501 44.7165 53.6974 44.7294 53.7114C44.744 53.7277 44.7907 53.7447 44.8801 53.7447H46.3617C46.4073 53.7447 46.44 53.7359 46.4511 53.7213C46.4645 53.7032 46.4698 53.6506 46.4435 53.5578L44.0046 44.28C43.9772 44.1656 43.9124 44.0365 43.646 44.0365H41.5932C41.404 44.0365 41.2895 44.1159 41.2323 44.287L38.7958 53.556C38.7689 53.6512 38.7736 53.7038 38.7876 53.7219C38.7987 53.7365 38.8314 53.7453 38.8769 53.7453H40.3586C40.4293 53.7453 40.4818 53.7318 40.5063 53.7073C40.5233 53.6904 40.5542 53.6431 40.5764 53.5111L41.0314 51.7234L41.0308 51.7228ZM43.9071 50.3638H41.3473L42.5125 45.6881H42.7426L43.9077 50.3638H43.9071ZM41.623 50.1483H43.6314L42.6275 46.1179L41.623 50.1483Z" fill="#F2B21B"/>
<path d="M53.3245 53.8524H48.247C48.0309 53.8524 47.9229 53.7443 47.9229 53.5283V44.2528C47.9229 44.0368 48.0309 43.9287 48.247 43.9287H49.5587C49.7748 43.9287 49.8828 44.0368 49.8828 44.2528V51.9701C49.8828 52.0834 49.9447 52.14 50.068 52.14H53.3245C53.53 52.14 53.6334 52.2533 53.6334 52.4794V53.5288C53.6334 53.7449 53.5306 53.853 53.3245 53.853V53.8524Z" fill="#F2B21B"/>
<path d="M53.3245 53.96H48.247C47.9725 53.96 47.8154 53.8023 47.8154 53.5278V44.2524C47.8154 43.9779 47.9725 43.8208 48.247 43.8208H49.5587C49.8332 43.8208 49.9903 43.9779 49.9903 44.2524V51.9696C49.9903 52.0094 49.9903 52.0315 50.068 52.0315H53.3245C53.5891 52.0315 53.7409 52.1945 53.7409 52.4789V53.5284C53.7409 53.8029 53.5891 53.9606 53.3245 53.9606V53.96ZM48.247 44.0363C48.0911 44.0363 48.0309 44.097 48.0309 44.2524V53.5278C48.0309 53.6837 48.0917 53.7445 48.247 53.7445H53.3245C53.4483 53.7445 53.5254 53.7083 53.5254 53.5278V52.4783C53.5254 52.2862 53.4448 52.2465 53.3245 52.2465H50.068C49.8846 52.2465 49.7748 52.1425 49.7748 51.9691V44.2518C49.7748 44.0959 49.7141 44.0357 49.5587 44.0357H48.247V44.0363Z" fill="#F2B21B"/>
<path d="M55.8863 53.8529H54.4046C54.2195 53.8529 54.1576 53.7448 54.2195 53.5287L56.6584 44.2533C56.7302 44.0372 56.8844 43.9292 57.1215 43.9292H59.1743C59.4313 43.9292 59.5855 44.0372 59.6375 44.2533L62.0763 53.5287C62.1382 53.7448 62.0763 53.8529 61.8912 53.8529H60.4095C60.2962 53.8529 60.2192 53.8295 60.1783 53.7834C60.1368 53.7372 60.1064 53.652 60.0854 53.5287L59.6532 51.831H56.6438L56.2116 53.5287C56.1906 53.6526 56.1579 53.7372 56.1112 53.7834C56.0644 53.8295 55.9903 53.8529 55.8875 53.8529H55.8863ZM58.1243 45.7963L57.0129 50.2565H59.297L58.1856 45.7963H58.1237H58.1243Z" fill="#F2B21B"/>
<path d="M61.8897 53.9602H60.408C60.2608 53.9602 60.1586 53.9257 60.0955 53.8545C60.0401 53.7926 60.0015 53.6915 59.9776 53.5461L59.5682 51.9383H56.7263L56.3146 53.5549C56.2918 53.6939 56.2492 53.7961 56.1861 53.8591C56.119 53.9263 56.0179 53.9602 55.8859 53.9602H54.4043C54.2851 53.9602 54.1975 53.9234 54.1426 53.851C54.0801 53.768 54.0714 53.653 54.1152 53.4982L56.5535 44.2246C56.6417 43.9577 56.8373 43.8198 57.1206 43.8198H59.1734C59.5623 43.8198 59.6967 44.0412 59.741 44.2269L62.1788 53.5005C62.222 53.653 62.2132 53.768 62.1507 53.851C62.0964 53.9234 62.0082 53.9602 61.8891 53.9602H61.8897ZM56.5581 51.7228H59.7352L60.1878 53.5017C60.2129 53.6501 60.2439 53.6974 60.2567 53.7114C60.2713 53.7277 60.3181 53.7447 60.4074 53.7447H61.8891C61.9346 53.7447 61.9673 53.7359 61.9784 53.7213C61.9919 53.7032 61.9971 53.6506 61.9708 53.5578L59.532 44.28C59.5045 44.1656 59.4397 44.0365 59.1734 44.0365H57.1206C56.9313 44.0365 56.8169 44.1159 56.7596 44.287L54.3231 53.556C54.2962 53.6512 54.3009 53.7038 54.3149 53.7219C54.326 53.7365 54.3587 53.7453 54.4043 53.7453H55.8859C55.9566 53.7453 56.0092 53.7318 56.0337 53.7073C56.0506 53.6904 56.0816 53.6431 56.1038 53.5111L56.5587 51.7234L56.5581 51.7228ZM59.4344 50.3638H56.8747L58.0398 45.6881H58.2699L59.435 50.3638H59.4344ZM57.1503 50.1483H59.1588L58.1548 46.1179L57.1503 50.1483Z" fill="#F2B21B"/>
<path d="M67.5209 53.8525H65.8383C65.0254 53.8525 64.3975 53.6364 63.9554 53.2042C63.5128 52.772 63.292 52.1495 63.292 51.3365V46.4442C63.292 45.6318 63.5133 45.0087 63.9554 44.5765C64.3975 44.1443 65.0254 43.9282 65.8383 43.9282H67.5209C68.3233 43.9282 68.9482 44.1466 69.3962 44.5841C69.8435 45.0215 70.0678 45.6412 70.0678 46.4436V47.169C70.0678 47.3956 69.9545 47.5083 69.7279 47.5083H68.4314C68.2153 47.5083 68.1072 47.395 68.1072 47.169V46.5359C68.1072 46.2065 68.0377 45.9723 67.8987 45.8339C67.7597 45.6949 67.5256 45.6254 67.1962 45.6254H66.1467C65.8278 45.6254 65.5989 45.6949 65.4599 45.8339C65.3209 45.9729 65.2514 46.2071 65.2514 46.5359V51.2431C65.2514 51.5725 65.3209 51.8067 65.4599 51.9451C65.5989 52.0841 65.8278 52.1536 66.1467 52.1536H67.1962C67.5256 52.1536 67.7597 52.0841 67.8987 51.9451C68.0377 51.8061 68.1072 51.5725 68.1072 51.2431V50.6106C68.1072 50.3846 68.2153 50.2713 68.4314 50.2713H69.7279C69.9539 50.2713 70.0678 50.3846 70.0678 50.6106V51.3359C70.0678 52.1384 69.8441 52.7586 69.3962 53.1955C68.9488 53.6329 68.3233 53.8513 67.5209 53.8513V53.8525Z" fill="#F2B21B"/>
<path d="M67.5215 53.96H65.8389C65.0003 53.96 64.3415 53.7316 63.8807 53.2813C63.4188 52.8305 63.1846 52.1758 63.1846 51.3366V46.4442C63.1846 45.605 63.4188 44.9509 63.8807 44.4994C64.3415 44.0492 65.0003 43.8208 65.8389 43.8208H67.5215C68.3491 43.8208 69.0055 44.0521 69.4721 44.5076C69.9394 44.9643 70.1759 45.6161 70.1759 46.4442V47.1696C70.1759 47.454 70.0129 47.6169 69.7285 47.6169H68.432C68.1575 47.6169 67.9998 47.454 67.9998 47.1696V46.5365C67.9998 46.2386 67.9403 46.0278 67.8229 45.9104C67.7055 45.793 67.4946 45.7335 67.1968 45.7335H66.1473C65.8594 45.7335 65.6538 45.793 65.5364 45.9104C65.419 46.0278 65.3595 46.2386 65.3595 46.5365V51.2437C65.3595 51.5415 65.419 51.7524 65.5364 51.8698C65.6538 51.9872 65.8594 52.0467 66.1473 52.0467H67.1968C67.4952 52.0467 67.7055 51.9872 67.8229 51.8698C67.9403 51.7524 67.9998 51.5415 67.9998 51.2437V50.6112C67.9998 50.3268 68.1575 50.1638 68.432 50.1638H69.7285C70.0129 50.1638 70.1759 50.3268 70.1759 50.6112V51.3366C70.1759 52.1653 69.9394 52.817 69.4721 53.2732C69.0061 53.7287 68.3496 53.96 67.5215 53.96ZM65.8389 44.0363C65.0587 44.0363 64.4507 44.2442 64.0314 44.6536C63.6127 45.0624 63.4001 45.6651 63.4001 46.4442V51.3366C63.4001 52.1156 63.6127 52.7178 64.0314 53.1272C64.4507 53.5371 65.0587 53.7445 65.8389 53.7445H67.5215C68.2912 53.7445 68.8969 53.5342 69.3215 53.1196C69.7455 52.7055 69.9604 52.1057 69.9604 51.3371V50.6118C69.9604 50.4448 69.8956 50.3799 69.7285 50.3799H68.432C68.2761 50.3799 68.2153 50.4448 68.2153 50.6118V51.2443C68.2153 51.6064 68.1371 51.861 67.9753 52.0228C67.8159 52.1822 67.5542 52.2628 67.1968 52.2628H66.1473C65.8004 52.2628 65.5434 52.1822 65.384 52.0228C65.2228 51.861 65.144 51.6064 65.144 51.2443V46.5371C65.144 46.1797 65.2246 45.918 65.384 45.7586C65.5434 45.5991 65.7998 45.5185 66.1473 45.5185H67.1968C67.5542 45.5185 67.8159 45.5991 67.9753 45.7586C68.1341 45.918 68.2153 46.1797 68.2153 46.5371V47.1702C68.2153 47.3372 68.2761 47.402 68.432 47.402H69.7285C69.8956 47.402 69.9604 47.3372 69.9604 47.1702V46.4448C69.9604 45.6762 69.7455 45.0764 69.3215 44.6624C68.8969 44.2477 68.2912 44.0375 67.5215 44.0375H65.8389V44.0363Z" fill="#F2B21B"/>
<path d="M77.1203 53.8524H72.0732C71.8571 53.8524 71.749 53.7443 71.749 53.5283V44.2528C71.749 44.0368 71.8571 43.9287 72.0732 43.9287H77.1203C77.3258 43.9287 77.4286 44.0368 77.4286 44.2528V45.3023C77.4286 45.5184 77.3258 45.6265 77.1203 45.6265H73.8947C73.7715 45.6265 73.7096 45.6831 73.7096 45.7964V47.8031C73.7096 47.9164 73.7715 47.9731 73.8947 47.9731H76.5339C76.75 47.9731 76.858 48.0811 76.858 48.2972V49.3467C76.858 49.5628 76.75 49.6708 76.5339 49.6708H73.8947C73.7715 49.6708 73.7096 49.7274 73.7096 49.8407V51.9859C73.7096 52.0992 73.7715 52.1558 73.8947 52.1558H77.1203C77.3258 52.1558 77.4286 52.2639 77.4286 52.4799V53.5294C77.4286 53.7455 77.3258 53.8536 77.1203 53.8536V53.8524Z" fill="#F2B21B"/>
<path d="M77.1203 53.96H72.0732C71.7987 53.96 71.6416 53.8023 71.6416 53.5278V44.2524C71.6416 43.9779 71.7987 43.8208 72.0732 43.8208H77.1203C77.3849 43.8208 77.5367 43.9779 77.5367 44.2524V45.3019C77.5367 45.5764 77.3849 45.7335 77.1203 45.7335H73.8947C73.8171 45.7335 73.8171 45.7557 73.8171 45.7954V47.8021C73.8171 47.8435 73.8171 47.864 73.8947 47.864H76.5339C76.8084 47.864 76.9661 48.0211 76.9661 48.2956V49.345C76.9661 49.6195 76.8084 49.7772 76.5339 49.7772H73.8947C73.8171 49.7772 73.8171 49.7994 73.8171 49.8391V51.9842C73.8171 52.0257 73.8171 52.0461 73.8947 52.0461H77.1203C77.3849 52.0461 77.5367 52.2032 77.5367 52.4777V53.5272C77.5367 53.8017 77.3849 53.9594 77.1203 53.9594V53.96ZM72.0732 44.0363C71.9173 44.0363 71.8571 44.097 71.8571 44.2524V53.5278C71.8571 53.6837 71.9178 53.7445 72.0732 53.7445H77.1203C77.2441 53.7445 77.3212 53.7083 77.3212 53.5278V52.4783C77.3212 52.2984 77.2441 52.2622 77.1203 52.2622H73.8947C73.7114 52.2622 73.6016 52.1583 73.6016 51.9848V49.8397C73.6016 49.6657 73.7114 49.5623 73.8947 49.5623H76.5339C76.6899 49.5623 76.7506 49.5016 76.7506 49.3456V48.2961C76.7506 48.1402 76.6899 48.0801 76.5339 48.0801H73.8947C73.7114 48.0801 73.6016 47.9761 73.6016 47.8027V45.796C73.6016 45.6219 73.7114 45.5185 73.8947 45.5185H77.1203C77.2441 45.5185 77.3212 45.4823 77.3212 45.3025V44.253C77.3212 44.0731 77.2441 44.0369 77.1203 44.0369H72.0732V44.0363Z" fill="#F2B21B"/>
<path d="M54.6764 20.8764C53.4896 20.8764 52.5237 21.8423 52.5237 23.0291C52.5237 23.3591 52.6025 23.6902 52.752 23.9886L52.8852 24.2538L51.8421 25.8376C51.1921 25.6659 50.4767 25.9106 50.0801 26.4999L49.6246 27.1774L48.9547 26.16V21.4779L49.2631 21.3436C50.0433 21.0008 50.5485 20.2281 50.5485 19.3754C50.5485 18.1887 49.5826 17.2227 48.3958 17.2227C47.2091 17.2227 46.2449 18.1887 46.2449 19.3754C46.2449 20.0698 46.5673 20.7029 47.1297 21.1117L47.3417 21.2665V26.6436L48.6487 28.6293L45.9429 32.6555H37.6913V30.8316L43.6991 25.0737L43.7056 18.851L43.7067 18.7149V17.2035L43.9806 17.0575C44.6861 16.6843 45.1253 15.956 45.1253 15.1565C45.1253 13.9698 44.1593 13.0038 42.9726 13.0038C41.7859 13.0038 40.8217 13.9698 40.8217 15.1565C40.8217 15.9093 41.2048 16.5932 41.846 16.988L42.0907 17.1392V24.3782L38.7209 27.6078V18.705C38.7209 18.0182 38.2934 17.4324 37.6907 17.1959V12.7299L37.9494 12.5815C38.6182 12.1973 39.0346 11.4824 39.0346 10.7144C39.0346 9.5277 38.0698 8.56348 36.8836 8.56348C35.6975 8.56348 34.7309 9.52828 34.7309 10.7144C34.7309 11.4824 35.1473 12.1967 35.8172 12.5815L36.0759 12.7299V17.1947C35.4709 17.4301 35.0416 18.017 35.0416 18.7056V27.4279L31.8587 24.3782V17.1392L32.1034 16.988C32.7441 16.5932 33.1278 15.9093 33.1278 15.1565C33.1278 13.9698 32.163 13.0038 30.9768 13.0038C29.7907 13.0038 28.8241 13.9698 28.8241 15.1565C28.8241 15.956 29.2633 16.6843 29.9688 17.0575L30.2427 17.2035V18.9141L30.2439 18.9152L30.2503 25.0732L36.0753 30.6546V32.6549H27.7746L25.167 28.7753L26.5073 26.7394V21.2659L26.7193 21.1112C27.2829 20.7023 27.6053 20.0693 27.6053 19.3749C27.6053 18.1881 26.6393 17.2222 25.4526 17.2222C24.2659 17.2222 23.3016 18.1881 23.3016 19.3749C23.3016 20.2275 23.8056 21.0008 24.5871 21.343L24.8943 21.4773V26.254L24.1911 27.3228L23.426 26.1845C23.0102 25.5661 22.244 25.3272 21.57 25.5509V25.5497L20.6262 24.1171L20.7343 23.8631C20.847 23.5979 20.9042 23.3176 20.9042 23.0279C20.9042 21.8412 19.9383 20.8752 18.7515 20.8752C17.5648 20.8752 16.6006 21.8412 16.6006 23.0279C16.6006 24.2146 17.5654 25.1789 18.7515 25.1789C18.8403 25.1789 18.932 25.1736 19.0243 25.1613L19.3426 25.1205L20.2916 26.5595C20.0142 27.0734 20.0235 27.7188 20.3716 28.2362L24.4311 34.2756H28.8638L28.8586 34.268H44.8549L44.8497 34.2756H49.2824L53.1305 28.5504C53.5007 27.9991 53.4873 27.3029 53.1527 26.7762L54.2249 25.1479L54.528 25.173C54.5788 25.1771 54.6256 25.1783 54.6729 25.1783C55.8596 25.1783 56.8238 24.2135 56.8238 23.0273C56.8238 21.8412 55.859 20.8746 54.6729 20.8746L54.6764 20.8764ZM47.5846 19.3889C47.5846 18.9625 47.9309 18.6162 48.3573 18.6162C48.7836 18.6162 49.1317 18.9625 49.1317 19.3889C49.1317 19.8152 48.7854 20.1633 48.3573 20.1633C47.9292 20.1633 47.5846 19.817 47.5846 19.3889ZM24.5958 19.3889C24.5958 18.9625 24.941 18.6162 25.3685 18.6162C25.796 18.6162 26.1429 18.9625 26.1429 19.3889C26.1429 19.8152 25.7966 20.1633 25.3685 20.1633C24.9404 20.1633 24.5958 19.817 24.5958 19.3889ZM36.066 10.6788C36.066 10.2513 36.4123 9.90439 36.8404 9.90439C37.2685 9.90439 37.6131 10.2507 37.6131 10.6788C37.6131 11.1069 37.2679 11.4515 36.8404 11.4515C36.4129 11.4515 36.066 11.1051 36.066 10.6788Z" fill="#133D59"/>
<path d="M49.5433 35.0552H24.4824V38.1061H49.5433V35.0552Z" fill="#133D59"/>
<path d="M32.1414 11.4561C32.1682 10.0113 32.7453 8.65575 33.7737 7.63021C34.8004 6.60525 36.1606 6.02941 37.6137 6.00313V3.96606C33.5016 4.02155 30.1668 7.35105 30.1113 11.4567H32.142L32.1414 11.4561Z" fill="#F2B21B"/>
<path d="M37.6129 2.03356V0C31.3125 0.056066 26.1983 5.16216 26.1416 11.4521H28.1717C28.2277 6.28348 32.4321 2.08962 37.6129 2.03356Z" fill="#F2B21B"/>
</svg>
