<svg width="141" height="110" viewBox="0 0 141 110" fill="none" xmlns="http://www.w3.org/2000/svg">
<path d="M20.2145 109.196C19.8189 109.196 19.4552 109.131 19.1233 109.002C18.7914 108.872 18.5019 108.688 18.2559 108.449C18.0099 108.209 17.818 107.932 17.6812 107.615C17.5444 107.298 17.4766 106.947 17.4766 106.561C17.4766 106.175 17.5444 105.824 17.6812 105.507C17.818 105.19 18.011 104.911 18.2602 104.672C18.5094 104.433 18.7988 104.249 19.1307 104.12C19.4626 103.99 19.8264 103.926 20.2219 103.926C20.6418 103.926 21.0246 103.998 21.3713 104.142C21.7181 104.286 22.0107 104.499 22.2493 104.782L21.6343 105.361C21.4445 105.161 21.2345 105.01 21.0044 104.911C20.7754 104.811 20.5283 104.76 20.2653 104.76C20.0024 104.76 19.7521 104.804 19.5294 104.892C19.3068 104.98 19.1148 105.104 18.9515 105.265C18.7882 105.426 18.6599 105.616 18.5677 105.835C18.4744 106.055 18.4288 106.297 18.4288 106.56C18.4288 106.822 18.4754 107.064 18.5677 107.284C18.6599 107.503 18.7882 107.694 18.9515 107.854C19.1148 108.015 19.3078 108.139 19.5294 108.227C19.7511 108.315 19.9971 108.359 20.2653 108.359C20.5336 108.359 20.7754 108.309 21.0044 108.208C21.2335 108.109 21.4434 107.956 21.6343 107.751L22.2493 108.329C22.0107 108.612 21.717 108.828 21.3713 108.974C21.0246 109.12 20.6397 109.193 20.2145 109.193V109.196Z" fill="white"/>
<path d="M26.5566 109.195C26.1611 109.195 25.7942 109.129 25.4549 108.997C25.1156 108.865 24.8219 108.68 24.5727 108.441C24.3235 108.201 24.1305 107.923 23.9937 107.602C23.8569 107.283 23.7891 106.935 23.7891 106.559C23.7891 106.183 23.8569 105.828 23.9937 105.508C24.1305 105.189 24.3235 104.91 24.5727 104.674C24.8219 104.437 25.1145 104.253 25.4507 104.12C25.7879 103.989 26.1558 103.923 26.5556 103.923C26.9553 103.923 27.3169 103.988 27.6541 104.117C27.9913 104.246 28.2829 104.429 28.5289 104.666C28.7749 104.903 28.9669 105.183 29.1037 105.505C29.2404 105.826 29.3083 106.178 29.3083 106.559C29.3083 106.94 29.2394 107.29 29.1037 107.61C28.9669 107.929 28.7749 108.209 28.5289 108.447C28.2829 108.687 27.9913 108.871 27.6541 109C27.3169 109.129 26.9511 109.194 26.5556 109.194L26.5566 109.195ZM26.5566 108.361C26.8154 108.361 27.0529 108.317 27.2703 108.229C27.4876 108.141 27.6764 108.017 27.8376 107.856C27.9988 107.695 28.1239 107.505 28.214 107.285C28.3041 107.066 28.3497 106.824 28.3497 106.561C28.3497 106.298 28.3063 106.056 28.2182 105.837C28.1302 105.617 28.0051 105.426 27.8408 105.266C27.6775 105.105 27.4866 104.981 27.2703 104.893C27.0529 104.805 26.8154 104.762 26.5566 104.762C26.2979 104.762 26.0572 104.805 25.8356 104.893C25.614 104.981 25.422 105.106 25.2609 105.27C25.0997 105.433 24.9724 105.624 24.8802 105.84C24.7869 106.057 24.7413 106.297 24.7413 106.561C24.7413 106.825 24.7879 107.058 24.8802 107.279C24.9724 107.498 25.0997 107.69 25.2609 107.854C25.422 108.017 25.6129 108.142 25.8356 108.23C26.0583 108.318 26.2979 108.362 26.5566 108.362V108.361Z" fill="white"/>
<path d="M31.416 109.121V103.996H32.1996L35.4136 107.95H35.0255V103.996H35.9629V109.121H35.1793L31.9727 105.168H32.3608V109.121H31.416Z" fill="white"/>
<path d="M38.4434 109.121V103.996H39.227L42.441 107.95H42.0529V103.996H42.9902V109.121H42.2066L39.0001 105.168H39.3882V109.121H38.4434Z" fill="white"/>
<path d="M46.4219 108.316H49.3135V109.121H45.4707V103.996H49.2117V104.801H46.4229V108.315L46.4219 108.316ZM46.3487 106.127H48.8968V106.911H46.3487V106.127Z" fill="white"/>
<path d="M53.8453 109.196C53.4498 109.196 53.0861 109.131 52.7542 109.002C52.4223 108.872 52.1328 108.688 51.8868 108.449C51.6408 108.209 51.4489 107.932 51.3121 107.615C51.1753 107.298 51.1074 106.947 51.1074 106.561C51.1074 106.175 51.1753 105.824 51.3121 105.507C51.4489 105.19 51.6419 104.911 51.891 104.672C52.1402 104.433 52.4297 104.249 52.7616 104.12C53.0935 103.99 53.4572 103.926 53.8527 103.926C54.2726 103.926 54.6554 103.998 55.0022 104.142C55.3489 104.286 55.6416 104.499 55.8802 104.782L55.2652 105.361C55.0753 105.161 54.8654 105.01 54.6353 104.911C54.4063 104.811 54.1592 104.76 53.8962 104.76C53.6332 104.76 53.383 104.804 53.1603 104.892C52.9376 104.98 52.7457 105.104 52.5824 105.265C52.4191 105.426 52.2908 105.616 52.1986 105.835C52.1052 106.055 52.0596 106.297 52.0596 106.56C52.0596 106.822 52.1063 107.064 52.1986 107.284C52.2908 107.503 52.4191 107.694 52.5824 107.854C52.7457 108.015 52.9387 108.139 53.1603 108.227C53.3819 108.315 53.6279 108.359 53.8962 108.359C54.1645 108.359 54.4063 108.309 54.6353 108.208C54.8643 108.109 55.0743 107.956 55.2652 107.751L55.8802 108.329C55.6416 108.612 55.3479 108.828 55.0022 108.974C54.6554 109.12 54.2705 109.193 53.8453 109.193V109.196Z" fill="white"/>
<path d="M58.8745 109.122V104.803H57.1758V103.998H61.5244V104.803H59.8257V109.122H58.8745Z" fill="white"/>
<path d="M63.3398 109.121V103.996H64.291V109.121H63.3398Z" fill="white"/>
<path d="M68.2523 109.121L66.0117 103.996H67.0445L69.0433 108.63H68.4432L70.478 103.996H71.4228L69.1897 109.121H68.2523Z" fill="white"/>
<path d="M73.0625 109.121V103.996H74.0137V109.121H73.0625Z" fill="white"/>
<path d="M77.5347 109.122V104.803H75.8359V103.998H80.1845V104.803H78.4858V109.122H77.5347Z" fill="white"/>
<path d="M83.1875 109.121V107.094L83.407 107.672L81.1738 103.996H82.1844L83.9849 106.961H83.4144L85.2075 103.996H86.1449L83.9191 107.672L84.1312 107.094V109.121H83.1864H83.1875Z" fill="white"/>
<path d="M90.9805 109.121V103.996H91.9316V109.121H90.9805Z" fill="white"/>
<path d="M96.0024 109.195C95.6027 109.195 95.2199 109.138 94.8572 109.022C94.4935 108.908 94.2019 108.76 93.9824 108.58L94.3122 107.841C94.5168 108.002 94.7713 108.137 95.0735 108.244C95.3757 108.351 95.6864 108.405 96.0035 108.405C96.2718 108.405 96.4891 108.375 96.6556 108.317C96.821 108.259 96.943 108.179 97.0214 108.078C97.0999 107.979 97.1381 107.865 97.1381 107.738C97.1381 107.582 97.0819 107.456 96.9695 107.361C96.8571 107.265 96.7118 107.19 96.5337 107.134C96.3555 107.077 96.1583 107.027 95.9409 106.98C95.7236 106.933 95.5062 106.876 95.2888 106.808C95.0714 106.739 94.8721 106.653 94.6918 106.548C94.5115 106.443 94.3663 106.303 94.256 106.127C94.1468 105.951 94.0916 105.728 94.0916 105.454C94.0916 105.18 94.1659 104.921 94.3154 104.688C94.4638 104.457 94.6907 104.271 94.9961 104.132C95.3005 103.993 95.6875 103.923 96.1562 103.923C96.4637 103.923 96.768 103.962 97.0713 104.041C97.3746 104.119 97.6375 104.23 97.8623 104.378L97.5622 105.117C97.3332 104.98 97.0957 104.879 96.8518 104.814C96.6079 104.748 96.3736 104.715 96.1488 104.715C95.89 104.715 95.678 104.747 95.5115 104.81C95.345 104.874 95.2252 104.958 95.1488 105.063C95.0725 105.168 95.0354 105.283 95.0354 105.411C95.0354 105.566 95.0905 105.693 95.1997 105.787C95.31 105.882 95.4532 105.957 95.6313 106.01C95.8094 106.064 96.0077 106.115 96.2283 106.163C96.4478 106.212 96.6652 106.269 96.8794 106.335C97.0946 106.401 97.2918 106.487 97.4721 106.591C97.6524 106.696 97.7977 106.835 97.9079 107.009C98.0171 107.181 98.0723 107.403 98.0723 107.671C98.0723 107.94 97.9981 108.197 97.8485 108.429C97.7001 108.662 97.4711 108.847 97.1635 108.986C96.856 109.125 96.4679 109.195 95.9993 109.195H96.0024Z" fill="white"/>
<path d="M103.238 109.121V103.996H104.189V109.121H103.238ZM104.08 107.913L104.037 106.786L106.716 103.998H107.793L105.559 106.37L105.032 106.947L104.081 107.913H104.08ZM106.811 109.121L104.842 106.786L105.479 106.091L107.932 109.121H106.812H106.811Z" fill="white"/>
<path d="M109.672 109.121V103.996H110.623V109.121H109.672Z" fill="white"/>
<path d="M113.105 109.121V103.996H113.889L117.103 107.95H116.715V103.996H117.652V109.121H116.869L113.662 105.168H114.05V109.121H113.105Z" fill="white"/>
<path d="M122.526 109.196C122.126 109.196 121.758 109.131 121.424 109.002C121.09 108.872 120.798 108.688 120.549 108.449C120.3 108.209 120.107 107.932 119.97 107.615C119.833 107.298 119.766 106.947 119.766 106.561C119.766 106.175 119.833 105.824 119.97 105.507C120.107 105.19 120.301 104.911 120.552 104.672C120.804 104.433 121.096 104.249 121.43 104.12C121.764 103.99 122.137 103.926 122.547 103.926C122.957 103.926 123.366 103.997 123.714 104.138C124.063 104.279 124.357 104.486 124.597 104.76L123.997 105.345C123.796 105.145 123.581 104.998 123.349 104.902C123.116 104.807 122.862 104.76 122.584 104.76C122.306 104.76 122.06 104.804 121.833 104.892C121.606 104.98 121.41 105.104 121.244 105.265C121.078 105.426 120.949 105.616 120.856 105.835C120.762 106.055 120.717 106.297 120.717 106.56C120.717 106.822 120.763 107.059 120.856 107.281C120.948 107.502 121.077 107.694 121.244 107.855C121.409 108.016 121.605 108.141 121.829 108.229C122.054 108.317 122.302 108.36 122.576 108.36C122.829 108.36 123.075 108.32 123.312 108.239C123.548 108.159 123.774 108.023 123.989 107.833L124.524 108.543C124.259 108.759 123.952 108.92 123.601 109.03C123.25 109.139 122.891 109.195 122.525 109.195L122.526 109.196ZM123.632 108.419V106.509H124.525V108.543L123.632 108.419Z" fill="white"/>
<path d="M9.94758 98.034H0.783823C0.391484 98.034 0.195312 97.8378 0.195312 97.4455V80.6046C0.195312 80.2123 0.391484 80.0161 0.783823 80.0161H9.94758C10.3208 80.0161 10.5075 80.2123 10.5075 80.6046V82.5101C10.5075 82.9025 10.3208 83.0986 9.94758 83.0986H4.09113C3.86739 83.0986 3.75499 83.2015 3.75499 83.4072V87.0506C3.75499 87.2564 3.86739 87.3592 4.09113 87.3592H8.88296C9.2753 87.3592 9.47147 87.5554 9.47147 87.9477V89.8532C9.47147 90.2456 9.2753 90.4417 8.88296 90.4417H4.09113C3.86739 90.4417 3.75499 90.5446 3.75499 90.7503V94.6451C3.75499 94.8508 3.86739 94.9536 4.09113 94.9536H9.94758C10.3208 94.9536 10.5075 95.1498 10.5075 95.5421V97.4476C10.5075 97.84 10.3208 98.0361 9.94758 98.0361V98.034Z" fill="white"/>
<path d="M9.94737 98.2296H0.783618C0.285242 98.2296 0 97.9433 0 97.4449V80.6041C0 80.1057 0.285242 79.8204 0.783618 79.8204H9.94737C10.4277 79.8204 10.7034 80.1057 10.7034 80.6041V82.5095C10.7034 83.0079 10.4277 83.2932 9.94737 83.2932H4.09093C3.9499 83.2932 3.9499 83.3335 3.9499 83.4056V87.049C3.9499 87.1243 3.9499 87.1614 4.09093 87.1614H8.88276C9.38113 87.1614 9.66744 87.4466 9.66744 87.945V89.8505C9.66744 90.3489 9.38113 90.6352 8.88276 90.6352H4.09093C3.9499 90.6352 3.9499 90.6755 3.9499 90.7476V94.6424C3.9499 94.7176 3.9499 94.7547 4.09093 94.7547H9.94737C10.4277 94.7547 10.7034 95.04 10.7034 95.5384V97.4439C10.7034 97.9422 10.4277 98.2285 9.94737 98.2285V98.2296ZM0.783618 80.2117C0.500498 80.2117 0.391279 80.322 0.391279 80.6041V97.4449C0.391279 97.728 0.501559 97.8383 0.783618 97.8383H9.94737C10.1722 97.8383 10.3121 97.7726 10.3121 97.4449V95.5394C10.3121 95.2128 10.1722 95.1471 9.94737 95.1471H4.09093C3.75797 95.1471 3.55862 94.9583 3.55862 94.6434V90.7487C3.55862 90.4327 3.75797 90.245 4.09093 90.245H8.88276C9.16588 90.245 9.27616 90.1347 9.27616 89.8516V87.9461C9.27616 87.663 9.16588 87.5538 8.88276 87.5538H4.09093C3.75797 87.5538 3.55862 87.365 3.55862 87.0501V83.4066C3.55862 83.0906 3.75797 82.9029 4.09093 82.9029H9.94737C10.1722 82.9029 10.3121 82.8372 10.3121 82.5106V80.6051C10.3121 80.2785 10.1722 80.2128 9.94737 80.2128H0.783618V80.2117Z" fill="white"/>
<path d="M13.1682 93.4389V92.879C13.1682 92.4866 13.3644 92.2905 13.7567 92.2905H16.1383C16.5306 92.2905 16.7268 92.4866 16.7268 92.879V93.1038C16.7268 93.8142 16.8668 94.2988 17.1467 94.5607C17.4267 94.8227 17.9409 94.9531 18.6885 94.9531H20.0055C20.734 94.9531 21.2429 94.8131 21.5324 94.5332C21.8219 94.2532 21.9672 93.7305 21.9672 92.9638V92.6277C21.9672 92.0858 21.7477 91.6702 21.3087 91.3807C20.8697 91.0912 20.3225 90.9184 19.6693 90.8622C19.0151 90.806 18.31 90.6989 17.5539 90.5398C16.7968 90.3807 16.0916 90.1761 15.4385 89.9237C14.7842 89.6714 14.2381 89.1762 13.7991 88.4381C13.3601 87.7001 13.1406 86.7521 13.1406 85.5942V84.6134C13.1406 83.1564 13.551 82.026 14.3738 81.2223C15.1956 80.4196 16.3355 80.0177 17.7925 80.0177H20.5951C22.0711 80.0177 23.2195 80.4196 24.0423 81.2223C24.8641 82.026 25.2755 83.1564 25.2755 84.6134V85.1457C25.2755 85.538 25.0794 85.7342 24.687 85.7342H22.3054C21.9131 85.7342 21.7169 85.538 21.7169 85.1457V84.9771C21.7169 84.2486 21.577 83.7534 21.297 83.4915C21.0171 83.2306 20.5028 83.0992 19.7563 83.0992H18.6631C17.8964 83.0992 17.3779 83.2444 17.1075 83.5339C16.836 83.8234 16.7014 84.3886 16.7014 85.2294V85.7618C16.7014 86.6397 17.467 87.1445 18.9992 87.2749C20.5866 87.4053 21.9979 87.7234 23.2301 88.2282C23.8843 88.5081 24.4304 89.0086 24.8694 89.7276C25.3084 90.4476 25.5279 91.3669 25.5279 92.4877V93.4399C25.5279 94.8969 25.1165 96.0272 24.2947 96.831C23.4729 97.6348 22.333 98.0356 20.8761 98.0356H17.8211C16.3642 98.0356 15.2243 97.6337 14.4025 96.831C13.5807 96.0283 13.1693 94.8979 13.1693 93.4399L13.1682 93.4389Z" fill="white"/>
<path d="M20.8757 98.2291H17.8207C16.3171 98.2291 15.121 97.805 14.2653 96.9683C13.4085 96.1306 12.9738 94.943 12.9738 93.4373V92.8774C12.9738 92.379 13.2601 92.0927 13.7585 92.0927H16.1401C16.6384 92.0927 16.9247 92.379 16.9247 92.8774V93.1022C16.9247 93.7522 17.0456 94.1944 17.2831 94.416C17.5249 94.6419 17.9978 94.7564 18.6913 94.7564H20.0083C20.6806 94.7564 21.1482 94.6334 21.3995 94.3906C21.6476 94.1499 21.7738 93.6695 21.7738 92.9622V92.6261C21.7738 92.151 21.5872 91.7958 21.2033 91.5424C20.794 91.2731 20.2734 91.1087 19.6552 91.0557C18.9935 90.9984 18.2735 90.8892 17.5164 90.7301C16.754 90.57 16.0319 90.3601 15.3702 90.1045C14.6778 89.8373 14.0925 89.3103 13.6333 88.5373C13.1784 87.7728 12.9473 86.7824 12.9473 85.5926V84.6118C12.9473 83.1071 13.382 81.9184 14.2388 81.0807C15.0956 80.2441 16.2917 79.8199 17.7942 79.8199H20.5968C22.1184 79.8199 23.3241 80.2441 24.1798 81.0807C25.0377 81.9184 25.4714 83.1071 25.4714 84.6118V85.1441C25.4714 85.6425 25.1861 85.9288 24.6877 85.9288H22.3061C21.8078 85.9288 21.5225 85.6425 21.5225 85.1441V84.9755C21.5225 84.3075 21.4016 83.8557 21.1641 83.633C20.9223 83.4083 20.4484 83.2937 19.757 83.2937H18.6637C17.9575 83.2937 17.4825 83.4189 17.2513 83.6659C17.0901 83.8388 16.8982 84.2491 16.8982 85.2279V85.7602C16.8982 86.0412 16.8982 86.8979 19.0168 87.0782C20.617 87.2097 22.0601 87.5352 23.3061 88.0453C23.9974 88.3422 24.5796 88.8724 25.0387 89.6231C25.4947 90.3707 25.7258 91.3345 25.7258 92.4861V93.4383C25.7258 94.9441 25.2911 96.1317 24.4343 96.9694C23.5775 97.806 22.3814 98.2302 20.8789 98.2302L20.8757 98.2291ZM13.7585 92.484C13.4753 92.484 13.3651 92.5943 13.3651 92.8774V93.4373C13.3651 94.8338 13.7606 95.927 14.5389 96.6884C15.3193 97.4508 16.4232 97.8378 17.8207 97.8378H20.8757C22.2733 97.8378 23.3771 97.4508 24.1575 96.6884C24.9369 95.927 25.3314 94.8338 25.3314 93.4373V92.4851C25.3314 91.4067 25.1193 90.5117 24.7015 89.8267C24.2859 89.1459 23.7641 88.6688 23.1523 88.4058C21.9477 87.9127 20.5427 87.5967 18.9819 87.4684C17.3372 87.3285 16.5048 86.7537 16.5048 85.7602V85.2279C16.5048 84.3276 16.6554 83.7295 16.964 83.3987C17.2768 83.0647 17.8324 82.9024 18.6627 82.9024H19.7559C20.5618 82.9024 21.109 83.0477 21.4303 83.3478C21.7547 83.6511 21.9127 84.1844 21.9127 84.9765V85.1451C21.9127 85.4283 22.023 85.5386 22.3051 85.5386H24.6867C24.9698 85.5386 25.079 85.4283 25.079 85.1451V84.6128C25.079 83.2174 24.6835 82.1241 23.9052 81.3617C23.1247 80.5993 22.0103 80.2123 20.5957 80.2123H17.7932C16.3956 80.2123 15.2918 80.5993 14.5113 81.3617C13.7319 82.1231 13.3375 83.2174 13.3375 84.6128V85.5937C13.3375 86.7113 13.5496 87.6349 13.9684 88.3379C14.382 89.0335 14.9005 89.5054 15.5102 89.7408C16.1517 89.9879 16.8537 90.1925 17.5959 90.3484C18.3382 90.5043 19.0423 90.6114 19.6881 90.6676C20.371 90.7259 20.9531 90.9115 21.4186 91.2169C21.9138 91.5445 22.1651 92.0196 22.1651 92.6272V92.9633C22.1651 93.7925 22.0039 94.3513 21.671 94.6737C21.3401 94.9939 20.7962 95.1487 20.0072 95.1487H18.6903C17.8844 95.1487 17.3362 95.0034 17.0149 94.7034C16.6904 94.4012 16.5324 93.8773 16.5324 93.1033V92.8785C16.5324 92.5953 16.4221 92.4851 16.139 92.4851H13.7574L13.7585 92.484Z" fill="white"/>
<path d="M32.4219 80.6035V97.4444C32.4219 97.8367 32.2257 98.0329 31.8334 98.0329H29.4518C29.0594 98.0329 28.8633 97.8367 28.8633 97.4444V80.6035C28.8633 80.2112 29.0594 80.015 29.4518 80.015H31.8334C32.2257 80.015 32.4219 80.2112 32.4219 80.6035Z" fill="white"/>
<path d="M31.8332 98.229H29.4516C28.9532 98.229 28.668 97.9427 28.668 97.4443V80.6034C28.668 80.1051 28.9532 79.8198 29.4516 79.8198H31.8332C32.3316 79.8198 32.6168 80.1051 32.6168 80.6034V97.4443C32.6168 97.9427 32.3316 98.229 31.8332 98.229ZM29.4516 80.2111C29.1685 80.2111 29.0592 80.3214 29.0592 80.6034V97.4443C29.0592 97.7274 29.1695 97.8377 29.4516 97.8377H31.8332C32.1163 97.8377 32.2255 97.7274 32.2255 97.4443V80.6034C32.2255 80.3203 32.1152 80.2111 31.8332 80.2111H29.4516Z" fill="white"/>
<path d="M48.1705 80.0157H52.3176C52.71 80.0157 52.9062 80.2119 52.9062 80.6043V97.4451C52.9062 97.8375 52.71 98.0336 52.3176 98.0336H50.0198C49.6275 98.0336 49.4313 97.8375 49.4313 97.4451V84.1629H49.3189L46.4601 93.5504C46.3477 93.9236 46.1144 94.1102 45.7592 94.1102H43.4052C43.05 94.1102 42.8167 93.9236 42.7043 93.5504L39.7904 84.1343H39.678V97.4451C39.678 97.6699 39.6398 97.8237 39.5656 97.9074C39.4903 97.9912 39.3312 98.0336 39.0895 98.0336H36.7916C36.3993 98.0336 36.2031 97.8375 36.2031 97.4451V80.6043C36.2031 80.2119 36.3993 80.0157 36.7916 80.0157H40.9674C41.2282 80.0157 41.4064 80.1462 41.4997 80.4081L44.4698 90.3003H44.6384L47.6371 80.4081C47.6933 80.1462 47.8704 80.0157 48.1695 80.0157H48.1705Z" fill="white"/>
<path d="M52.3173 98.2281H50.0194C49.5211 98.2281 49.2348 97.9418 49.2348 97.4434V85.1081L46.6474 93.6059C46.4746 94.1838 46.0685 94.3047 45.7599 94.3047H43.4059C43.0963 94.3047 42.6912 94.1838 42.5183 93.6049L39.8748 85.0646V97.4434C39.8748 97.7191 39.8218 97.9132 39.7137 98.0351C39.597 98.1666 39.3987 98.227 39.0912 98.227H36.7934C36.295 98.227 36.0098 97.9407 36.0098 97.4424V80.6015C36.0098 80.1031 36.295 79.8179 36.7934 79.8179H40.9691C41.3159 79.8179 41.563 79.9981 41.686 80.3396L44.5564 89.8989L47.4512 80.3491C47.5223 80.0119 47.7799 79.8179 48.1712 79.8179H52.3183C52.8167 79.8179 53.103 80.1031 53.103 80.6015V97.4424C53.103 97.9407 52.8167 98.227 52.3183 98.227L52.3173 98.2281ZM49.1743 83.9661H49.6271V97.4445C49.6271 97.7276 49.7374 97.8379 50.0205 97.8379H52.3183C52.6014 97.8379 52.7117 97.7276 52.7117 97.4445V80.6036C52.7117 80.3205 52.6014 80.2113 52.3183 80.2113H48.1712C47.9167 80.2113 47.8563 80.3258 47.8298 80.4488L44.7854 90.4959H44.3263L41.3138 80.4647C41.2512 80.2908 41.1462 80.2123 40.9691 80.2123H36.7934C36.5103 80.2123 36.401 80.3226 36.401 80.6047V97.4455C36.401 97.7287 36.5113 97.8389 36.7934 97.8389H39.0912C39.3648 97.8389 39.4189 97.7806 39.421 97.7785C39.4358 97.7626 39.4836 97.6894 39.4836 97.4466V83.9406H39.9353L42.8916 93.4935C42.9796 93.7862 43.1376 93.9156 43.4048 93.9156H45.7589C46.0261 93.9156 46.1851 93.7862 46.2721 93.4946L49.1733 83.9671L49.1743 83.9661Z" fill="white"/>
<path d="M59.517 98.034H57.1354C56.743 98.034 56.5469 97.8378 56.5469 97.4455V80.6046C56.5469 80.2123 56.743 80.0161 57.1354 80.0161H63.9727C65.4296 80.0161 66.56 80.4127 67.3638 81.2069C68.1665 82.0011 68.5683 83.1262 68.5683 84.5832V87.2733C68.5683 88.7303 68.1665 89.8564 67.3638 90.6496C66.56 91.4438 65.4307 91.8404 63.9727 91.8404H60.4416C60.2179 91.8404 60.1055 91.9432 60.1055 92.1489V97.4444C60.1055 97.8368 59.9093 98.0329 59.517 98.0329V98.034ZM60.4141 88.7303H63.3842C63.9822 88.7303 64.4021 88.6041 64.645 88.3517C64.8878 88.0993 65.0087 87.6837 65.0087 87.1047V84.7507C65.0087 84.1526 64.8867 83.7274 64.645 83.4761C64.4021 83.2237 63.9812 83.0976 63.3842 83.0976H60.4141C60.2083 83.0976 60.1055 83.2004 60.1055 83.4061V88.4217C60.1055 88.6274 60.2083 88.7303 60.4141 88.7303Z" fill="#F2B21B"/>
<path d="M59.5168 98.2296H57.1352C56.6368 98.2296 56.3516 97.9433 56.3516 97.4449V80.6041C56.3516 80.1057 56.6368 79.8204 57.1352 79.8204H63.9725C65.4761 79.8204 66.6626 80.2403 67.5003 81.0674C68.338 81.8966 68.7633 83.079 68.7633 84.5836V87.2738C68.7633 88.7785 68.338 89.9608 67.5003 90.79C66.6626 91.6182 65.4761 92.037 63.9725 92.037H60.4414C60.3004 92.037 60.3004 92.0773 60.3004 92.1494V97.4449C60.3004 97.9433 60.0152 98.2296 59.5168 98.2296ZM57.1352 80.2117C56.8521 80.2117 56.7428 80.322 56.7428 80.6041V97.4449C56.7428 97.728 56.8531 97.8383 57.1352 97.8383H59.5168C59.7999 97.8383 59.9091 97.728 59.9091 97.4449V92.1494C59.9091 91.8334 60.1085 91.6457 60.4414 91.6457H63.9725C65.37 91.6457 66.4644 91.264 67.2257 90.5111C67.9871 89.7583 68.373 88.6693 68.373 87.2738V84.5836C68.373 83.1882 67.9871 82.0992 67.2257 81.3463C66.4644 80.5934 65.369 80.2117 63.9725 80.2117H57.1352ZM63.384 88.9269H60.4139C60.0979 88.9269 59.9102 88.7382 59.9102 88.4233V83.4077C59.9102 83.0917 60.0989 82.904 60.4139 82.904H63.384C64.0435 82.904 64.5016 83.0472 64.7858 83.3419C65.0678 83.6357 65.2046 84.0969 65.2046 84.7533V87.1073C65.2046 87.7361 65.0636 88.2006 64.7858 88.4901C64.5016 88.7848 64.0425 88.928 63.384 88.928V88.9269ZM60.4139 83.2942C60.3163 83.2942 60.3015 83.3091 60.3015 83.4066V88.4222C60.3015 88.5197 60.3163 88.5346 60.4139 88.5346H63.384C63.9237 88.5346 64.3001 88.4275 64.5037 88.2165C64.7094 88.0034 64.8134 87.629 64.8134 87.1052V84.7512C64.8134 84.2093 64.7094 83.8255 64.5037 83.6123C64.3001 83.4013 63.9237 83.2942 63.384 83.2942H60.4139Z" fill="#F2B21B"/>
<path d="M73.2755 98.034H70.5853C70.2492 98.034 70.1368 97.8378 70.2492 97.4455L74.6773 80.6046C74.8077 80.2123 75.0877 80.0161 75.5182 80.0161H79.2454C79.712 80.0161 79.9919 80.2123 80.0863 80.6046L84.5144 97.4455C84.6268 97.8378 84.5144 98.034 84.1783 98.034H81.4881C81.2824 98.034 81.1424 97.9916 81.0682 97.9078C80.9929 97.824 80.9378 97.6692 80.8996 97.4455L80.1149 94.363H74.6508L73.8661 97.4455C73.828 97.6703 73.7686 97.824 73.6838 97.9078C73.5989 97.9916 73.4643 98.034 73.2776 98.034H73.2755ZM77.3389 83.4061L75.321 91.5042H79.4681L77.4502 83.4061H77.3378H77.3389Z" fill="#F2B21B"/>
<path d="M84.177 98.229H81.4868C81.2196 98.229 81.034 98.1665 80.9195 98.0371C80.8188 97.9247 80.7488 97.7413 80.7053 97.4772L79.962 94.558H74.8022L74.0546 97.4931C74.0133 97.7455 73.9359 97.9311 73.8214 98.0456C73.6994 98.1675 73.516 98.229 73.2763 98.229H70.5862C70.3698 98.229 70.2108 98.1622 70.1111 98.0307C69.9976 97.8802 69.9817 97.6713 70.0613 97.3903L74.4883 80.5526C74.6484 80.068 75.0037 79.8177 75.518 79.8177H79.2452C79.9514 79.8177 80.1953 80.2196 80.2759 80.5568L84.7019 97.3945C84.7803 97.6713 84.7644 97.8802 84.651 98.0307C84.5524 98.1622 84.3922 98.229 84.1759 98.229H84.177ZM74.4968 94.1667H80.2653L81.0871 97.3966C81.1326 97.666 81.1888 97.7519 81.2122 97.7773C81.2387 97.807 81.3235 97.8378 81.4858 97.8378H84.1759C84.2586 97.8378 84.318 97.8219 84.3382 97.7953C84.3625 97.7625 84.3721 97.667 84.3244 97.4984L79.8962 80.6533C79.8464 80.4455 79.7287 80.2112 79.2452 80.2112H75.518C75.1744 80.2112 74.9666 80.3554 74.8626 80.666L70.4388 97.4953C70.39 97.6681 70.3985 97.7635 70.4239 97.7964C70.4441 97.8229 70.5035 97.8388 70.5862 97.8388H73.2763C73.4046 97.8388 73.5001 97.8144 73.5446 97.7699C73.5754 97.7391 73.6316 97.6533 73.6718 97.4136L74.4979 94.1678L74.4968 94.1667ZM79.7192 91.6993H75.0715L77.187 83.2099H77.6048L79.7202 91.6993H79.7192ZM75.572 91.308H79.2187L77.3959 83.9903L75.572 91.308Z" fill="#F2B21B"/>
<path d="M96.8191 98.034H87.6002C87.2079 98.034 87.0117 97.8378 87.0117 97.4455V80.6046C87.0117 80.2123 87.2079 80.0161 87.6002 80.0161H89.9818C90.3742 80.0161 90.5703 80.2123 90.5703 80.6046V94.6164C90.5703 94.8221 90.6827 94.925 90.9065 94.925H96.8191C97.1924 94.925 97.3801 95.1307 97.3801 95.5411V97.4466C97.3801 97.8389 97.1934 98.0351 96.8191 98.0351V98.034Z" fill="#F2B21B"/>
<path d="M96.8189 98.2296H87.6C87.1016 98.2296 86.8164 97.9433 86.8164 97.4449V80.6041C86.8164 80.1057 87.1016 79.8204 87.6 79.8204H89.9816C90.48 79.8204 90.7652 80.1057 90.7652 80.6041V94.6158C90.7652 94.688 90.7652 94.7282 90.9063 94.7282H96.8189C97.2993 94.7282 97.575 95.0241 97.575 95.5405V97.446C97.575 97.9444 97.2993 98.2307 96.8189 98.2307V98.2296ZM87.6 80.2117C87.3169 80.2117 87.2077 80.322 87.2077 80.6041V97.4449C87.2077 97.728 87.318 97.8383 87.6 97.8383H96.8189C97.0437 97.8383 97.1837 97.7726 97.1837 97.4449V95.5394C97.1837 95.1906 97.0374 95.1185 96.8189 95.1185H90.9063C90.5733 95.1185 90.374 94.9297 90.374 94.6148V80.603C90.374 80.3199 90.2637 80.2107 89.9816 80.2107H87.6V80.2117Z" fill="#F2B21B"/>
<path d="M101.469 98.034H98.7787C98.4426 98.034 98.3302 97.8378 98.4426 97.4455L102.871 80.6046C103.001 80.2123 103.281 80.0161 103.712 80.0161H107.439C107.905 80.0161 108.185 80.2123 108.28 80.6046L112.708 97.4455C112.82 97.8378 112.708 98.034 112.372 98.034H109.681C109.476 98.034 109.336 97.9916 109.262 97.9078C109.186 97.824 109.131 97.6692 109.093 97.4455L108.308 94.363H102.844L102.06 97.4455C102.021 97.6703 101.962 97.824 101.877 97.9078C101.792 97.9916 101.658 98.034 101.471 98.034H101.469ZM105.532 83.4061L103.514 91.5042H107.661L105.644 83.4061H105.531H105.532Z" fill="#F2B21B"/>
<path d="M112.37 98.229H109.68C109.413 98.229 109.227 98.1665 109.113 98.0371C109.012 97.9247 108.942 97.7413 108.899 97.4772L108.155 94.558H102.996L102.248 97.4931C102.207 97.7455 102.129 97.9311 102.015 98.0456C101.893 98.1675 101.709 98.229 101.47 98.229H98.7795C98.5632 98.229 98.4041 98.1622 98.3045 98.0307C98.191 97.8802 98.1751 97.6713 98.2546 97.3903L102.682 80.5526C102.842 80.068 103.197 79.8177 103.711 79.8177H107.439C108.145 79.8177 108.389 80.2196 108.469 80.5568L112.895 97.3945C112.974 97.6713 112.958 97.8802 112.844 98.0307C112.746 98.1622 112.586 98.229 112.369 98.229H112.37ZM102.69 94.1667H108.459L109.28 97.3966C109.326 97.666 109.382 97.7519 109.406 97.7773C109.432 97.807 109.517 97.8378 109.679 97.8378H112.369C112.452 97.8378 112.511 97.8219 112.532 97.7953C112.556 97.7625 112.565 97.667 112.518 97.4984L108.09 80.6533C108.04 80.4455 107.922 80.2112 107.439 80.2112H103.711C103.368 80.2112 103.16 80.3554 103.056 80.666L98.6321 97.4953C98.5833 97.6681 98.5918 97.7635 98.6173 97.7964C98.6374 97.8229 98.6968 97.8388 98.7795 97.8388H101.47C101.598 97.8388 101.693 97.8144 101.738 97.7699C101.769 97.7391 101.825 97.6533 101.865 97.4136L102.691 94.1678L102.69 94.1667ZM107.913 91.6993H103.265L105.38 83.2099H105.798L107.914 91.6993H107.913ZM103.765 91.308H107.412L105.589 83.9903L103.765 91.308Z" fill="#F2B21B"/>
<path d="M122.596 98.0346H119.541C118.065 98.0346 116.925 97.6422 116.123 96.8576C115.319 96.0729 114.918 94.9425 114.918 93.4665V84.5837C114.918 83.1087 115.32 81.9773 116.123 81.1927C116.925 80.408 118.065 80.0156 119.541 80.0156H122.596C124.053 80.0156 125.188 80.4122 126.001 81.2064C126.813 82.0006 127.22 83.1257 127.22 84.5827V85.8996C127.22 86.3111 127.015 86.5157 126.603 86.5157H124.249C123.857 86.5157 123.661 86.31 123.661 85.8996V84.7502C123.661 84.1521 123.535 83.7269 123.282 83.4756C123.03 83.2233 122.605 83.0971 122.007 83.0971H120.101C119.522 83.0971 119.106 83.2233 118.854 83.4756C118.602 83.728 118.476 84.1532 118.476 84.7502V93.2968C118.476 93.8949 118.602 94.3201 118.854 94.5714C119.106 94.8238 119.522 94.95 120.101 94.95H122.007C122.605 94.95 123.03 94.8238 123.282 94.5714C123.535 94.319 123.661 93.8949 123.661 93.2968V92.1484C123.661 91.7381 123.857 91.5324 124.249 91.5324H126.603C127.014 91.5324 127.22 91.7381 127.22 92.1484V93.4654C127.22 94.9224 126.814 96.0485 126.001 96.8417C125.189 97.6359 124.053 98.0325 122.596 98.0325V98.0346Z" fill="#F2B21B"/>
<path d="M122.597 98.2296H119.542C118.019 98.2296 116.823 97.815 115.987 96.9974C115.148 96.1788 114.723 94.9902 114.723 93.4664V84.5836C114.723 83.0599 115.148 81.8723 115.987 81.0526C116.823 80.235 118.019 79.8204 119.542 79.8204H122.597C124.1 79.8204 125.291 80.2403 126.139 81.0674C126.987 81.8966 127.416 83.08 127.416 84.5836V85.9006C127.416 86.417 127.121 86.7129 126.604 86.7129H124.25C123.752 86.7129 123.465 86.417 123.465 85.9006V84.7512C123.465 84.2104 123.357 83.8276 123.144 83.6145C122.931 83.4013 122.548 83.2932 122.007 83.2932H120.102C119.579 83.2932 119.206 83.4013 118.993 83.6145C118.78 83.8276 118.671 84.2104 118.671 84.7512V93.2978C118.671 93.8386 118.78 94.2214 118.993 94.4345C119.206 94.6476 119.579 94.7558 120.102 94.7558H122.007C122.549 94.7558 122.931 94.6476 123.144 94.4345C123.357 94.2214 123.465 93.8386 123.465 93.2978V92.1494C123.465 91.633 123.752 91.3372 124.25 91.3372H126.604C127.121 91.3372 127.416 91.633 127.416 92.1494V93.4664C127.416 94.9711 126.987 96.1544 126.139 96.9826C125.292 97.8097 124.101 98.2296 122.597 98.2296ZM119.542 80.2117C118.125 80.2117 117.022 80.5892 116.26 81.3325C115.5 82.0748 115.114 83.1691 115.114 84.5836V93.4664C115.114 94.8809 115.5 95.9742 116.26 96.7175C117.022 97.4619 118.125 97.8383 119.542 97.8383H122.597C123.995 97.8383 125.094 97.4566 125.865 96.7037C126.635 95.9519 127.025 94.8629 127.025 93.4675V92.1505C127.025 91.8472 126.907 91.7295 126.604 91.7295H124.25C123.967 91.7295 123.857 91.8472 123.857 92.1505V93.2989C123.857 93.9563 123.715 94.4186 123.421 94.7123C123.131 95.0018 122.656 95.1482 122.007 95.1482H120.102C119.472 95.1482 119.006 95.0018 118.716 94.7123C118.423 94.4186 118.28 93.9563 118.28 93.2989V84.7522C118.28 84.1033 118.427 83.6282 118.716 83.3388C119.006 83.0493 119.471 82.9029 120.102 82.9029H122.007C122.656 82.9029 123.131 83.0493 123.421 83.3388C123.709 83.6282 123.857 84.1033 123.857 84.7522V85.9017C123.857 86.2049 123.967 86.3226 124.25 86.3226H126.604C126.907 86.3226 127.025 86.2049 127.025 85.9017V84.5847C127.025 83.1893 126.635 82.1002 125.865 81.3484C125.094 80.5956 123.995 80.2138 122.597 80.2138H119.542V80.2117Z" fill="#F2B21B"/>
<path d="M140.024 98.0335H130.86C130.468 98.0335 130.271 97.8373 130.271 97.445V80.6041C130.271 80.2118 130.468 80.0156 130.86 80.0156H140.024C140.397 80.0156 140.584 80.2118 140.584 80.6041V82.5096C140.584 82.902 140.397 83.0981 140.024 83.0981H134.167C133.944 83.0981 133.831 83.201 133.831 83.4067V87.0502C133.831 87.2559 133.944 87.3587 134.167 87.3587H138.959C139.351 87.3587 139.548 87.5549 139.548 87.9472V89.8527C139.548 90.2451 139.351 90.4412 138.959 90.4412H134.167C133.944 90.4412 133.831 90.5441 133.831 90.7498V94.6446C133.831 94.8503 133.944 94.9531 134.167 94.9531H140.024C140.397 94.9531 140.584 95.1493 140.584 95.5416V97.4471C140.584 97.8395 140.397 98.0356 140.024 98.0356V98.0335Z" fill="#F2B21B"/>
<path d="M140.024 98.2291H130.86C130.361 98.2291 130.076 97.9428 130.076 97.4444V80.6036C130.076 80.1052 130.361 79.8199 130.86 79.8199H140.024C140.504 79.8199 140.78 80.1052 140.78 80.6036V82.5091C140.78 83.0074 140.504 83.2927 140.024 83.2927H134.167C134.026 83.2927 134.026 83.333 134.026 83.4051V87.0485C134.026 87.1238 134.026 87.1609 134.167 87.1609H138.959C139.457 87.1609 139.744 87.4462 139.744 87.9445V89.85C139.744 90.3484 139.457 90.6347 138.959 90.6347H134.167C134.026 90.6347 134.026 90.675 134.026 90.7471V94.6419C134.026 94.7172 134.026 94.7543 134.167 94.7543H140.024C140.504 94.7543 140.78 95.0395 140.78 95.5379V97.4434C140.78 97.9417 140.504 98.228 140.024 98.228V98.2291ZM130.86 80.2112C130.577 80.2112 130.467 80.3215 130.467 80.6036V97.4444C130.467 97.7275 130.578 97.8378 130.86 97.8378H140.024C140.248 97.8378 140.388 97.7721 140.388 97.4444V95.5389C140.388 95.2123 140.248 95.1466 140.024 95.1466H134.167C133.834 95.1466 133.635 94.9579 133.635 94.6429V90.7482C133.635 90.4322 133.834 90.2445 134.167 90.2445H138.959C139.242 90.2445 139.352 90.1342 139.352 89.8511V87.9456C139.352 87.6625 139.242 87.5533 138.959 87.5533H134.167C133.834 87.5533 133.635 87.3645 133.635 87.0496V83.4061C133.635 83.0901 133.834 82.9024 134.167 82.9024H140.024C140.248 82.9024 140.388 82.8367 140.388 82.5101V80.6046C140.388 80.278 140.248 80.2123 140.024 80.2123H130.86V80.2112Z" fill="#F2B21B"/>
<path d="M99.2728 38.1611C97.1181 38.1611 95.3643 39.9149 95.3643 42.0696C95.3643 42.6687 95.5074 43.2699 95.7789 43.8118L96.0206 44.2932L94.1268 47.1689C92.9466 46.8572 91.6476 47.3015 90.9277 48.3714L90.1006 49.6014L88.8843 47.7543V39.2532L89.4442 39.0094C90.8608 38.3869 91.7781 36.984 91.7781 35.4359C91.7781 33.2812 90.0242 31.5274 87.8695 31.5274C85.7149 31.5274 83.9642 33.2812 83.9642 35.4359C83.9642 36.6967 84.5495 37.8461 85.5706 38.5884L85.9556 38.8694V48.6323L88.3287 52.2375L83.416 59.5478H68.4339V56.2362L79.342 45.782L79.3537 34.4837L79.3558 34.2366V31.4924L79.8531 31.2273C81.134 30.5497 81.9314 29.2274 81.9314 27.7757C81.9314 25.6211 80.1776 23.8672 78.0229 23.8672C75.8682 23.8672 74.1175 25.6211 74.1175 27.7757C74.1175 29.1426 74.8131 30.3843 75.9774 31.1011L76.4217 31.3757V44.5191L70.3034 50.3829V34.2186C70.3034 32.9716 69.5272 31.908 68.4329 31.4786V23.3699L68.9026 23.1006C70.1167 22.4028 70.8728 21.1049 70.8728 19.7105C70.8728 17.5559 69.1211 15.8052 66.9674 15.8052C64.8138 15.8052 63.0589 17.5569 63.0589 19.7105C63.0589 21.1049 63.8149 22.4018 65.0312 23.1006L65.5009 23.3699V31.4765C64.4024 31.9038 63.623 32.9695 63.623 34.2196V50.0563L57.844 44.5191V31.3757L58.2883 31.1011C59.4515 30.3843 60.1482 29.1426 60.1482 27.7757C60.1482 25.6211 58.3964 23.8672 56.2428 23.8672C54.0892 23.8672 52.3343 25.6211 52.3343 27.7757C52.3343 29.2274 53.1317 30.5497 54.4126 31.2273L54.9099 31.4924V34.5982L54.912 34.6003L54.9237 45.7809L65.4999 55.9149V59.5467H50.4288L45.6942 52.5026L48.1278 48.8062V38.8683L48.5127 38.5873C49.5359 37.8451 50.1213 36.6956 50.1213 35.4348C50.1213 33.2802 48.3674 31.5263 46.2127 31.5263C44.058 31.5263 42.3074 33.2802 42.3074 35.4348C42.3074 36.983 43.2225 38.3869 44.6412 39.0083L45.199 39.2522V47.925L43.9223 49.8655L42.5332 47.7988C41.7782 46.6759 40.387 46.2422 39.1633 46.6483V46.6462L37.4498 44.0451L37.646 43.5838C37.8506 43.1024 37.9545 42.5934 37.9545 42.0675C37.9545 39.9128 36.2007 38.1589 34.046 38.1589C31.8913 38.1589 30.1406 39.9128 30.1406 42.0675C30.1406 44.2222 31.8924 45.9728 34.046 45.9728C34.2072 45.9728 34.3736 45.9633 34.5412 45.941L35.1191 45.8668L36.8422 48.4796C36.3385 49.4127 36.3555 50.5844 36.9875 51.5239L44.3581 62.4892H52.4064L52.3968 62.4755H81.4405L81.4309 62.4892H89.4792L96.466 52.0944C97.1383 51.0934 97.1139 49.8294 96.5063 48.873L98.4531 45.9166L99.0035 45.9622C99.0957 45.9697 99.1805 45.9718 99.2664 45.9718C101.421 45.9718 103.172 44.22 103.172 42.0664C103.172 39.9128 101.42 38.1579 99.2664 38.1579L99.2728 38.1611ZM86.3967 35.4603C86.3967 34.6862 87.0255 34.0574 87.7995 34.0574C88.5736 34.0574 89.2056 34.6862 89.2056 35.4603C89.2056 36.2344 88.5768 36.8663 87.7995 36.8663C87.0223 36.8663 86.3967 36.2375 86.3967 35.4603ZM44.6571 35.4603C44.6571 34.6862 45.2838 34.0574 46.06 34.0574C46.8362 34.0574 47.4661 34.6862 47.4661 35.4603C47.4661 36.2344 46.8373 36.8663 46.06 36.8663C45.2828 36.8663 44.6571 36.2375 44.6571 35.4603ZM65.4829 19.6459C65.4829 18.8697 66.1117 18.2398 66.889 18.2398C67.6662 18.2398 68.2918 18.8686 68.2918 19.6459C68.2918 20.4231 67.6652 21.0487 66.889 21.0487C66.1128 21.0487 65.4829 20.4199 65.4829 19.6459Z" fill="white"/>
<path d="M89.9529 63.9049H44.4512V69.4443H89.9529V63.9049Z" fill="white"/>
<path d="M58.3577 21.0573C58.4065 18.4339 59.4542 15.9728 61.3215 14.1108C63.1856 12.2498 65.6552 11.2043 68.2935 11.1566V7.45801C60.8274 7.55874 54.7726 13.6039 54.6719 21.0584H58.3588L58.3577 21.0573Z" fill="#F2B21B"/>
<path d="M68.2908 3.94894V0.256714C56.8514 0.35851 47.5657 9.62937 47.4629 21.0496H51.1488C51.2506 11.6653 58.8842 4.05073 68.2908 3.94894Z" fill="#F2B21B"/>
</svg>
