<svg width="20" height="20" viewBox="0 0 20 20" fill="none" xmlns="http://www.w3.org/2000/svg">
<g clip-path="url(#clip0_1_2896)">
<path d="M4.34753 3.79608C6.20209 2.35321 8.64304 1.55853 11.2206 1.55853C12.6268 1.55853 13.9922 1.79565 15.244 2.24487C15.1434 2.15836 15.0397 2.07352 14.933 1.99051C13.2831 0.70694 11.0977 0 8.77945 0C6.46118 0 4.27582 0.70694 2.62589 1.99051C0.932465 3.30795 0 5.07294 0 6.9603C0 8.29498 0.466919 9.56818 1.33896 10.6654C1.29318 10.3448 1.26923 10.0195 1.26923 9.6907C1.26923 7.43378 2.36252 5.34042 4.34753 3.79608Z" fill="#081B27"/>
<path d="M17.3744 4.72113C15.7245 3.43741 13.5391 2.73047 11.2209 2.73047C8.90259 2.73047 6.71722 3.43741 5.06729 4.72113C3.37402 6.03857 2.44141 7.80341 2.44141 9.69077C2.44141 11.5781 3.37402 13.3431 5.06729 14.6606C6.71722 15.9441 8.90259 16.6511 11.2209 16.6511C11.7691 16.6511 12.3164 16.6108 12.8523 16.5313L16.1159 19.7948C16.2277 19.9067 16.3774 19.9662 16.5295 19.9662C16.6049 19.9662 16.6809 19.9517 16.7534 19.9216C16.9719 19.8311 17.1144 19.6178 17.1144 19.3812V14.8542C18.9528 13.5361 20.0003 11.6698 20.0003 9.69077C20.0003 7.80341 19.0678 6.03857 17.3744 4.72113ZM11.5871 12.7895C11.4784 12.8983 11.3278 12.9607 11.1737 12.9607C11.0197 12.9607 10.8688 12.8983 10.76 12.7895C10.6512 12.6807 10.5888 12.5298 10.5888 12.3757C10.5888 12.2217 10.6512 12.0711 10.76 11.9623C10.8688 11.8535 11.0197 11.7908 11.1737 11.7908C11.3278 11.7908 11.4784 11.8535 11.5871 11.9623C11.6963 12.0711 11.7587 12.2217 11.7587 12.3757C11.7587 12.5298 11.6963 12.6807 11.5871 12.7895ZM11.7586 9.62164V10.0362C11.7586 10.3593 11.4967 10.6211 11.1737 10.6211C10.8507 10.6211 10.5887 10.3593 10.5887 10.0362V9.13489C10.5887 8.81186 10.8507 8.54987 11.1737 8.54987C11.5152 8.54987 11.7932 8.272 11.7932 7.93036C11.7932 7.58871 11.5152 7.31085 11.1737 7.31085C10.9241 7.31085 10.6998 7.45947 10.6026 7.68942C10.4767 7.98697 10.1335 8.12613 9.83597 8.00024C9.53842 7.87451 9.39926 7.53119 9.52515 7.23364C9.80591 6.56989 10.453 6.14096 11.1737 6.14096C12.1603 6.14096 12.9631 6.94373 12.9631 7.93036C12.9631 8.71237 12.459 9.37872 11.7586 9.62164Z" fill="#081B27"/>
</g>
<defs>
<clipPath id="clip0_1_2896">
<rect width="20" height="20" fill="white"/>
</clipPath>
</defs>
</svg>
