<svg width="64" height="64" viewBox="0 0 64 64" fill="none" xmlns="http://www.w3.org/2000/svg">
<g clip-path="url(#clip0_1_3354)">
<path d="M46.1455 21.8462C47.1221 22.8228 47.1221 24.4058 46.1455 25.3818L29.374 42.1538C28.3975 43.1299 26.8149 43.1299 25.8384 42.1538L17.8545 34.1694C16.8779 33.1934 16.8779 31.6104 17.8545 30.6343C18.8306 29.6577 20.4136 29.6577 21.3896 30.6343L27.606 36.8506L42.6099 21.8462C43.5864 20.8701 45.1694 20.8701 46.1455 21.8462ZM64 32C64 49.688 49.6855 64 32 64C14.312 64 0 49.6855 0 32C0 14.312 14.3145 0 32 0C49.688 0 64 14.3145 64 32ZM59 32C59 17.0757 46.9224 5 32 5C17.0757 5 5 17.0776 5 32C5 46.9243 17.0776 59 32 59C46.9243 59 59 46.9224 59 32Z" fill="#F2B21B"/>
</g>
<defs>
<clipPath id="clip0_1_3354">
<rect width="64" height="64" fill="white"/>
</clipPath>
</defs>
</svg>
