<svg width="20" height="20" viewBox="0 0 20 20" fill="none" xmlns="http://www.w3.org/2000/svg">
<g clip-path="url(#clip0_1_2884)">
<path d="M10.1084 9.06213V5.25745H3.16309V18.1074C3.16309 19.1512 4.0123 20 5.05566 20H13.7705C14.8143 20 15.6631 19.1512 15.6631 18.1074V10.8199H11.8662C10.8971 10.8199 10.1084 10.0313 10.1084 9.06213ZM6.09746 17.6559C5.77754 17.6524 5.51895 17.3914 5.51895 17.0703C5.51895 16.7492 5.77754 16.4883 6.09746 16.4848C6.41738 16.4887 6.67559 16.7496 6.67559 17.0703C6.67559 17.391 6.41738 17.652 6.09746 17.6559ZM10.3951 17.6563H8.44863C8.1252 17.6563 7.8627 17.3938 7.8627 17.0703C7.8627 16.7469 8.1252 16.4844 8.44863 16.4844H10.3951C10.7186 16.4844 10.9811 16.7469 10.9811 17.0703C10.9811 17.3938 10.7186 17.6563 10.3951 17.6563ZM12.7389 16.4844C13.0623 16.4844 13.3248 16.7469 13.3248 17.0703C13.3248 17.3938 13.0623 17.6563 12.7389 17.6563C12.4154 17.6563 12.1529 17.3938 12.1529 17.0703C12.1529 16.7469 12.4154 16.4844 12.7389 16.4844Z" fill="#081B27"/>
<path d="M3.16895 4.08555H10.1084V2.34375H5.05566C4.06309 2.34375 3.24629 3.11211 3.16895 4.08555Z" fill="#081B27"/>
<path d="M4.12216 1.21833C4.43856 1.19099 4.67645 0.915207 4.65575 0.596848C4.63466 0.273801 4.35575 0.0288787 4.03309 0.0499725C4.01552 0.0511444 3.99911 0.0527069 3.98192 0.0550506C1.96513 0.303488 0.51786 2.14763 0.756141 4.1656C0.791298 4.46364 1.04442 4.68279 1.33739 4.68279C1.36005 4.68279 1.38349 4.68122 1.40653 4.67849C1.72802 4.6406 1.9577 4.34958 1.91981 4.0281C1.75731 2.65036 2.74442 1.39099 4.12216 1.21833Z" fill="#081B27"/>
<path d="M19.0975 2.41016L16.8584 0.171484C16.7482 0.0617187 16.5994 0 16.4439 0H11.8662C11.5428 0 11.2803 0.2625 11.2803 0.585937V4.08555H19.2689V2.82461C19.2689 2.66914 19.2072 2.52031 19.0975 2.41016Z" fill="#081B27"/>
<path d="M11.8662 9.64807H13.1619V5.25745H11.2803V9.06213C11.2803 9.38573 11.5426 9.64807 11.8662 9.64807Z" fill="#081B27"/>
<path d="M14.333 5.25745H16.2146V9.64807H14.333V5.25745Z" fill="#081B27"/>
<path d="M17.3867 9.64807H18.6824C19.006 9.64807 19.2684 9.38573 19.2684 9.06213V5.25745H17.3867V9.64807Z" fill="#081B27"/>
</g>
<defs>
<clipPath id="clip0_1_2884">
<rect width="20" height="20" fill="white"/>
</clipPath>
</defs>
</svg>
