<svg width="300" height="300" viewBox="0 0 300 300" fill="none" xmlns="http://www.w3.org/2000/svg">
<g clip-path="url(#clip0_1_3366)">
<path d="M187.5 107.812H178.125V131.25H187.5V107.812Z" fill="black"/>
<path d="M206.25 107.812H196.875V131.25H206.25V107.812Z" fill="black"/>
<path d="M187.5 140.625H178.125V150H187.5V140.625Z" fill="black"/>
<path d="M206.25 140.625H196.875V150H206.25V140.625Z" fill="black"/>
<path d="M154.688 159.375H145.312V168.75H154.688V159.375Z" fill="black"/>
<path d="M131.25 253.125H121.875V262.5H131.25V253.125Z" fill="black"/>
<path d="M206.25 159.375H196.875V168.75H206.25V159.375Z" fill="black"/>
<path d="M187.5 178.125H178.125V187.5H187.5V178.125Z" fill="black"/>
<path d="M206.25 178.125H196.875V187.5H206.25V178.125Z" fill="black"/>
<path d="M9.375 9.375H23.4375V0H4.6875C2.1 0 0 2.1 0 4.6875V23.4375H9.375V9.375Z" fill="black"/>
<path d="M295.312 0H276.562V9.375H290.625V23.4375H300V4.6875C300 2.1 297.9 0 295.312 0Z" fill="black"/>
<path d="M9.375 276.562H0V295.312C0 297.9 2.1 300 4.6875 300H23.4375V290.625H9.375V276.562Z" fill="black"/>
<path d="M290.625 290.625H276.562V300H295.312C297.9 300 300 297.9 300 295.312V276.562H290.625V290.625Z" fill="black"/>
<path d="M18.75 23.4375V79.6875C18.75 82.275 20.85 84.375 23.4375 84.375H79.6875C82.275 84.375 84.375 82.275 84.375 79.6875V23.4375C84.375 20.85 82.275 18.75 79.6875 18.75H23.4375C20.85 18.75 18.75 20.85 18.75 23.4375ZM28.125 28.125H75V75H28.125V28.125Z" fill="black"/>
<path d="M60.9375 37.5H42.1875C39.6 37.5 37.5 39.6 37.5 42.1875V60.9375C37.5 63.525 39.6 65.625 42.1875 65.625H60.9375C63.525 65.625 65.625 63.525 65.625 60.9375V42.1875C65.625 39.6 63.525 37.5 60.9375 37.5ZM56.25 56.25H46.875V46.875H56.25V56.25Z" fill="black"/>
<path d="M220.312 84.375H276.562C279.15 84.375 281.25 82.275 281.25 79.6875V23.4375C281.25 20.85 279.15 18.75 276.562 18.75H220.312C217.725 18.75 215.625 20.85 215.625 23.4375V79.6875C215.625 82.275 217.725 84.375 220.312 84.375ZM225 28.125H271.875V75H225V28.125Z" fill="black"/>
<path d="M257.812 37.5H239.062C236.475 37.5 234.375 39.6 234.375 42.1875V60.9375C234.375 63.525 236.475 65.625 239.062 65.625H257.812C260.4 65.625 262.5 63.525 262.5 60.9375V42.1875C262.5 39.6 260.4 37.5 257.812 37.5ZM253.125 56.25H243.75V46.875H253.125V56.25Z" fill="black"/>
<path d="M79.6875 215.625H23.4375C20.85 215.625 18.75 217.725 18.75 220.312V276.562C18.75 279.15 20.85 281.25 23.4375 281.25H79.6875C82.275 281.25 84.375 279.15 84.375 276.562V220.312C84.375 217.725 82.275 215.625 79.6875 215.625ZM75 271.875H28.125V225H75V271.875Z" fill="black"/>
<path d="M42.1875 262.5H60.9375C63.525 262.5 65.625 260.4 65.625 257.812V239.062C65.625 236.475 63.525 234.375 60.9375 234.375H42.1875C39.6 234.375 37.5 236.475 37.5 239.062V257.812C37.5 260.4 39.6 262.5 42.1875 262.5ZM46.875 243.75H56.25V253.125H46.875V243.75Z" fill="black"/>
<path d="M206.25 89.0625H173.438V32.8125H164.062V93.75C164.062 96.3375 166.163 98.4375 168.75 98.4375H206.25V89.0625Z" fill="black"/>
<path d="M135.938 56.25H103.125V65.625H135.938V56.25Z" fill="black"/>
<path d="M154.688 37.5H121.875V46.875H154.688V37.5Z" fill="black"/>
<path d="M28.125 89.0625H18.75V131.25H28.125V89.0625Z" fill="black"/>
<path d="M84.375 117.188H37.5V126.562H79.6875V145.312H89.0625V121.875C89.0625 119.288 86.9625 117.188 84.375 117.188Z" fill="black"/>
<path d="M51.5625 93.75H42.1875V103.125H51.5625V93.75Z" fill="black"/>
<path d="M107.812 84.375H98.4375V121.875H107.812V84.375Z" fill="black"/>
<path d="M140.625 131.25H98.4375V140.625H140.625V131.25Z" fill="black"/>
<path d="M285.938 135.938H276.562V182.812H262.5V192.188H281.25C283.837 192.188 285.938 190.088 285.938 187.5V135.938Z" fill="black"/>
<path d="M131.25 84.375H121.875V93.75H131.25V84.375Z" fill="black"/>
<path d="M28.125 154.688H18.75V192.188H28.125V154.688Z" fill="black"/>
<path d="M60.9375 196.875H18.75V206.25H60.9375V196.875Z" fill="black"/>
<path d="M234.375 131.25H243.75V112.5C243.75 109.913 241.65 107.812 239.062 107.812H215.625V117.188H234.375V131.25Z" fill="black"/>
<path d="M51.5625 154.688H42.1875V164.062H51.5625V154.688Z" fill="black"/>
<path d="M103.125 150H93.75V187.5H103.125V150Z" fill="black"/>
<path d="M135.938 196.875H93.75V206.25H135.938V196.875Z" fill="black"/>
<path d="M79.6875 178.125H37.5V187.5H79.6875V178.125Z" fill="black"/>
<path d="M107.812 243.75H98.4375V262.5H107.812V243.75Z" fill="black"/>
<path d="M135.938 225H93.75V234.375H135.938V225Z" fill="black"/>
<path d="M168.75 206.25V182.812C168.75 180.225 166.65 178.125 164.062 178.125H117.188V187.5H159.375V206.25H168.75Z" fill="black"/>
<path d="M131.25 150H121.875V159.375H131.25V150Z" fill="black"/>
<path d="M79.6875 159.375H70.3125V168.75H79.6875V159.375Z" fill="black"/>
<path d="M285.938 248.438H276.562V281.25H285.938V248.438Z" fill="black"/>
<path d="M267.188 271.875H253.125V281.25H267.188V271.875Z" fill="black"/>
<path d="M262.5 243.75H253.125V262.5H262.5V243.75Z" fill="black"/>
<path d="M285.938 206.25C285.938 203.663 283.838 201.562 281.25 201.562H229.688V210.938H276.562V239.062H285.938V206.25Z" fill="black"/>
<path d="M225 262.5V239.062C225 236.475 222.9 234.375 220.312 234.375H168.75V243.75H215.625V262.5H225Z" fill="black"/>
<path d="M267.188 220.312H234.375V229.688H267.188V220.312Z" fill="black"/>
<path d="M126.562 271.875H93.75V281.25H126.562V271.875Z" fill="black"/>
<path d="M150 239.062H140.625V281.25H150V239.062Z" fill="black"/>
<path d="M168.75 215.625H150V225H168.75V215.625Z" fill="black"/>
<path d="M220.312 168.75H243.75V159.375H225V131.25H215.625V164.062C215.625 166.65 217.725 168.75 220.312 168.75Z" fill="black"/>
<path d="M257.812 140.625H234.375V150H257.812V140.625Z" fill="black"/>
<path d="M267.188 93.75H253.125V103.125H267.188V93.75Z" fill="black"/>
<path d="M285.938 93.75H276.562V117.188H285.938V93.75Z" fill="black"/>
<path d="M262.5 117.188H253.125V126.562H262.5V117.188Z" fill="black"/>
<path d="M182.812 79.6875H201.562C204.15 79.6875 206.25 77.5875 206.25 75V14.0625H196.875V70.3125H182.812V79.6875Z" fill="black"/>
<path d="M112.5 23.4375H182.812V14.0625H107.812C105.225 14.0625 103.125 16.1625 103.125 18.75V42.1875H112.5V23.4375Z" fill="black"/>
<path d="M117.188 112.5H150C152.588 112.5 154.688 110.4 154.688 107.812V70.3125H145.312V103.125H117.188V112.5Z" fill="black"/>
<path d="M168.75 107.812H159.375V126.562H168.75V107.812Z" fill="black"/>
<path d="M201.562 253.125H168.75V262.5H201.562V253.125Z" fill="black"/>
<path d="M210.938 271.875H168.75V281.25H210.938V271.875Z" fill="black"/>
<path d="M234.375 271.875H225V281.25H239.062C241.65 281.25 243.75 279.15 243.75 276.562V239.062H234.375V271.875Z" fill="black"/>
<path d="M84.375 196.875H75V206.25H84.375V196.875Z" fill="black"/>
<path d="M201.562 196.875H182.812V206.25H201.562V196.875Z" fill="black"/>
<path d="M225 178.125H215.625V192.188H225V178.125Z" fill="black"/>
<path d="M220.312 201.562H210.938V210.938H220.312V201.562Z" fill="black"/>
<path d="M196.875 215.625H182.812V225H196.875V215.625Z" fill="black"/>
<path d="M243.75 178.125H234.375V187.5H243.75V178.125Z" fill="black"/>
<path d="M267.188 159.375H253.125V168.75H267.188V159.375Z" fill="black"/>
<path d="M187.5 159.375H164.062V168.75H187.5V159.375Z" fill="black"/>
<path d="M168.75 135.938H159.375V150H168.75V135.938Z" fill="black"/>
</g>
<defs>
<clipPath id="clip0_1_3366">
<rect width="300" height="300" fill="white"/>
</clipPath>
</defs>
</svg>
