<svg width="47" height="47" viewBox="0 0 47 47" fill="none" xmlns="http://www.w3.org/2000/svg">
<path d="M6.02409 4.38217C5.57507 4.85741 5.30957 5.59528 5.30957 6.55134V40.6985C5.30957 41.6553 5.57515 42.3924 6.02409 42.8677L6.13835 42.979L25.2669 23.8505V23.625V23.3993L6.13835 4.27009L6.02409 4.38217Z" fill="url(#paint0_linear_1_2838)"/>
<path d="M31.6424 30.2295L25.2666 23.8506V23.625V23.3993L31.6439 17.022L31.7876 17.104L39.3421 21.3965C41.5 22.6224 41.5 24.6284 39.3421 25.8551L31.7876 30.1476L31.6424 30.2295Z" fill="url(#paint1_linear_1_2838)"/>
<path d="M31.7883 30.1467L25.2672 23.625L6.02441 42.8677C6.73591 43.6207 7.90993 43.7139 9.23303 42.9625L31.7883 30.1467Z" fill="url(#paint2_linear_1_2838)"/>
<path d="M31.7883 17.1031L9.23303 4.2874C7.90993 3.53595 6.73591 3.62918 6.02441 4.38218L25.2672 23.625L31.7883 17.1031Z" fill="url(#paint3_linear_1_2838)"/>
<defs>
<linearGradient id="paint0_linear_1_2838" x1="23.5706" y1="6.19131" x2="-2.34136" y2="32.1032" gradientUnits="userSpaceOnUse">
<stop stop-color="#00A0FF"/>
<stop offset="0.0066" stop-color="#00A2FF"/>
<stop offset="0.2601" stop-color="#00BEFF"/>
<stop offset="0.5122" stop-color="#00D2FF"/>
<stop offset="0.7604" stop-color="#00DFFF"/>
<stop offset="1" stop-color="#00E3FF"/>
</linearGradient>
<linearGradient id="paint1_linear_1_2838" x1="42.1517" y1="23.6257" x2="4.79181" y2="23.6257" gradientUnits="userSpaceOnUse">
<stop stop-color="#FFE000"/>
<stop offset="0.4087" stop-color="#FFBD00"/>
<stop offset="0.7754" stop-color="#FFA600"/>
<stop offset="1" stop-color="#FF9C00"/>
</linearGradient>
<linearGradient id="paint2_linear_1_2838" x1="28.2449" y1="27.1687" x2="-6.89376" y2="62.3073" gradientUnits="userSpaceOnUse">
<stop stop-color="#FF3743"/>
<stop offset="1" stop-color="#E30864"/>
</linearGradient>
<linearGradient id="paint3_linear_1_2838" x1="1.17926" y1="-6.98443" x2="16.8702" y2="8.70649" gradientUnits="userSpaceOnUse">
<stop stop-color="#00A06F"/>
<stop offset="0.0685" stop-color="#00A86E"/>
<stop offset="0.4762" stop-color="#00CF6E"/>
<stop offset="0.8009" stop-color="#00E76D"/>
<stop offset="1" stop-color="#00EF6D"/>
</linearGradient>
</defs>
</svg>
