<svg width="19" height="20" viewBox="0 0 19 20" fill="none" xmlns="http://www.w3.org/2000/svg">
<path fill-rule="evenodd" clip-rule="evenodd" d="M6.57422 14.1846C6.57422 14.5194 6.81445 14.7447 7.14947 14.7447C7.48442 14.7447 7.72481 14.5194 7.72481 14.1846C7.72481 13.8563 7.48442 13.6245 7.14947 13.6245C6.81445 13.6245 6.57422 13.8563 6.57422 14.1846Z" fill="#1677FF"/>
<path fill-rule="evenodd" clip-rule="evenodd" d="M6.64941 18.4658H7.64816V15.0151H6.64941V18.4658Z" fill="black"/>
<path fill-rule="evenodd" clip-rule="evenodd" d="M9.50139 17.8736C9.38761 17.8736 9.28024 17.8607 9.16004 17.8221V15.9551C9.3687 15.807 9.53938 15.7363 9.75429 15.7363C10.1272 15.7363 10.4245 16.0387 10.4245 16.6826C10.4245 17.5066 9.98819 17.8736 9.50139 17.8736ZM10.1335 14.9443C9.76686 14.9443 9.48248 15.086 9.16004 15.3564V15.0152H8.16113V19.5603H9.16004V18.4337C9.34963 18.4852 9.52672 18.5109 9.74171 18.5109C10.6331 18.5109 11.4358 17.8414 11.4358 16.6504C11.4358 15.5817 10.8543 14.9443 10.1335 14.9443Z" fill="black"/>
<path fill-rule="evenodd" clip-rule="evenodd" d="M18.0869 15.0216L18.0932 15.0151H17.1513L16.557 17.1139H16.5254L15.8427 15.0151H14.7236L16.0702 18.4787L15.5075 19.5345V19.5602H16.3862L18.0869 15.0216Z" fill="black"/>
<path fill-rule="evenodd" clip-rule="evenodd" d="M13.5288 17.6289C13.2633 17.777 13.1115 17.8349 12.9344 17.8349C12.6943 17.8349 12.5425 17.674 12.5425 17.4164C12.5425 17.3199 12.5614 17.2233 12.6374 17.1461C12.7575 17.0237 12.9914 16.9336 13.5288 16.8049V17.6289ZM14.5275 17.6031V16.1611C14.5275 15.3756 14.0724 14.9443 13.2696 14.9443C12.7575 14.9443 12.4034 15.0344 11.7587 15.234L11.9356 16.0259C12.5235 15.7555 12.7828 15.6396 13.0546 15.6396C13.3833 15.6396 13.5288 15.8778 13.5288 16.2447V16.2705C12.3845 16.4894 12.0303 16.6117 11.8093 16.837C11.6448 17.0044 11.5752 17.2426 11.5752 17.5195C11.5752 18.1825 12.0811 18.5366 12.5552 18.5366C12.9093 18.5366 13.1938 18.4015 13.5793 18.1053L13.6489 18.4658H14.6476L14.5275 17.6031Z" fill="black"/>
<path fill-rule="evenodd" clip-rule="evenodd" d="M13.0265 0.48291H5.29981C4.29342 0.48291 3.47867 1.32013 3.47867 2.35342V10.2883C3.47867 11.321 4.29342 12.1585 5.29981 12.1585H13.0265C14.0324 12.1585 14.847 11.321 14.847 10.2883V2.35342C14.847 1.32013 14.0324 0.48291 13.0265 0.48291Z" fill="#1677FF"/>
<path fill-rule="evenodd" clip-rule="evenodd" d="M6.55005 9.46133C4.78137 9.46133 4.25849 8.03052 5.13251 7.24781C5.42412 6.98333 5.95728 6.85415 6.24133 6.82518C7.29187 6.71852 8.26447 7.13018 9.41218 7.70551C8.60541 8.78619 7.57798 9.46133 6.55005 9.46133ZM12.8379 7.81393C12.3833 7.65754 11.7726 7.41826 11.0929 7.16559C11.5013 6.43662 11.8272 5.60635 12.0416 4.70425H9.80089V3.87532H12.5459V3.41267H9.80089V2.03076H8.68047C8.48382 2.03076 8.48382 2.22994 8.48382 2.22994V3.41267H5.7076V3.87532H8.48382V4.70425H6.19176V5.1669H10.6374C10.4746 5.74249 10.2563 6.28299 9.99697 6.77394C8.55452 6.28509 7.01514 5.88892 6.04821 6.1328C5.42988 6.28927 5.03138 6.56865 4.7974 6.86118C3.72335 8.20324 4.49345 10.2418 6.76183 10.2418C8.103 10.2418 9.39492 9.47372 10.3962 8.20826C11.8895 8.9456 14.8464 10.2116 14.8464 10.2116V8.40735C14.8464 8.40735 14.4751 8.37696 12.8379 7.81393Z" fill="white"/>
<path fill-rule="evenodd" clip-rule="evenodd" d="M4.96774 18.4658H5.96657V13.7661H4.96774V18.4658Z" fill="black"/>
<path fill-rule="evenodd" clip-rule="evenodd" d="M1.76268 16.8367L2.35693 14.7444H2.38217L2.94484 16.8367H1.76268ZM3.21672 13.9268H1.87646L0.378105 18.4655H1.30113L1.55402 17.577H3.14084L3.38107 18.4655H4.56315L3.21672 13.9268Z" fill="black"/>
</svg>
