<svg width="47" height="47" viewBox="0 0 47 47" fill="none" xmlns="http://www.w3.org/2000/svg">
<path d="M30.6105 4.20128C30.7009 4.20128 30.7914 4.20128 30.8869 4.20128C31.1086 6.94087 30.063 8.98789 28.7921 10.4703C27.5451 11.9424 25.8376 13.3702 23.0758 13.1536C22.8916 10.4532 23.939 8.55802 25.2081 7.07905C26.3851 5.70072 28.543 4.47421 30.6105 4.20128Z" fill="white"/>
<path d="M38.9706 32.7163C38.9706 32.7435 38.9706 32.7674 38.9706 32.793C38.1944 35.1437 37.0873 37.1583 35.7363 39.0279C34.503 40.7252 32.9916 43.0093 30.2929 43.0093C27.961 43.0093 26.4121 41.5099 24.0222 41.469C21.4942 41.428 20.1039 42.7228 17.7925 43.0486C17.5281 43.0486 17.2637 43.0486 17.0044 43.0486C15.3071 42.8029 13.9373 41.4587 12.9393 40.2476C9.99675 36.6687 7.72286 32.0459 7.2998 26.13C7.2998 25.55 7.2998 24.9717 7.2998 24.3917C7.47892 20.1578 9.53617 16.7154 12.2706 15.0471C13.7138 14.16 15.6977 13.4043 17.9068 13.7421C18.8535 13.8888 19.8207 14.2129 20.6685 14.5336C21.472 14.8424 22.4767 15.3899 23.4286 15.3609C24.0734 15.3422 24.7148 15.0061 25.3647 14.769C27.2685 14.0816 29.1347 13.2935 31.5945 13.6636C34.5507 14.1106 36.6489 15.4241 37.9454 17.4506C35.4446 19.0422 33.4675 21.4406 33.8053 25.5363C34.1055 29.2568 36.2685 31.4335 38.9706 32.7163Z" fill="white"/>
</svg>
