<svg width="19" height="19" viewBox="0 0 19 19" fill="none" xmlns="http://www.w3.org/2000/svg">
<path fill-rule="evenodd" clip-rule="evenodd" d="M12.9224 16.6699H6.66154C4.36177 16.6699 2.59747 15.8392 3.09861 12.496L3.68213 7.96508C3.99106 6.29689 5.05513 5.65845 5.98877 5.65845H13.6226C14.57 5.65845 15.5723 6.34495 15.9293 7.96508L16.5128 12.496C16.9384 15.4617 15.2222 16.6699 12.9224 16.6699Z" stroke="#130F26" stroke-width="1.5" stroke-linecap="round" stroke-linejoin="round"/>
<path d="M13.0254 5.49372C13.0254 3.70417 11.5747 2.25345 9.78511 2.25345V2.25345C8.92336 2.2498 8.09565 2.58957 7.48501 3.19763C6.87437 3.8057 6.5311 4.63196 6.53111 5.49372H6.53111" stroke="#130F26" stroke-width="1.5" stroke-linecap="round" stroke-linejoin="round"/>
<path d="M12.0094 8.87133H11.975" stroke="#130F26" stroke-width="1.5" stroke-linecap="round" stroke-linejoin="round"/>
<path d="M7.63637 8.87133H7.60204" stroke="#130F26" stroke-width="1.5" stroke-linecap="round" stroke-linejoin="round"/>
</svg>
