<svg width="20" height="20" viewBox="0 0 20 20" fill="none" xmlns="http://www.w3.org/2000/svg">
<g clip-path="url(#clip0_1_2863)">
<path d="M9.95049 6.46313C8.00419 6.46313 6.4209 8.04642 6.4209 9.99272C6.4209 11.9391 8.00419 13.5224 9.95049 13.5224C11.8968 13.5224 13.4802 11.9391 13.4802 9.99272C13.4802 8.04642 11.8968 6.46313 9.95049 6.46313ZM12.0491 9.43116L10.1116 11.3685C9.88812 11.592 9.52305 11.5942 9.29749 11.3685L8.17722 10.2478C7.95235 10.023 7.95235 9.65855 8.17722 9.43414C8.40176 9.20926 8.76625 9.20926 8.9909 9.43414L9.70467 10.1478L11.235 8.61703C11.4597 8.39261 11.8242 8.39261 12.0491 8.61703C12.2735 8.84179 12.2735 9.20628 12.0491 9.43116Z" fill="#081B27"/>
<path d="M18.7918 7.95242H16.4281C16.3122 7.5837 16.1649 7.22584 15.9876 6.88274L17.6573 5.21305C17.8817 4.9884 17.8817 4.62391 17.6573 4.39903L15.5859 2.32765C15.361 2.10358 14.9975 2.10278 14.7718 2.32765L13.1152 3.9843C12.7684 3.80131 12.4062 3.64853 12.0326 3.52848V1.1932C12.0326 0.875511 11.7746 0.617676 11.457 0.617676H8.52734C8.20977 0.617676 7.95194 0.875511 7.95194 1.1932V3.50205C7.56867 3.6198 7.19685 3.77144 6.84049 3.95557L5.21256 2.32765C4.98769 2.10358 4.62422 2.10278 4.39854 2.32765L2.32716 4.39903C2.10263 4.62391 2.10263 4.9884 2.32716 5.21305L3.94204 6.82804C3.75161 7.18819 3.59517 7.56413 3.47283 7.95242H1.19271C0.875023 7.95242 0.617188 8.21026 0.617188 8.52783V11.4575C0.617188 11.7751 0.875023 12.033 1.19271 12.033H3.47283C3.59517 12.4213 3.75161 12.7973 3.94204 13.1574L2.32716 14.7723C2.10263 14.9971 2.10263 15.3616 2.32716 15.5864L4.39854 17.6578C4.62354 17.8819 4.987 17.8827 5.21256 17.6578L6.84049 16.0299C7.19685 16.214 7.56867 16.3657 7.95194 16.4834V18.7923C7.95194 19.11 8.20977 19.3677 8.52734 19.3677H11.457C11.7746 19.3677 12.0326 19.11 12.0326 18.7923V16.4569C12.4062 16.3369 12.7684 16.1842 13.1152 16.0012L14.7718 17.6578C14.9967 17.8819 15.3603 17.8827 15.5859 17.6578L17.6573 15.5864C17.8817 15.3616 17.8817 14.9971 17.6573 14.7723L15.9876 13.1026C16.1649 12.7596 16.3122 12.4017 16.4281 12.033H18.7918C19.1095 12.033 19.3672 11.7751 19.3672 11.4575V8.52783C19.3672 8.21026 19.1095 7.95242 18.7918 7.95242ZM9.95042 14.6733C7.36955 14.6733 5.26978 12.5735 5.26978 9.99268C5.26978 7.41192 7.36955 5.31204 9.95042 5.31204C12.5313 5.31204 14.6309 7.41192 14.6309 9.99268C14.6309 12.5735 12.5313 14.6733 9.95042 14.6733Z" fill="#081B27"/>
</g>
<defs>
<clipPath id="clip0_1_2863">
<rect width="20" height="20" fill="white"/>
</clipPath>
</defs>
</svg>
