<svg width="18" height="18" viewBox="0 0 18 18" fill="none" xmlns="http://www.w3.org/2000/svg">
<path d="M6.8623 4.61782H7.33973L7.10207 3.98853L6.8623 4.61782Z" fill="#081B27"/>
<path d="M15.9003 0H4.51918C3.06547 0 1.88281 1.18266 1.88281 2.63637V13.6093C2.43195 13.1242 3.15266 12.8296 3.94086 12.8296H16.1169V0.216562C16.1169 0.0970312 16.0195 0 15.9003 0ZM8.59625 6.45469C8.32734 6.55668 8.02074 6.42294 7.91668 6.14742L7.73738 5.67246H6.46051L6.2791 6.14883C6.17539 6.42129 5.87059 6.5577 5.59848 6.45398C5.32637 6.35027 5.18961 6.04582 5.29332 5.77371L6.54137 2.49715C6.54277 2.49293 6.54453 2.48906 6.54594 2.4852C6.75009 1.98675 7.4567 1.98591 7.66109 2.48414C7.6632 2.48871 7.66496 2.49363 7.66672 2.49855L8.90352 5.77512C9.00617 6.04758 8.86871 6.35168 8.59625 6.45469ZM12.2135 11.0025H9.99652C9.57753 11.0025 9.32701 10.5374 9.55461 10.1876L11.1887 7.67953H10.0647C9.77328 7.67953 9.53738 7.44328 9.53738 7.15219C9.53738 6.86074 9.77328 6.62484 10.0647 6.62484H12.1618C12.5796 6.62484 12.832 7.08898 12.6037 7.43977L10.9693 9.94781H12.2135C12.5046 9.94781 12.7408 10.1841 12.7408 10.4752C12.7408 10.7666 12.5046 11.0025 12.2135 11.0025Z" fill="#081B27"/>
<path d="M3.94066 17.9999H15.9001C16.0193 17.9999 16.1167 17.9029 16.1167 17.7834V16.4692H1.95117C2.18461 17.3496 2.98793 17.9999 3.94066 17.9999Z" fill="#081B27"/>
<path d="M1.95117 15.4146H16.1167V13.8843H3.94066C2.98828 13.8843 2.18461 14.5347 1.95117 15.4146Z" fill="#081B27"/>
</svg>
