<svg width="22" height="22" viewBox="0 0 22 22" fill="none" xmlns="http://www.w3.org/2000/svg">
<g clip-path="url(#clip0_1_2869)">
<path d="M11.7815 12.3015C11.7137 12.4383 11.6227 12.5665 11.5087 12.6803C10.9203 13.269 9.95062 13.2441 9.39438 12.6058C8.75606 12.0495 8.73122 11.0799 9.31969 10.4913C9.43365 10.3775 9.56189 10.2865 9.69868 10.2185C10.001 10.0683 10.2853 9.88483 10.5381 9.66293L7.91699 7.04184L10.5381 4.42075C10.7601 4.67369 10.9436 4.95802 11.0938 5.26048C11.1616 5.39711 11.2526 5.52534 11.3666 5.63931C11.9552 6.22795 12.925 6.20294 13.4813 5.56429C14.1199 5.00804 14.1449 4.03806 13.5563 3.44942C13.4425 3.33562 13.3143 3.24464 13.1775 3.17667C12.8752 3.02644 12.5909 2.84299 12.3379 2.62109L14.959 0L17.5801 2.62109C17.802 2.36815 17.9854 2.08382 18.1357 1.78152C18.2036 1.64473 18.2944 1.51666 18.4084 1.40269C18.9971 0.814056 19.9667 0.839066 20.5229 1.47722C21.1613 2.03346 21.1861 3.00311 20.5975 3.59175C20.4835 3.70555 20.3554 3.79652 20.2186 3.8645C19.9164 4.01472 19.632 4.19818 19.3791 4.42007L22.0002 7.04117L19.3791 9.66226C19.1572 9.40932 18.9737 9.12498 18.8235 8.82269C18.7555 8.6859 18.6647 8.55783 18.5508 8.44386C17.9621 7.85522 16.9921 7.88023 16.4359 8.51889C15.7972 9.07513 15.7722 10.045 16.3609 10.6336C16.4748 10.7476 16.6031 10.8385 16.7397 10.9063C17.0421 11.0566 17.3265 11.2402 17.5793 11.4621L14.9582 14.0832L12.3371 11.4621C12.1152 11.7149 11.9317 11.9992 11.7815 12.3015Z" fill="#081B27"/>
<path d="M2.62109 12.3369C2.36815 12.1151 2.08382 11.9316 1.78152 11.7814C1.64473 11.7134 1.51666 11.6226 1.40269 11.5086C0.814056 10.9202 0.839066 9.9505 1.47722 9.39409C2.03346 8.75594 3.00311 8.73109 3.59175 9.31956C3.70555 9.43353 3.79652 9.56177 3.8645 9.69839C4.01472 10.0009 4.19818 10.2852 4.42007 10.538L7.04117 7.91687L8.59795 9.47365C8.54507 9.51897 8.49371 9.56647 8.4442 9.61598C7.92035 10.14 7.63434 10.8653 7.65968 11.606C7.68402 12.3181 7.99554 12.9973 8.51772 13.4823C9.00279 14.0043 9.6819 14.3159 10.3941 14.3404C11.1348 14.3657 11.86 14.0797 12.3841 13.5558C12.4336 13.5062 12.4811 13.455 12.5262 13.4019L14.0832 14.9589L11.4621 17.58C11.7149 17.8019 11.9992 17.9853 12.3015 18.1355C12.4383 18.2034 12.5665 18.2943 12.6805 18.4083C13.269 18.9968 13.2441 19.9664 12.6058 20.5227C12.0495 21.161 11.0799 21.1858 10.4914 20.5974C10.3775 20.4834 10.2865 20.3551 10.2187 20.2184C10.0685 19.9161 9.88499 19.6317 9.6631 19.3788L7.04201 21.9999L4.42091 19.3788C4.67369 19.1569 4.95802 18.9734 5.26048 18.8232C5.39711 18.7554 5.52534 18.6644 5.63931 18.5505C6.22795 17.9618 6.20294 16.992 5.56429 16.4358C5.00804 15.7971 4.03806 15.7721 3.44942 16.3607C3.33562 16.4745 3.24464 16.6028 3.17667 16.7396C3.02644 17.0419 2.84299 17.3262 2.62109 17.5791L0 14.958L2.62109 12.3369Z" fill="#081B27"/>
</g>
<defs>
<clipPath id="clip0_1_2869">
<rect width="22" height="22" fill="white"/>
</clipPath>
</defs>
</svg>
