<svg width="22" height="22" viewBox="0 0 22 22" fill="none" xmlns="http://www.w3.org/2000/svg">
<g clip-path="url(#clip0_1_2855)">
<path d="M15.5282 11.4824L15.1504 5.01514H12.1007V7.91918H10.8117V5.01514H5.84709V7.91918H4.55809V5.01514H1.50829L0.830922 16.6107C0.778201 17.5136 1.09091 18.3732 1.71149 19.031C2.33206 19.6889 3.17189 20.0512 4.07625 20.0512H11.2264C10.8092 19.2389 10.5736 18.3186 10.5736 17.3443C10.5736 14.4036 12.7199 11.9552 15.5282 11.4824Z" fill="#081B27"/>
<path d="M5.84662 3.77125C5.84662 2.40254 6.96015 1.28901 8.32887 1.28901C9.69758 1.28901 10.8111 2.40254 10.8111 3.77125V5.0151H12.1002V3.77125C12.1002 1.69178 10.4084 0 8.32887 0C6.24935 0 4.55762 1.69178 4.55762 3.77125V5.0151H5.84662V3.77125Z" fill="#081B27"/>
<path d="M21.1738 17.3442C21.1738 14.7771 19.0853 12.6885 16.5181 12.6885C13.9509 12.6885 11.8623 14.7771 11.8623 17.3442C11.8623 19.9114 13.9509 22 16.5181 22C19.0853 22 21.1738 19.9114 21.1738 17.3442ZM15.821 19.6245L13.7275 17.2566L14.6931 16.4028L15.8626 17.7255L18.2846 15.2168L19.2119 16.112L15.821 19.6245Z" fill="#081B27"/>
</g>
<defs>
<clipPath id="clip0_1_2855">
<rect width="22" height="22" fill="white"/>
</clipPath>
</defs>
</svg>
