<svg width="27" height="18" viewBox="0 0 27 18" fill="none" xmlns="http://www.w3.org/2000/svg">
<path d="M25.7432 0.503418H1.40723C0.735208 0.503418 0.19043 1.0482 0.19043 1.72021V16.3218C0.19043 16.9938 0.735208 17.5386 1.40723 17.5386H25.7432C26.4152 17.5386 26.96 16.9938 26.96 16.3218V1.72021C26.96 1.0482 26.4152 0.503418 25.7432 0.503418Z" fill="white"/>
<path d="M24.7216 15.6761L23.5338 14.3587L22.3004 15.6761H19.8793H14.6716V9.54341H12.2504L15.2654 2.68392H18.1891L19.2397 5.04613V2.68392H22.8943L23.5338 4.45557L24.1734 2.68392H26.96V1.6391C26.96 1.00312 26.4575 0.503418 25.8179 0.503418H1.33247C0.692929 0.503418 0.19043 1.00312 0.19043 1.6391V16.4029C0.19043 17.0389 0.692929 17.5386 1.33247 17.5386H25.8179C26.4575 17.5386 26.96 17.0389 26.96 16.4029V15.6761H24.7216Z" fill="#0071CE"/>
<path d="M25.0417 14.9492H26.9603L24.4478 12.269L26.9603 9.63428H25.0874L23.4885 11.3605L21.9353 9.63428H20.0167L22.5749 12.3145L20.0167 14.9492H21.8897L23.4885 13.223L25.0417 14.9492Z" fill="#0071CE"/>
<path d="M16.9559 13.7227V12.905H19.9709V11.6785H16.9559V10.8608H20.0166V9.63428H15.4941V14.9492H20.0166V13.7227H16.9559Z" fill="#0071CE"/>
<path d="M25.5442 8.86198H26.9147V3.50159L24.7219 3.54701L23.5342 6.86319L22.3008 3.54701H20.0167V8.86198H21.4785V5.13696L22.849 8.86198H24.1281L25.5442 5.13696V8.86198Z" fill="#0071CE"/>
<path d="M17.6868 3.547H15.8139L13.4384 8.86197H15.0373L15.4941 7.81714H17.9609L18.4177 8.86197H20.0623L17.6868 3.547ZM15.9966 6.59061L16.7275 4.86438L17.4584 6.59061H15.9966Z" fill="#0071CE"/>
<path d="M25.6348 12.1324L26.9595 13.586V10.6787L25.6348 12.1324Z" fill="#0071CE"/>
</svg>
