<svg width="29" height="18" viewBox="0 0 29 18" fill="none" xmlns="http://www.w3.org/2000/svg">
<mask id="mask0_67_3037" style="mask-type:luminance" maskUnits="userSpaceOnUse" x="0" y="0" width="29" height="18">
<path d="M0.897461 0.523926H28.5928V17.5188H0.897461V0.523926Z" fill="#D93036"/>
</mask>
<g mask="url(#mask0_67_3037)">
<path fill-rule="evenodd" clip-rule="evenodd" d="M6.30615 0.523926H13.2236C14.1889 0.523926 14.79 1.29653 14.5647 2.248L11.3441 15.8166C11.1162 16.7652 10.1499 17.5378 9.18396 17.5378H2.26653C1.30056 17.5378 0.700076 16.7652 0.92538 15.8166L4.14827 2.248C4.37261 1.29653 5.33824 0.523926 6.30615 0.523926Z" fill="#D93036"/>
</g>
<mask id="mask1_67_3037" style="mask-type:luminance" maskUnits="userSpaceOnUse" x="0" y="0" width="29" height="18">
<path d="M0.897461 0.523926H28.5928V17.5188H0.897461V0.523926Z" fill="#213152"/>
</mask>
<g mask="url(#mask1_67_3037)">
<path fill-rule="evenodd" clip-rule="evenodd" d="M12.6487 0.523926H20.6039C21.5692 0.523926 21.1342 1.29653 20.9072 2.248L17.686 15.8166C17.461 16.7652 17.5319 17.5378 16.564 17.5378H8.60936C7.64243 17.5378 7.04356 16.7652 7.2708 15.8166L10.4898 2.248C10.718 1.29653 11.6827 0.523926 12.6487 0.523926Z" fill="#213152"/>
</g>
<mask id="mask2_67_3037" style="mask-type:luminance" maskUnits="userSpaceOnUse" x="0" y="0" width="29" height="18">
<path d="M0.897461 0.523926H28.5928V17.5188H0.897461V0.523926Z" fill="#10625B"/>
</mask>
<g mask="url(#mask2_67_3037)">
<path fill-rule="evenodd" clip-rule="evenodd" d="M20.2881 0.523926H27.2046C28.1706 0.523926 28.7711 1.29653 28.5448 2.248L25.3245 15.8166C25.0982 16.7652 24.1322 17.5378 23.163 17.5378H16.2488C15.2809 17.5378 14.6814 16.7652 14.9083 15.8166L18.1277 2.248C18.3546 1.29653 19.3199 0.523926 20.2881 0.523926Z" fill="#10625B"/>
</g>
<path fill-rule="evenodd" clip-rule="evenodd" d="M21.4199 10.5436L20.5772 13.2811H20.8035L20.6287 13.8472H20.4018L20.3494 14.0229H19.5469L19.6012 13.8472H17.9707L18.1348 13.323H18.2996L19.1545 10.5436L19.3258 9.98193H20.1441L20.0583 10.2656C20.0583 10.2656 20.2762 10.1115 20.483 10.0588C20.6899 10.0054 21.8763 9.98606 21.8763 9.98606L21.7005 10.5436H21.4199ZM19.9777 10.5436L19.7612 11.2431C19.7612 11.2431 20.0036 11.1358 20.1367 11.1002C20.2707 11.0659 20.472 11.0528 20.472 11.0528L20.6287 10.5436H19.9777ZM19.6537 11.5907L19.4297 12.3185C19.4297 12.3185 19.6776 12.194 19.8107 12.1552C19.9447 12.1247 20.1474 12.0999 20.1474 12.0999L20.306 11.5907H19.6537ZM19.1319 13.289H19.7841L19.9725 12.6737H19.3206L19.1319 13.289Z" fill="#FFFFFE"/>
<path fill-rule="evenodd" clip-rule="evenodd" d="M21.7824 9.98596H22.6558L22.6655 10.3056C22.6606 10.3589 22.7076 10.3847 22.8086 10.3847H22.9863L22.8238 10.912H22.3525C21.9433 10.9416 21.7889 10.7687 21.7979 10.5753L21.7824 9.98596Z" fill="#FFFFFE"/>
<path fill-rule="evenodd" clip-rule="evenodd" d="M21.8969 12.4882H21.0643L21.2071 12.0177H22.1588L22.2954 11.5895H21.355L21.5165 11.0596H24.1321L23.968 11.5895H23.0911L22.9538 12.0177H23.8327L23.688 12.4882H22.7363L22.568 12.6861H22.9538L23.0474 13.2776C23.0574 13.3358 23.0593 13.3742 23.0781 13.4C23.0975 13.4219 23.2131 13.4317 23.2801 13.4317H23.3973L23.2193 14.008H22.9224C22.8768 14.008 22.8085 14.0039 22.7156 13.9991C22.6256 13.9915 22.5618 13.9407 22.5022 13.9124C22.4475 13.8857 22.3663 13.8209 22.3478 13.7106L22.2543 13.1201L21.8224 13.7027C21.6849 13.8857 21.499 14.0258 21.1857 14.0258H20.5791L20.7377 13.5121H20.9695C21.0365 13.5121 21.0957 13.4867 21.1388 13.4644C21.1838 13.446 21.2229 13.4238 21.2676 13.3593L21.8969 12.4882Z" fill="#FFFFFE"/>
<path fill-rule="evenodd" clip-rule="evenodd" d="M12.7778 11.2026H14.9822L14.8191 11.7195H13.9376L13.8004 12.1582H14.7026L14.5381 12.6919H13.6369L13.4184 13.4077C13.3915 13.4871 13.6311 13.4982 13.7181 13.4982L14.17 13.4372L13.9888 14.0265H12.9717C12.8917 14.0265 12.8292 14.0154 12.7405 13.996C12.6551 13.9748 12.6172 13.9373 12.579 13.8801C12.5424 13.8213 12.4861 13.774 12.5243 13.6494L12.816 12.7008H12.3155L12.4816 12.1582H12.9846L13.1183 11.7195H12.6172L12.7778 11.2026Z" fill="#FFFFFE"/>
<path fill-rule="evenodd" clip-rule="evenodd" d="M14.2622 10.2745H15.1663L15.0009 10.8146H13.7653L13.631 10.928C13.5743 10.9826 13.5539 10.9597 13.4795 10.9995C13.4095 11.0341 13.2623 11.1027 13.0722 11.1027H12.6757L12.8369 10.583H12.956C13.0567 10.583 13.125 10.575 13.1593 10.5531C13.1991 10.529 13.2425 10.474 13.2933 10.3844L13.5203 9.97937H14.4199L14.2622 10.2745Z" fill="#FFFFFE"/>
<path fill-rule="evenodd" clip-rule="evenodd" d="M15.555 9.98626H16.3255L16.2138 10.3665C16.2138 10.3665 16.4566 10.1762 16.6268 10.1079C16.7965 10.0457 17.181 9.98975 17.181 9.98975L18.427 9.9834L18.0023 11.3714C17.9311 11.6096 17.8479 11.7634 17.7958 11.8333C17.7485 11.9051 17.6935 11.9651 17.5844 12.0229C17.4795 12.0782 17.3837 12.11 17.2956 12.1186C17.2131 12.1246 17.0868 12.1281 16.9117 12.1294H15.7117L15.3724 13.2282C15.3404 13.3362 15.3249 13.388 15.3459 13.4173C15.364 13.4436 15.4045 13.4732 15.4608 13.4732L15.9901 13.4242L15.8098 14.0266H15.2164C15.0277 14.0266 14.8904 14.0228 14.794 14.0155C14.703 14.0085 14.6072 14.0155 14.5441 13.9665C14.4881 13.9189 14.4042 13.8566 14.4061 13.7921C14.4126 13.7327 14.4369 13.6336 14.4764 13.4983L15.555 9.98626ZM17.1911 11.3888H15.9279L15.8506 11.6392H16.9431C17.0726 11.623 17.0991 11.6414 17.1098 11.6354L17.1911 11.3888ZM15.9979 11.163C15.9979 11.163 16.2442 10.9419 16.6667 10.8697C16.7628 10.8516 17.3636 10.8573 17.3636 10.8573L17.4549 10.5609H16.1821L15.9979 11.163Z" fill="#FFFFFE"/>
<path fill-rule="evenodd" clip-rule="evenodd" d="M17.8005 12.2261L17.7299 12.5596C17.6982 12.6632 17.672 12.7429 17.5917 12.8097C17.5085 12.8792 17.4091 12.9526 17.1777 12.9526L16.751 12.9695L16.7471 13.3475C16.7413 13.4546 16.7708 13.4431 16.7886 13.4606C16.808 13.4787 16.8252 13.4873 16.8449 13.4933L16.9796 13.4873L17.3878 13.4641L17.2198 14.0146H16.751C16.4225 14.0146 16.179 14.0076 16.0984 13.9451C16.0204 13.8961 16.0097 13.8342 16.012 13.729L16.0418 12.2594H16.7892L16.7798 12.5596H16.9601C17.0217 12.5596 17.0618 12.5536 17.0887 12.538C17.1103 12.5203 17.1275 12.4974 17.1392 12.4605L17.212 12.2261H17.8005Z" fill="#FFFFFE"/>
<path fill-rule="evenodd" clip-rule="evenodd" d="M7.12542 4.85889C7.09822 4.97707 6.61848 7.1513 6.61686 7.15257C6.51295 7.59193 6.43947 7.90707 6.18373 8.10816C6.03839 8.22507 5.86908 8.28289 5.67324 8.28289C5.35859 8.28289 5.17375 8.12913 5.14235 7.83718L5.13652 7.73743C5.13652 7.73743 5.23234 7.1478 5.23363 7.14526C5.23363 7.14526 5.73701 5.16355 5.82733 4.90273C5.83121 4.88811 5.83315 4.88081 5.83509 4.87318C4.85424 4.88176 4.67944 4.87318 4.66843 4.85889C4.66293 4.87827 4.63638 5.00153 4.63638 5.00153L4.122 7.23294L4.07733 7.42355L3.99316 8.04209C3.99316 8.22507 4.03007 8.37565 4.1029 8.50241C4.3376 8.90523 5.00671 8.96496 5.38416 8.96496C5.87167 8.96496 6.32811 8.86298 6.63661 8.67841C7.17268 8.36708 7.31382 7.87975 7.43877 7.44897L7.49672 7.22818C7.49672 7.22818 8.01628 5.17054 8.10497 4.90273C8.10756 4.88811 8.10918 4.88081 8.11274 4.87318C7.40187 4.88081 7.19275 4.87318 7.12542 4.85889Z" fill="#FFFFFE"/>
<path fill-rule="evenodd" clip-rule="evenodd" d="M9.99514 8.94272C9.64683 8.93827 9.52446 8.93827 9.11788 8.95829L9.10202 8.92874C9.13795 8.77721 9.17647 8.62726 9.21046 8.47318L9.26031 8.26573C9.33574 7.94233 9.40954 7.56587 9.41861 7.45246C9.42541 7.38321 9.44871 7.21134 9.24866 7.21134C9.16385 7.21134 9.07579 7.252 8.98677 7.29171C8.93789 7.4639 8.83819 7.94582 8.79287 8.16693C8.69122 8.63075 8.68475 8.68317 8.63975 8.91286L8.61062 8.94272C8.25162 8.93827 8.12796 8.93827 7.71523 8.95829L7.69548 8.92493C7.76508 8.64886 7.83371 8.37089 7.89942 8.09609C8.07261 7.3489 8.11339 7.06298 8.16163 6.68335L8.194 6.66079C8.59638 6.6052 8.69349 6.59439 9.12888 6.50671L9.16579 6.54706L9.1004 6.78501C9.17388 6.74212 9.24348 6.6986 9.31923 6.66079C9.52446 6.56167 9.75333 6.53245 9.87925 6.53245C10.0693 6.53245 10.2774 6.58486 10.3648 6.80089C10.4477 6.99404 10.3933 7.23199 10.2845 7.70025L10.2282 7.9382C10.1165 8.45952 10.0981 8.55514 10.0359 8.91286L9.99514 8.94272Z" fill="#FFFFFE"/>
<path fill-rule="evenodd" clip-rule="evenodd" d="M11.4078 8.94255C11.1986 8.94159 11.064 8.9381 10.9322 8.94159C10.8011 8.94255 10.6736 8.94922 10.479 8.95811L10.4671 8.94159L10.4541 8.92476C10.5075 8.72716 10.5373 8.65758 10.5632 8.58769C10.5897 8.51812 10.6156 8.44728 10.6616 8.24713C10.7225 7.98568 10.76 7.80301 10.7869 7.6429C10.8147 7.48755 10.8306 7.35635 10.8503 7.20354L10.8665 7.19147L10.884 7.17686C11.0921 7.14763 11.2252 7.12889 11.3599 7.10824C11.4968 7.08886 11.634 7.06281 11.85 7.02246L11.8584 7.0412L11.8642 7.05995C11.8241 7.22165 11.7833 7.38303 11.7441 7.54791C11.7056 7.71152 11.6648 7.87227 11.6285 8.03492C11.5499 8.37929 11.5191 8.507 11.5 8.59881C11.4829 8.68649 11.477 8.73414 11.446 8.91268L11.4272 8.92857L11.4078 8.94255Z" fill="#FFFFFE"/>
<path fill-rule="evenodd" clip-rule="evenodd" d="M14.5347 7.76805C14.6567 7.2426 14.5628 6.99735 14.4434 6.84709C14.2615 6.62026 13.9419 6.54688 13.6098 6.54688C13.4104 6.54688 12.9352 6.56689 12.5633 6.90364C12.2975 7.14539 12.1732 7.47515 12.0984 7.78997C12.0236 8.11052 11.9372 8.69061 12.4791 8.90568C12.6474 8.97494 12.887 8.99463 13.043 8.99463C13.4405 8.99463 13.8477 8.88694 14.1527 8.56862C14.3903 8.30971 14.4978 7.92531 14.5347 7.76805ZM13.625 7.72993C13.6059 7.81793 13.5276 8.14737 13.4198 8.28779C13.3457 8.39072 13.2573 8.45266 13.1592 8.45266C13.1317 8.45266 12.9601 8.45266 12.9569 8.20201C12.9546 8.07907 12.9808 7.95072 13.0122 7.81412C13.1039 7.41638 13.2123 7.08281 13.4875 7.08281C13.7047 7.08281 13.7189 7.33092 13.625 7.72993Z" fill="#FFFFFE"/>
<path fill-rule="evenodd" clip-rule="evenodd" d="M23.0393 8.97804C22.6197 8.97455 22.499 8.97455 22.1109 8.99043L22.085 8.95994C22.1908 8.56823 22.297 8.17748 22.3909 7.78196C22.5123 7.26795 22.5398 7.0497 22.5809 6.74949L22.612 6.72375C23.0286 6.66498 23.1442 6.6491 23.5789 6.57031L23.5925 6.60526C23.5125 6.92739 23.4329 7.24984 23.3572 7.57324C23.1969 8.25055 23.1386 8.59523 23.0775 8.94913L23.0393 8.97804Z" fill="#FFFFFE"/>
<path fill-rule="evenodd" clip-rule="evenodd" d="M23.2397 7.81438C23.3617 7.29179 22.871 7.76832 22.7926 7.5955C22.6719 7.32706 22.7473 6.78127 22.2637 6.59956C22.0782 6.52872 21.6409 6.62021 21.2686 6.95473C21.0045 7.19553 20.8789 7.52116 20.8047 7.83567C20.7296 8.15208 20.6435 8.73059 21.1828 8.93835C21.3531 9.0092 21.5094 9.02985 21.6652 9.02381C22.2074 8.99458 22.6211 8.19148 22.9263 7.87284C23.1623 7.62123 23.2038 7.96783 23.2397 7.81438ZM22.4094 7.77531C22.3893 7.85918 22.3106 8.19275 22.2028 8.3303C22.1316 8.42942 21.962 8.49169 21.8649 8.49169C21.8374 8.49169 21.6668 8.49169 21.6606 8.24389C21.6593 8.1219 21.6855 7.99356 21.7182 7.85568C21.8095 7.46652 21.918 7.13422 22.1931 7.13422C22.4103 7.13422 22.5029 7.37598 22.4094 7.77531Z" fill="#FFFFFE"/>
<path fill-rule="evenodd" clip-rule="evenodd" d="M16.9102 8.94272C16.5613 8.93827 16.4431 8.93827 16.033 8.95829L16.0181 8.92874C16.0527 8.77721 16.0922 8.62726 16.1288 8.47318L16.1777 8.26573C16.2534 7.94233 16.3269 7.56587 16.335 7.45246C16.3421 7.38321 16.3651 7.21134 16.1663 7.21134C16.0802 7.21134 15.9935 7.252 15.9038 7.29171C15.8556 7.4639 15.7555 7.94582 15.7076 8.16693C15.6083 8.63075 15.6018 8.68317 15.5565 8.91286L15.5267 8.94272C15.1683 8.93827 15.045 8.93827 14.6332 8.95829L14.6145 8.92493C14.6831 8.64886 14.7504 8.37089 14.8165 8.09609C14.9893 7.3489 15.0301 7.06298 15.078 6.68335L15.1107 6.66079C15.5128 6.6052 15.6105 6.59439 16.0459 6.50671L16.0802 6.54706L16.0174 6.78501C16.0886 6.74212 16.1615 6.6986 16.2359 6.66079C16.4399 6.56167 16.6704 6.53245 16.7937 6.53245C16.984 6.53245 17.1928 6.58486 17.2825 6.80089C17.3644 6.99404 17.309 7.23199 17.1993 7.70025L17.1446 7.9382C17.031 8.45952 17.0132 8.55514 16.953 8.91286L16.9102 8.94272Z" fill="#FFFFFE"/>
<path fill-rule="evenodd" clip-rule="evenodd" d="M20.301 6.13098C20.2398 6.40165 20.0608 6.63133 19.8294 6.7422C19.638 6.83656 19.4053 6.84354 19.1644 6.84354H19.0094L19.0207 6.78287C19.0207 6.78287 19.3082 5.55946 19.3069 5.56328L19.3153 5.50069L19.3205 5.4524L19.4351 5.46416C19.4351 5.46416 20.0249 5.51403 20.0398 5.51594C20.2732 5.60299 20.3683 5.83267 20.301 6.13098ZM19.9245 4.85516C19.9229 4.85516 19.6358 4.85897 19.6358 4.85897C18.8838 4.86723 18.5821 4.86373 18.4584 4.84912C18.4455 4.90313 18.4264 4.99907 18.4264 4.99907L18.158 6.22597C18.158 6.22597 17.5138 8.83193 17.4834 8.95424C18.1396 8.94725 18.4089 8.94725 18.5209 8.95837C18.5471 8.83606 18.7002 8.10825 18.7002 8.10825C18.7002 8.10825 18.831 7.57358 18.8391 7.55389C18.8391 7.55389 18.8796 7.49893 18.9213 7.47732H18.9812C19.5464 7.47732 20.1871 7.47733 20.6875 7.11485C21.0277 6.86674 21.2624 6.50045 21.366 6.056C21.3935 5.94672 21.413 5.81584 21.413 5.68622C21.413 5.51594 21.378 5.34725 21.2763 5.21509C21.0209 4.86373 20.5137 4.85897 19.9245 4.85516Z" fill="#FFFFFE"/>
<path fill-rule="evenodd" clip-rule="evenodd" d="M26.4763 6.56681L26.4427 6.53027C26.0144 6.61414 25.9357 6.62876 25.5408 6.6799L25.511 6.70818C25.5097 6.71294 25.5084 6.72057 25.5078 6.72629L25.5055 6.72057C25.2116 7.38707 25.2213 7.24284 24.9811 7.7667C24.9798 7.74192 24.9795 7.72604 24.9789 7.70158L24.919 6.56681L24.8814 6.53027C24.4324 6.61414 24.4208 6.62876 24.0054 6.6799L23.9718 6.70818C23.9692 6.72279 23.9682 6.73772 23.9656 6.75329L23.9692 6.75932C24.021 7.02078 24.009 6.96232 24.0602 7.37246C24.0848 7.57355 24.1165 7.7775 24.1404 7.97637C24.1822 8.30962 24.2045 8.4745 24.2537 8.98216C23.9744 9.43804 23.907 9.60991 23.6396 10.0092L23.6542 10.0455C24.0602 10.0308 24.154 10.0308 24.4544 10.0308L24.5208 9.95809C24.7474 9.47775 26.4763 6.56681 26.4763 6.56681Z" fill="#FFFFFE"/>
<path fill-rule="evenodd" clip-rule="evenodd" d="M11.7908 6.84845C12.02 6.69119 12.0494 6.4739 11.8552 6.36112C11.6584 6.24771 11.3159 6.28329 11.0841 6.44086C10.8507 6.59621 10.8252 6.81414 11.0197 6.92755C11.2146 7.03874 11.5587 7.00602 11.7908 6.84845Z" fill="#FFFFFE"/>
<path fill-rule="evenodd" clip-rule="evenodd" d="M24.4907 9.99805L24.1527 10.5657C24.0459 10.7592 23.8474 10.905 23.5322 10.9063L22.9941 10.8974L23.1502 10.3859H23.2551C23.3101 10.3859 23.3505 10.3824 23.3816 10.3675C23.4082 10.3589 23.4282 10.3383 23.4499 10.3081L23.6484 9.99805H24.4907Z" fill="#FFFFFE"/>
</svg>
