<svg width="24" height="24" viewBox="0 0 24 24" fill="none" xmlns="http://www.w3.org/2000/svg">
<path d="M16.6172 0C16.6731 0 16.729 0 16.788 0C16.925 1.69253 16.279 2.95719 15.4938 3.87301C14.7234 4.78251 13.6685 5.6646 11.9623 5.53076C11.8484 3.86247 12.4955 2.69161 13.2796 1.77789C14.0068 0.92636 15.3399 0.168621 16.6172 0Z" fill="black"/>
<path d="M21.7831 17.6166C21.7831 17.6335 21.7831 17.6482 21.7831 17.6641C21.3036 19.1163 20.6196 20.3609 19.785 21.516C19.023 22.5646 18.0893 23.9757 16.422 23.9757C14.9814 23.9757 14.0245 23.0494 12.548 23.0241C10.9861 22.9988 10.1272 23.7987 8.69921 24C8.53586 24 8.37251 24 8.21232 24C7.16371 23.8482 6.31744 23.0178 5.70092 22.2695C3.88298 20.0585 2.47816 17.2025 2.2168 13.5476C2.2168 13.1893 2.2168 12.832 2.2168 12.4737C2.32745 9.85797 3.59843 7.73124 5.2878 6.70054C6.17938 6.15253 7.40505 5.68566 8.76982 5.89432C9.35472 5.98496 9.95227 6.1852 10.4761 6.38333C10.9724 6.57408 11.5932 6.91237 12.1812 6.89446C12.5796 6.88286 12.9759 6.67525 13.3774 6.52876C14.5535 6.10405 15.7065 5.61715 17.2262 5.84585C19.0525 6.12196 20.3488 6.93345 21.1497 8.18546C19.6048 9.16873 18.3833 10.6505 18.592 13.1808C18.7775 15.4794 20.1138 16.8241 21.7831 17.6166Z" fill="black"/>
</svg>
