<svg width="24" height="24" viewBox="0 0 24 24" fill="none" xmlns="http://www.w3.org/2000/svg">
<path d="M17.9986 0.0049936L14.8864 0C11.3899 0 9.1303 2.31828 9.1303 5.90643V8.62969H6.00109C5.73069 8.62969 5.51172 8.84891 5.51172 9.11932V13.065C5.51172 13.3354 5.73094 13.5544 6.00109 13.5544H9.1303V23.5106C9.1303 23.781 9.34926 24 9.61966 24H13.7024C13.9728 24 14.1918 23.7808 14.1918 23.5106V13.5544H17.8505C18.1209 13.5544 18.3399 13.3354 18.3399 13.065L18.3414 9.11932C18.3414 8.98948 18.2897 8.86514 18.1981 8.77326C18.1065 8.68138 17.9816 8.62969 17.8518 8.62969H14.1918V6.32115C14.1918 5.21157 14.4562 4.64829 15.9015 4.64829L17.9981 4.64755C18.2682 4.64755 18.4872 4.42833 18.4872 4.15817V0.494367C18.4872 0.224462 18.2685 0.00549296 17.9986 0.0049936Z" fill="#1876F1"/>
</svg>
