<svg width="27" height="18" viewBox="0 0 27 18" fill="none" xmlns="http://www.w3.org/2000/svg">
<path d="M25.7432 0.566406H1.40723C0.735208 0.566406 0.19043 1.11118 0.19043 1.7832V16.3848C0.19043 17.0568 0.735208 17.6016 1.40723 17.6016H25.7432C26.4152 17.6016 26.96 17.0568 26.96 16.3848V1.7832C26.96 1.11118 26.4152 0.566406 25.7432 0.566406Z" fill="white"/>
<path d="M24.7216 15.7391L23.5338 14.4217L22.3004 15.7391H19.8793H14.6716V9.6064H12.2504L15.2654 2.74691H18.1891L19.2397 5.10911V2.74691H22.8943L23.5338 4.51856L24.1734 2.74691H26.96V1.70208C26.96 1.0661 26.4575 0.566406 25.8179 0.566406H1.33247C0.692929 0.566406 0.19043 1.0661 0.19043 1.70208V16.4659C0.19043 17.1019 0.692929 17.6016 1.33247 17.6016H25.8179C26.4575 17.6016 26.96 17.1019 26.96 16.4659V15.7391H24.7216Z" fill="#0071CE"/>
<path d="M25.0416 15.0122H26.9602L24.4477 12.332L26.9602 9.69727H25.0873L23.4884 11.4235L21.9352 9.69727H20.0166L22.5748 12.3775L20.0166 15.0122H21.8896L23.4884 13.286L25.0416 15.0122Z" fill="#0071CE"/>
<path d="M16.956 13.7857V12.968H19.971V11.7415H16.956V10.9238H20.0166V9.69727H15.4941V15.0122H20.0166V13.7857H16.956Z" fill="#0071CE"/>
<path d="M25.5441 8.92485H26.9146V3.56445L24.7218 3.60988L23.5341 6.92606L22.3007 3.60988H20.0166V8.92485H21.4784V5.19983L22.8489 8.92485H24.128L25.5441 5.19983V8.92485Z" fill="#0071CE"/>
<path d="M17.6869 3.60986H15.8139L13.4385 8.92483H15.0373L15.4942 7.88001H17.961L18.4178 8.92483H20.0623L17.6869 3.60986ZM15.9967 6.65348L16.7276 4.92725L17.4585 6.65348H15.9967Z" fill="#0071CE"/>
<path d="M25.6348 12.1954L26.9595 13.649V10.7417L25.6348 12.1954Z" fill="#0071CE"/>
</svg>
