<svg width="27" height="17" viewBox="0 0 27 17" fill="none" xmlns="http://www.w3.org/2000/svg">
<path d="M26.0654 15.1904C26.0654 15.7181 25.6469 16.1403 25.1238 16.1403H1.68678C1.16363 16.1403 0.745117 15.7181 0.745117 15.1904V0.977232C0.745117 0.449517 1.16363 0.0273438 1.68678 0.0273438H25.1238C25.6469 0.0273438 26.0654 0.449517 26.0654 0.977232V15.1904Z" fill="#1A1F71"/>
<path d="M10.3708 4.70711L7.54578 11.4971H5.69733L4.30227 6.07917C4.23252 5.76254 4.12789 5.62181 3.88375 5.48109C3.46523 5.27 2.7677 5.02374 2.1748 4.91819L2.20968 4.70711H5.17418C5.55782 4.70711 5.90659 4.95337 5.97634 5.41073L6.70874 9.35101L8.52232 4.74229H10.3708V4.70711ZM17.5902 9.28064C17.5902 7.48641 15.1488 7.38087 15.1488 6.60688C15.1488 6.36062 15.393 6.11435 15.8813 6.04399C16.1254 6.0088 16.8229 5.97362 17.5902 6.36062L17.9041 4.91819C17.4856 4.77747 16.9624 4.60156 16.2649 4.60156C14.5559 4.60156 13.3353 5.51627 13.3353 6.85315C13.3353 7.83822 14.2072 8.36594 14.8698 8.68257C15.5325 8.9992 15.7766 9.21028 15.7766 9.52691C15.7766 9.98426 15.2535 10.1954 14.7303 10.1954C13.8584 10.1954 13.3353 9.94908 12.9516 9.77318L12.6377 11.2508C13.0563 11.4267 13.7887 11.6026 14.5559 11.6026C16.3695 11.6026 17.5553 10.6879 17.5902 9.28064ZM22.1241 11.4971H23.7285L22.3334 4.70711H20.8337C20.4849 4.70711 20.2059 4.91819 20.1013 5.19964L17.4856 11.4971H19.2991L19.6479 10.4768H21.88L22.1241 11.4971ZM20.1711 9.10474L21.0778 6.5717L21.601 9.10474H20.1711ZM12.847 4.70711L11.4171 11.4971H9.67324L11.1032 4.70711H12.847Z" fill="white"/>
</svg>
