<svg width="19" height="20" viewBox="0 0 19 20" fill="none" xmlns="http://www.w3.org/2000/svg">
<path fill-rule="evenodd" clip-rule="evenodd" d="M6.57422 14.2476C6.57422 14.5824 6.81445 14.8077 7.14947 14.8077C7.48442 14.8077 7.72481 14.5824 7.72481 14.2476C7.72481 13.9193 7.48442 13.6875 7.14947 13.6875C6.81445 13.6875 6.57422 13.9193 6.57422 14.2476Z" fill="#1677FF"/>
<path fill-rule="evenodd" clip-rule="evenodd" d="M6.64941 18.5288H7.64816V15.0781H6.64941V18.5288Z" fill="black"/>
<path fill-rule="evenodd" clip-rule="evenodd" d="M9.50139 17.9366C9.38761 17.9366 9.28024 17.9237 9.16004 17.8851V16.0181C9.3687 15.87 9.53938 15.7992 9.75429 15.7992C10.1272 15.7992 10.4245 16.1017 10.4245 16.7456C10.4245 17.5696 9.98819 17.9366 9.50139 17.9366ZM10.1335 15.0073C9.76686 15.0073 9.48248 15.149 9.16004 15.4194V15.0782H8.16113V19.6232H9.16004V18.4967C9.34963 18.5482 9.52672 18.5739 9.74171 18.5739C10.6331 18.5739 11.4358 17.9044 11.4358 16.7134C11.4358 15.6447 10.8543 15.0073 10.1335 15.0073Z" fill="black"/>
<path fill-rule="evenodd" clip-rule="evenodd" d="M18.0869 15.0846L18.0932 15.0781H17.1513L16.557 17.1769H16.5254L15.8427 15.0781H14.7236L16.0702 18.5417L15.5075 19.5975V19.6232H16.3862L18.0869 15.0846Z" fill="black"/>
<path fill-rule="evenodd" clip-rule="evenodd" d="M13.5288 17.6919C13.2633 17.84 13.1115 17.8979 12.9344 17.8979C12.6943 17.8979 12.5425 17.737 12.5425 17.4794C12.5425 17.3828 12.5614 17.2863 12.6374 17.209C12.7575 17.0867 12.9914 16.9966 13.5288 16.8679V17.6919ZM14.5275 17.6661V16.2241C14.5275 15.4386 14.0724 15.0073 13.2696 15.0073C12.7575 15.0073 12.4034 15.0974 11.7587 15.297L11.9356 16.0888C12.5235 15.8185 12.7828 15.7026 13.0546 15.7026C13.3833 15.7026 13.5288 15.9407 13.5288 16.3077V16.3335C12.3845 16.5524 12.0303 16.6747 11.8093 16.9C11.6448 17.0674 11.5752 17.3056 11.5752 17.5824C11.5752 18.2455 12.0811 18.5996 12.5552 18.5996C12.9093 18.5996 13.1938 18.4645 13.5793 18.1682L13.6489 18.5288H14.6476L14.5275 17.6661Z" fill="black"/>
<path fill-rule="evenodd" clip-rule="evenodd" d="M13.0263 0.545898H5.29965C4.29326 0.545898 3.47852 1.38312 3.47852 2.41641V10.3513C3.47852 11.384 4.29326 12.2215 5.29965 12.2215H13.0263C14.0322 12.2215 14.8468 11.384 14.8468 10.3513V2.41641C14.8468 1.38312 14.0322 0.545898 13.0263 0.545898Z" fill="#1677FF"/>
<path fill-rule="evenodd" clip-rule="evenodd" d="M6.55005 9.52432C4.78137 9.52432 4.25848 8.09351 5.13251 7.31079C5.42412 7.04632 5.95728 6.91713 6.24133 6.88817C7.29187 6.7815 8.26447 7.19316 9.41218 7.7685C8.60541 8.84918 7.57798 9.52432 6.55005 9.52432ZM12.8379 7.87692C12.3832 7.72053 11.7726 7.48125 11.0929 7.22858C11.5013 6.49961 11.8272 5.66934 12.0416 4.76724H9.80089V3.93831H12.5459V3.47566H9.80089V2.09375H8.68047C8.48382 2.09375 8.48381 2.29292 8.48381 2.29292V3.47566H5.7076V3.93831H8.48381V4.76724H6.19176V5.22989H10.6374C10.4746 5.80547 10.2563 6.34598 9.99697 6.83693C8.55452 6.34808 7.01513 5.9519 6.04821 6.19579C5.42987 6.35226 5.03138 6.63164 4.7974 6.92417C3.72335 8.26623 4.49345 10.3048 6.76183 10.3048C8.103 10.3048 9.39492 9.53671 10.3962 8.27125C11.8895 9.00859 14.8464 10.2745 14.8464 10.2745V8.47034C14.8464 8.47034 14.4751 8.43995 12.8379 7.87692Z" fill="white"/>
<path fill-rule="evenodd" clip-rule="evenodd" d="M4.96777 18.5287H5.9666V13.8291H4.96777V18.5287Z" fill="black"/>
<path fill-rule="evenodd" clip-rule="evenodd" d="M1.7625 16.8997L2.35675 14.8074H2.38199L2.94467 16.8997H1.7625ZM3.21655 13.9897H1.87629L0.37793 18.5285H1.30095L1.55384 17.64H3.14067L3.3809 18.5285H4.56298L3.21655 13.9897Z" fill="black"/>
</svg>
