<svg width="26" height="17" viewBox="0 0 26 17" fill="none" xmlns="http://www.w3.org/2000/svg">
<path d="M16.4893 1.97656H9.64258V14.1919H16.4893V1.97656Z" fill="#FF5F00"/>
<path d="M10.077 8.08465C10.0748 5.70094 11.1769 3.44866 13.0656 1.97697C9.85748 -0.526597 5.2501 -0.162212 2.48163 2.81403C-0.286844 5.79027 -0.286844 10.379 2.48163 13.3553C5.2501 16.3315 9.85748 16.6959 13.0656 14.1923C11.1769 12.7206 10.0748 10.4684 10.077 8.08465Z" fill="#EB001B"/>
<path d="M25.7254 8.08459C25.7254 11.0588 24.0151 13.772 21.3207 15.0719C18.6262 16.3719 15.4207 16.0303 13.0654 14.1923C14.9524 12.7192 16.054 10.4678 16.054 8.08459C16.054 5.70139 14.9524 3.45001 13.0654 1.97691C15.4207 0.138893 18.6262 -0.202688 21.3207 1.09723C24.0151 2.39715 25.7254 5.11037 25.7254 8.08459Z" fill="#F79E1B"/>
<path d="M24.9794 12.9004V12.6485H25.0809V12.5972H24.8223V12.6485H24.9239V12.9004H24.9794ZM25.4816 12.9004V12.5967H25.4023L25.3111 12.8056L25.2199 12.5967H25.1405V12.9004H25.1965V12.6713L25.282 12.8688H25.3401L25.4256 12.6708V12.9004H25.4816Z" fill="#F79E1B"/>
</svg>
