<svg width="24" height="25" viewBox="0 0 24 25" fill="none" xmlns="http://www.w3.org/2000/svg">
<path d="M11.9999 2.47552C6.48024 2.47552 1.97546 6.98061 1.97546 12.5C1.97546 18.0196 6.48055 22.5244 11.9999 22.5244C17.5196 22.5244 22.0244 18.0193 22.0244 12.5C22.0244 6.9803 17.5193 2.47552 11.9999 2.47552ZM9.00973 4.17067C8.32196 5.04511 7.82214 6.12622 7.4763 7.17448H4.93663C5.96504 5.8139 7.37672 4.75871 9.00973 4.17067ZM4.18601 8.34531H7.14393C6.8782 9.45884 6.72133 10.6677 6.68366 11.9126H3.17017C3.25452 10.6319 3.61239 9.42086 4.18601 8.34531ZM4.18601 16.6507C3.61239 15.5752 3.25452 14.3681 3.17017 13.0873H6.68366C6.72133 14.3323 6.8782 15.5372 7.14393 16.6507H4.18601ZM4.93663 17.8255H7.47626C7.82203 18.8734 8.32184 19.9547 9.00973 20.8293C7.37672 20.2412 5.96504 19.186 4.93663 17.8255ZM11.4125 21.25C10.1011 20.8091 9.1969 19.1255 8.71933 17.8255H11.4125V21.25ZM11.4125 16.6507H8.35371C8.06825 15.5529 7.89909 14.3449 7.85887 13.0873H11.4125V16.6507ZM11.4125 11.9126H7.85887C7.89913 10.655 8.06829 9.44702 8.35371 8.34922H11.4125V11.9126ZM11.4125 7.17448H8.71933C9.19686 5.87448 10.1011 4.1908 11.4125 3.74996V7.17448ZM19.8138 8.34922C20.3875 9.42478 20.7453 10.6319 20.8296 11.9126H17.3162C17.2785 10.6677 17.1216 9.46276 16.8559 8.34922H19.8138ZM19.0632 7.17448H16.5236C16.1778 6.1265 15.678 5.04523 14.9901 4.17067C16.6231 4.75871 18.0348 5.8139 19.0632 7.17448ZM12.5873 3.74996C13.8987 4.1908 14.8029 5.87444 15.2805 7.17448H12.5873V3.74996ZM12.5873 8.34922H15.6461C15.9316 9.44702 16.1007 10.655 16.1409 11.9126H12.5873V8.34922ZM12.5873 13.0834H16.1409C16.1007 14.341 15.9315 15.5529 15.6461 16.6507H12.5873V13.0834ZM12.5873 21.25V17.8215H15.2805C14.803 19.1215 13.8987 20.8091 12.5873 21.25ZM14.9901 20.8293C15.6779 19.9548 16.1777 18.8698 16.5236 17.8215H19.0632C18.0348 19.1821 16.6231 20.2412 14.9901 20.8293ZM19.8138 16.6507H16.8559C17.1216 15.5372 17.2785 14.3284 17.3162 13.0834H20.8296C20.7453 14.3642 20.3874 15.5752 19.8138 16.6507Z" fill="#081B27"/>
</svg>
