<svg width="47" height="47" viewBox="0 0 47 47" fill="none" xmlns="http://www.w3.org/2000/svg">
<path d="M30.6086 4.20129C30.699 4.20129 30.7894 4.20129 30.8849 4.20129C31.1067 6.94089 30.061 8.98791 28.7901 10.4703C27.5432 11.9424 25.8356 13.3702 23.0738 13.1536C22.8896 10.4532 23.937 8.55803 25.2062 7.07906C26.3832 5.70074 28.5411 4.47423 30.6086 4.20129Z" fill="white"/>
<path d="M38.9696 32.7163C38.9696 32.7436 38.9696 32.7675 38.9696 32.793C38.1935 35.1437 37.0864 37.1583 35.7353 39.0279C34.502 40.7252 32.9906 43.0094 30.292 43.0094C27.9601 43.0094 26.4112 41.5099 24.0213 41.469C21.4932 41.4281 20.1029 42.7228 17.7915 43.0486C17.5271 43.0486 17.2627 43.0486 17.0034 43.0486C15.3061 42.803 13.9363 41.4588 12.9384 40.2476C9.99577 36.6687 7.72188 32.0459 7.29883 26.13C7.29883 25.55 7.29883 24.9717 7.29883 24.3917C7.47794 20.1578 9.5352 16.7154 12.2697 15.0471C13.7128 14.1601 15.6967 13.4044 17.9058 13.7421C18.8525 13.8888 19.8198 14.2129 20.6676 14.5336C21.471 14.8424 22.4758 15.39 23.4276 15.361C24.0724 15.3422 24.7138 15.0062 25.3638 14.769C27.2675 14.0816 29.1337 13.2935 31.5935 13.6636C34.5498 14.1106 36.648 15.4241 37.9444 17.4506C35.4436 19.0422 33.4666 21.4406 33.8043 25.5364C34.1045 29.2568 36.2676 31.4335 38.9696 32.7163Z" fill="white"/>
</svg>
