<svg width="19" height="19" viewBox="0 0 19 19" fill="none" xmlns="http://www.w3.org/2000/svg">
<path fill-rule="evenodd" clip-rule="evenodd" d="M12.9231 16.6699H6.66225C4.36248 16.6699 2.59818 15.8392 3.09932 12.496L3.68284 7.96508C3.99177 6.29689 5.05584 5.65845 5.98948 5.65845H13.6233C14.5707 5.65845 15.573 6.34495 15.93 7.96508L16.5135 12.496C16.9391 15.4617 15.2229 16.6699 12.9231 16.6699Z" stroke="white" stroke-width="1.5" stroke-linecap="round" stroke-linejoin="round"/>
<path d="M13.0255 5.49372C13.0255 3.70417 11.5748 2.25345 9.78525 2.25345V2.25345C8.9235 2.2498 8.0958 2.58957 7.48515 3.19763C6.87451 3.8057 6.53124 4.63196 6.53125 5.49372H6.53125" stroke="white" stroke-width="1.5" stroke-linecap="round" stroke-linejoin="round"/>
<path d="M12.0108 8.87133H11.9765" stroke="white" stroke-width="1.5" stroke-linecap="round" stroke-linejoin="round"/>
<path d="M7.63776 8.87133H7.60343" stroke="white" stroke-width="1.5" stroke-linecap="round" stroke-linejoin="round"/>
</svg>
