<svg width="47" height="47" viewBox="0 0 47 47" fill="none" xmlns="http://www.w3.org/2000/svg">
<path d="M6.02312 4.38234C5.5741 4.85758 5.30859 5.59545 5.30859 6.55151V40.6987C5.30859 41.6555 5.57417 42.3926 6.02312 42.8678L6.13737 42.9791L25.2659 23.8507V23.6252V23.3995L6.13737 4.27026L6.02312 4.38234Z" fill="url(#paint0_linear_4_1261)"/>
<path d="M31.6414 30.2295L25.2656 23.8506V23.6251V23.3994L31.6429 17.0221L31.7866 17.1041L39.3411 21.3966C41.499 22.6225 41.499 24.6285 39.3411 25.8551L31.7866 30.1476L31.6414 30.2295Z" fill="url(#paint1_linear_4_1261)"/>
<path d="M31.7873 30.1468L25.2663 23.6251L6.02344 42.8678C6.73494 43.6208 7.90895 43.714 9.23205 42.9626L31.7873 30.1468Z" fill="url(#paint2_linear_4_1261)"/>
<path d="M31.7873 17.1033L9.23205 4.28753C7.90895 3.53608 6.73494 3.62931 6.02344 4.38231L25.2663 23.6251L31.7873 17.1033Z" fill="url(#paint3_linear_4_1261)"/>
<defs>
<linearGradient id="paint0_linear_4_1261" x1="23.5696" y1="6.19148" x2="-2.34234" y2="32.1034" gradientUnits="userSpaceOnUse">
<stop stop-color="#00A0FF"/>
<stop offset="0.0066" stop-color="#00A2FF"/>
<stop offset="0.2601" stop-color="#00BEFF"/>
<stop offset="0.5122" stop-color="#00D2FF"/>
<stop offset="0.7604" stop-color="#00DFFF"/>
<stop offset="1" stop-color="#00E3FF"/>
</linearGradient>
<linearGradient id="paint1_linear_4_1261" x1="42.1507" y1="23.6258" x2="4.79084" y2="23.6258" gradientUnits="userSpaceOnUse">
<stop stop-color="#FFE000"/>
<stop offset="0.4087" stop-color="#FFBD00"/>
<stop offset="0.7754" stop-color="#FFA600"/>
<stop offset="1" stop-color="#FF9C00"/>
</linearGradient>
<linearGradient id="paint2_linear_4_1261" x1="28.2439" y1="27.1688" x2="-6.89474" y2="62.3074" gradientUnits="userSpaceOnUse">
<stop stop-color="#FF3743"/>
<stop offset="1" stop-color="#E30864"/>
</linearGradient>
<linearGradient id="paint3_linear_4_1261" x1="1.17828" y1="-6.9843" x2="16.8692" y2="8.70662" gradientUnits="userSpaceOnUse">
<stop stop-color="#00A06F"/>
<stop offset="0.0685" stop-color="#00A86E"/>
<stop offset="0.4762" stop-color="#00CF6E"/>
<stop offset="0.8009" stop-color="#00E76D"/>
<stop offset="1" stop-color="#00EF6D"/>
</linearGradient>
</defs>
</svg>
