<svg width="25" height="25" viewBox="0 0 25 25" fill="none" xmlns="http://www.w3.org/2000/svg">
<path d="M12.459 2.28902C6.93935 2.28902 2.43457 6.79411 2.43457 12.3135C2.43457 17.8331 6.93966 22.3379 12.459 22.3379C17.9787 22.3379 22.4835 17.8328 22.4835 12.3135C22.4835 6.7938 17.9784 2.28902 12.459 2.28902ZM9.46883 3.98417C8.78106 4.85861 8.28125 5.93972 7.93541 6.98798H5.39574C6.42414 5.6274 7.83583 4.57221 9.46883 3.98417ZM4.64512 8.1588H7.60303C7.33731 9.27234 7.18044 10.4811 7.14277 11.7261H3.62928C3.71363 10.4454 4.07149 9.23436 4.64512 8.1588ZM4.64512 16.4642C4.07149 15.3887 3.71363 14.1816 3.62928 12.9008H7.14277C7.18044 14.1458 7.33731 15.3507 7.60303 16.4642H4.64512ZM5.39574 17.639H7.93537C8.28113 18.6869 8.78095 19.7682 9.46883 20.6428C7.83583 20.0547 6.42414 18.9995 5.39574 17.639ZM11.8716 21.0635C10.5602 20.6226 9.65601 18.939 9.17844 17.639H11.8716V21.0635ZM11.8716 16.4642H8.81282C8.52736 15.3664 8.3582 14.1584 8.31798 12.9008H11.8716V16.4642ZM11.8716 11.7261H8.31798C8.35824 10.4685 8.5274 9.26051 8.81282 8.16272H11.8716V11.7261ZM11.8716 6.98798H9.17844C9.65597 5.68797 10.5602 4.0043 11.8716 3.56346V6.98798ZM20.2729 8.16272C20.8466 9.23827 21.2044 10.4454 21.2888 11.7261H17.7753C17.7376 10.4811 17.5807 9.27626 17.315 8.16272H20.2729ZM19.5223 6.98798H16.9827C16.6369 5.93999 16.1371 4.85873 15.4492 3.98417C17.0822 4.57221 18.4939 5.6274 19.5223 6.98798ZM13.0464 3.56346C14.3578 4.0043 15.262 5.68793 15.7396 6.98798H13.0464V3.56346ZM13.0464 8.16272H16.1052C16.3907 9.26051 16.5598 10.4685 16.6001 11.7261H13.0464V8.16272ZM13.0464 12.8969H16.6001C16.5598 14.1545 16.3906 15.3664 16.1052 16.4642H13.0464V12.8969ZM13.0464 21.0635V17.635H15.7396C15.2621 18.935 14.3578 20.6226 13.0464 21.0635ZM15.4492 20.6428C16.137 19.7683 16.6368 18.6833 16.9827 17.635H19.5223C18.4939 18.9956 17.0822 20.0547 15.4492 20.6428ZM20.2729 16.4642H17.315C17.5807 15.3507 17.7376 14.1419 17.7753 12.8969H21.2888C21.2044 14.1777 20.8465 15.3887 20.2729 16.4642Z" fill="white"/>
</svg>
