<svg width="18" height="18" viewBox="0 0 18 18" fill="none" xmlns="http://www.w3.org/2000/svg">
<mask id="mask0_4_1234" style="mask-type:luminance" maskUnits="userSpaceOnUse" x="0" y="13" width="14" height="4">
<path d="M0.1875 13.1128H13.1527V16.9234H0.1875V13.1128Z" fill="#238EC2"/>
</mask>
<g mask="url(#mask0_4_1234)">
<path fill-rule="evenodd" clip-rule="evenodd" d="M12.1224 14.3975C12.0482 14.8899 11.676 14.8899 11.3159 14.8899H11.1111L11.2548 13.9705C11.2635 13.915 11.3109 13.8741 11.3666 13.8741H11.4604C11.7056 13.8741 11.937 13.8741 12.0564 14.0151C12.1278 14.0995 12.1494 14.2246 12.1224 14.3975ZM11.9657 13.1128H10.6079C10.5151 13.1128 10.436 13.181 10.4216 13.2737L9.8725 16.7912C9.86166 16.8606 9.91477 16.9234 9.98428 16.9234H10.6809C10.7459 16.9234 10.8013 16.8756 10.8114 16.8108L10.9671 15.8136C10.9816 15.7209 11.0606 15.6526 11.1535 15.6526H11.5831C12.4775 15.6526 12.9936 15.2154 13.1286 14.3486C13.1893 13.9696 13.131 13.6717 12.9553 13.4632C12.7622 13.234 12.42 13.1128 11.9657 13.1128Z" fill="#238EC2"/>
</g>
<mask id="mask1_4_1234" style="mask-type:luminance" maskUnits="userSpaceOnUse" x="0" y="13" width="14" height="4">
<path d="M0.1875 13.1128H13.1527V16.9234H0.1875V13.1128Z" fill="#253667"/>
</mask>
<g mask="url(#mask1_4_1234)">
<path fill-rule="evenodd" clip-rule="evenodd" d="M2.43888 14.3975C2.36464 14.8899 1.99237 14.8899 1.63239 14.8899H1.42752L1.57121 13.9705C1.57991 13.915 1.62728 13.8741 1.68298 13.8741H1.7769C2.02195 13.8741 2.2535 13.8741 2.37284 14.0151C2.44425 14.0995 2.46588 14.2246 2.43888 14.3975ZM2.28214 13.1128H0.924301C0.831516 13.1128 0.752419 13.181 0.737974 13.2737L0.188897 16.7912C0.178111 16.8606 0.231158 16.9234 0.300731 16.9234H0.949027C1.04187 16.9234 1.12091 16.8551 1.13535 16.7625L1.28352 15.8136C1.29803 15.7209 1.37706 15.6526 1.46991 15.6526H1.89952C2.79394 15.6526 3.31009 15.2154 3.44501 14.3486C3.50569 13.9696 3.44747 13.6717 3.27174 13.4632C3.07867 13.234 2.73641 13.1128 2.28214 13.1128Z" fill="#253667"/>
</g>
<path fill-rule="evenodd" clip-rule="evenodd" d="M5.43434 15.6592C5.37151 16.0345 5.07663 16.2865 4.70045 16.2865C4.51191 16.2865 4.36097 16.2252 4.2639 16.1092C4.16771 15.9941 4.1315 15.8303 4.16203 15.6478C4.22056 15.2758 4.52018 15.0158 4.89062 15.0158C5.07525 15.0158 5.22518 15.0776 5.32414 15.1947C5.42374 15.3126 5.46285 15.4776 5.43434 15.6592ZM6.34043 14.3807H5.6903C5.63454 14.3807 5.58711 14.4216 5.57847 14.4772L5.54989 14.6609L5.50442 14.5943C5.36363 14.3878 5.04983 14.3188 4.73646 14.3188C4.01815 14.3188 3.40455 14.8688 3.28508 15.6401C3.22295 16.0249 3.3112 16.3926 3.52711 16.6493C3.72554 16.8851 4.00869 16.9833 4.34602 16.9833C4.925 16.9833 5.24612 16.6075 5.24612 16.6075L5.2171 16.7901C5.20625 16.8595 5.25936 16.9223 5.32894 16.9223H5.91441C6.00726 16.9223 6.08629 16.8541 6.10074 16.7615L6.45226 14.5128C6.46311 14.4434 6.41 14.3807 6.34043 14.3807Z" fill="#253667"/>
<path fill-rule="evenodd" clip-rule="evenodd" d="M15.1179 15.6592C15.0552 16.0345 14.7602 16.2865 14.3841 16.2865C14.1955 16.2865 14.0446 16.2252 13.9475 16.1092C13.8513 15.9941 13.8151 15.8303 13.8456 15.6478C13.9042 15.2758 14.2038 15.0158 14.5743 15.0158C14.7589 15.0158 14.9088 15.0776 15.0077 15.1947C15.1073 15.3126 15.1464 15.4776 15.1179 15.6592ZM16.0241 14.3807H15.3739C15.3182 14.3807 15.2708 14.4216 15.2621 14.4772L15.2335 14.6609L15.1881 14.5943C15.0472 14.3878 14.7334 14.3188 14.4201 14.3188C13.7017 14.3188 13.0881 14.8688 12.9687 15.6401C12.9065 16.0249 12.9948 16.3926 13.2108 16.6493C13.4091 16.8851 13.6923 16.9833 14.0296 16.9833C14.6086 16.9833 14.9298 16.6075 14.9298 16.6075L14.9007 16.7901C14.8898 16.8595 14.943 16.9223 15.0125 16.9223H15.5981C15.6909 16.9223 15.7699 16.8541 15.7844 16.7615L16.1359 14.5128C16.1467 14.4434 16.0936 14.3807 16.0241 14.3807Z" fill="#238EC2"/>
<mask id="mask2_4_1234" style="mask-type:luminance" maskUnits="userSpaceOnUse" x="6" y="13" width="12" height="5">
<path d="M6.77148 13.1121H17.6411V17.8116H6.77148V13.1121Z" fill="#253667"/>
</mask>
<g mask="url(#mask2_4_1234)">
<path fill-rule="evenodd" clip-rule="evenodd" d="M9.80103 14.3813H9.1475C9.08499 14.3813 9.02652 14.4127 8.99145 14.4649L8.08997 15.8063L7.70792 14.5173C7.68401 14.4367 7.61053 14.3813 7.5272 14.3813H6.88477C6.80719 14.3813 6.75263 14.4585 6.77761 14.5326L7.49724 16.6666L6.82037 17.6314C6.76726 17.7071 6.82088 17.8119 6.91272 17.8119H7.56562C7.62749 17.8119 7.68546 17.7812 7.72066 17.7299L9.89407 14.5609C9.94604 14.485 9.89237 14.3813 9.80103 14.3813Z" fill="#253667"/>
</g>
<mask id="mask3_4_1234" style="mask-type:luminance" maskUnits="userSpaceOnUse" x="6" y="13" width="12" height="5">
<path d="M6.77148 13.1121H17.6411V17.8116H6.77148V13.1121Z" fill="#238EC2"/>
</mask>
<g mask="url(#mask3_4_1234)">
<path fill-rule="evenodd" clip-rule="evenodd" d="M16.7891 13.2087L16.2319 16.7906C16.2211 16.86 16.2742 16.9227 16.3437 16.9227H16.9041C16.997 16.9227 17.076 16.8544 17.0905 16.7618L17.64 13.2443C17.6508 13.1748 17.5977 13.1121 17.5281 13.1121H16.901C16.8452 13.1121 16.7978 13.153 16.7891 13.2087Z" fill="#238EC2"/>
</g>
<path fill-rule="evenodd" clip-rule="evenodd" d="M13.147 3.24721C13.2844 2.36181 13.1461 1.75935 12.672 1.21366C12.1501 0.612857 11.2074 0.355469 10.0011 0.355469H6.4996C6.25304 0.355469 6.04312 0.536705 6.00471 0.782749L4.5467 10.1237C4.51794 10.308 4.65892 10.4746 4.8436 10.4746H7.00522L6.85605 11.4305C6.83088 11.5917 6.95419 11.7375 7.11579 11.7375H8.93781C9.15347 11.7375 9.33708 11.579 9.3707 11.3638L9.38855 11.2702L9.73181 9.07123L9.75395 8.9497C9.78751 8.7345 9.97112 8.57595 10.1868 8.57595H10.4594C12.2245 8.57595 13.6066 7.85139 14.0105 5.75609C14.1792 4.8805 14.092 4.1497 13.6457 3.63594C13.5108 3.48051 13.3429 3.35204 13.147 3.24721Z" fill="#238EC2"/>
<path fill-rule="evenodd" clip-rule="evenodd" d="M13.147 3.24721C13.2844 2.36181 13.1461 1.75935 12.672 1.21366C12.1501 0.612857 11.2074 0.355469 10.0011 0.355469H6.4996C6.25304 0.355469 6.04312 0.536705 6.00471 0.782749L4.5467 10.1237C4.51794 10.308 4.65892 10.4746 4.8436 10.4746H7.00522L7.54824 6.99594L7.5314 7.10497C7.56982 6.85899 7.77797 6.67776 8.02447 6.67776H9.05185C11.0696 6.67776 12.6495 5.84958 13.1112 3.45438C13.1249 3.38346 13.1365 3.31476 13.147 3.24721Z" fill="#20274F"/>
<path fill-rule="evenodd" clip-rule="evenodd" d="M8.13157 3.259C8.15466 3.11097 8.24864 2.98982 8.37523 2.92852C8.43276 2.90067 8.49703 2.88519 8.56446 2.88519H11.3092C11.6343 2.88519 11.9375 2.90666 12.2147 2.95178C12.2939 2.96465 12.371 2.9795 12.4458 2.99626C12.5207 3.01308 12.5934 3.03182 12.6638 3.05266C12.699 3.06298 12.7335 3.07388 12.7676 3.08529C12.9037 3.13098 13.0304 3.18483 13.147 3.24721C13.2844 2.36181 13.1461 1.75935 12.672 1.21366C12.1501 0.612857 11.2074 0.355469 10.0011 0.355469H6.4996C6.25304 0.355469 6.04312 0.536705 6.00471 0.782749L4.5467 10.1237C4.51794 10.308 4.65892 10.4746 4.8436 10.4746H7.00522L8.13157 3.259Z" fill="#253667"/>
</svg>
