<svg width="27" height="18" viewBox="0 0 27 18" fill="none" xmlns="http://www.w3.org/2000/svg">
<path d="M25.7441 0.566406H1.4082C0.736185 0.566406 0.191406 1.11118 0.191406 1.7832V16.3848C0.191406 17.0568 0.736185 17.6016 1.4082 17.6016H25.7441C26.4162 17.6016 26.9609 17.0568 26.9609 16.3848V1.7832C26.9609 1.11118 26.4162 0.566406 25.7441 0.566406Z" fill="white"/>
<path d="M24.7225 15.7391L23.5348 14.4217L22.3014 15.7391H19.8803H14.6725V9.6064H12.2514L15.2664 2.74691H18.19L19.2407 5.10911V2.74691H22.8953L23.5348 4.51856L24.1743 2.74691H26.9609V1.70208C26.9609 1.0661 26.4584 0.566406 25.8189 0.566406H1.33345C0.693906 0.566406 0.191406 1.0661 0.191406 1.70208V16.4659C0.191406 17.1019 0.693906 17.6016 1.33345 17.6016H25.8189C26.4584 17.6016 26.9609 17.1019 26.9609 16.4659V15.7391H24.7225Z" fill="#0071CE"/>
<path d="M25.0426 15.0122H26.9612L24.4487 12.332L26.9612 9.69727H25.0883L23.4894 11.4235L21.9362 9.69727H20.0176L22.5758 12.3775L20.0176 15.0122H21.8905L23.4894 13.286L25.0426 15.0122Z" fill="#0071CE"/>
<path d="M16.9579 13.7857V12.968H19.9729V11.7415H16.9579V10.9238H20.0186V9.69727H15.4961V15.0122H20.0186V13.7857H16.9579Z" fill="#0071CE"/>
<path d="M25.5451 8.92497H26.9155V3.56458L24.7228 3.61L23.5351 6.92618L22.3017 3.61H20.0176V8.92497H21.4794V5.19995L22.8498 8.92497H24.1289L25.5451 5.19995V8.92497Z" fill="#0071CE"/>
<path d="M17.6879 3.60999H15.8149L13.4395 8.92495H15.0383L15.4951 7.88013H17.962L18.4188 8.92495H20.0633L17.6879 3.60999ZM15.9976 6.6536L16.7285 4.92737L17.4595 6.6536H15.9976Z" fill="#0071CE"/>
<path d="M25.6367 12.1954L26.9615 13.649V10.7417L25.6367 12.1954Z" fill="#0071CE"/>
</svg>
