<svg width="26" height="17" viewBox="0 0 26 17" fill="none" xmlns="http://www.w3.org/2000/svg">
<path d="M16.4893 1.97668H9.64258V14.192H16.4893V1.97668Z" fill="#FF5F00"/>
<path d="M10.078 8.08453C10.0758 5.70082 11.1779 3.44853 13.0666 1.97685C9.85845 -0.526719 5.25107 -0.162334 2.4826 2.81391C-0.285868 5.79014 -0.285868 10.3789 2.4826 13.3552C5.25107 16.3314 9.85845 16.6958 13.0666 14.1922C11.1779 12.7205 10.0758 10.4682 10.078 8.08453Z" fill="#EB001B"/>
<path d="M25.7264 8.08447C25.7264 11.0587 24.0161 13.7719 21.3216 15.0718C18.6272 16.3717 15.4216 16.0302 13.0664 14.1922C14.9534 12.7191 16.055 10.4677 16.055 8.08447C16.055 5.70126 14.9534 3.44989 13.0664 1.97679C15.4216 0.138771 18.6272 -0.20281 21.3216 1.09711C24.0161 2.39703 25.7264 5.11025 25.7264 8.08447Z" fill="#F79E1B"/>
<path d="M24.9813 12.9004V12.6485H25.0829V12.5972H24.8242V12.6485H24.9258V12.9004H24.9813ZM25.4835 12.9004V12.5967H25.4042L25.313 12.8056L25.2218 12.5967H25.1425V12.9004H25.1985V12.6713L25.284 12.8688H25.342L25.4276 12.6708V12.9004H25.4835Z" fill="#F79E1B"/>
</svg>
