<svg width="29" height="18" viewBox="0 0 29 18" fill="none" xmlns="http://www.w3.org/2000/svg">
<mask id="mask0_4_1199" style="mask-type:luminance" maskUnits="userSpaceOnUse" x="0" y="0" width="29" height="18">
<path d="M0.898438 0.586914H28.5938V17.5818H0.898438V0.586914Z" fill="#D93036"/>
</mask>
<g mask="url(#mask0_4_1199)">
<path fill-rule="evenodd" clip-rule="evenodd" d="M6.30702 0.586914H13.2245C14.1898 0.586914 14.7909 1.35952 14.5656 2.31099L11.345 15.8796C11.1171 16.8282 10.1508 17.6008 9.18483 17.6008H2.2674C1.30143 17.6008 0.700946 16.8282 0.92625 15.8796L4.14914 2.31099C4.37348 1.35952 5.33911 0.586914 6.30702 0.586914Z" fill="#D93036"/>
</g>
<mask id="mask1_4_1199" style="mask-type:luminance" maskUnits="userSpaceOnUse" x="0" y="0" width="29" height="18">
<path d="M0.898438 0.586914H28.5938V17.5818H0.898438V0.586914Z" fill="#213152"/>
</mask>
<g mask="url(#mask1_4_1199)">
<path fill-rule="evenodd" clip-rule="evenodd" d="M12.6487 0.586914H20.6039C21.5692 0.586914 21.1342 1.35952 20.9072 2.31099L17.686 15.8796C17.461 16.8282 17.5319 17.6008 16.564 17.6008H8.60936C7.64243 17.6008 7.04356 16.8282 7.2708 15.8796L10.4898 2.31099C10.718 1.35952 11.6827 0.586914 12.6487 0.586914Z" fill="#213152"/>
</g>
<mask id="mask2_4_1199" style="mask-type:luminance" maskUnits="userSpaceOnUse" x="0" y="0" width="29" height="18">
<path d="M0.898438 0.586914H28.5938V17.5818H0.898438V0.586914Z" fill="#10625B"/>
</mask>
<g mask="url(#mask2_4_1199)">
<path fill-rule="evenodd" clip-rule="evenodd" d="M20.2891 0.586914H27.2056C28.1715 0.586914 28.772 1.35952 28.5458 2.31099L25.3254 15.8796C25.0992 16.8282 24.1332 17.6008 23.164 17.6008H16.2498C15.2819 17.6008 14.6824 16.8282 14.9093 15.8796L18.1286 2.31099C18.3556 1.35952 19.3209 0.586914 20.2891 0.586914Z" fill="#10625B"/>
</g>
<path fill-rule="evenodd" clip-rule="evenodd" d="M21.4218 10.6066L20.5792 13.3441H20.8055L20.6307 13.9102H20.4037L20.3513 14.0859H19.5488L19.6032 13.9102H17.9727L18.1368 13.386H18.3015L19.1565 10.6066L19.3277 10.0449H20.1461L20.0603 10.3286C20.0603 10.3286 20.2781 10.1745 20.485 10.1218C20.6919 10.0684 21.8783 10.0491 21.8783 10.0491L21.7025 10.6066H21.4218ZM19.9797 10.6066L19.7631 11.3061C19.7631 11.3061 20.0056 11.1988 20.1386 11.1632C20.2726 11.1289 20.474 11.1158 20.474 11.1158L20.6307 10.6066H19.9797ZM19.6556 11.6537L19.4316 12.3815C19.4316 12.3815 19.6796 12.257 19.8126 12.2182C19.9467 12.1877 20.1493 12.1629 20.1493 12.1629L20.3079 11.6537H19.6556ZM19.1338 13.352H19.7861L19.9745 12.7367H19.3225L19.1338 13.352Z" fill="#FFFFFE"/>
<path fill-rule="evenodd" clip-rule="evenodd" d="M21.7832 10.049H22.6566L22.6663 10.3685C22.6614 10.4219 22.7084 10.4476 22.8094 10.4476H22.9871L22.8246 10.975H22.3533C21.9441 11.0045 21.7897 10.8317 21.7987 10.6383L21.7832 10.049Z" fill="#FFFFFE"/>
<path fill-rule="evenodd" clip-rule="evenodd" d="M21.8979 12.5512H21.0653L21.2081 12.0807H22.1598L22.2964 11.6525H21.356L21.5176 11.1226H24.1332L23.969 11.6525H23.0921L22.9548 12.0807H23.8337L23.689 12.5512H22.7373L22.569 12.7491H22.9548L23.0484 13.3406C23.0584 13.3988 23.0604 13.4372 23.0791 13.4629C23.0986 13.4849 23.2141 13.4947 23.2811 13.4947H23.3983L23.2203 14.071H22.9234C22.8778 14.071 22.8095 14.0669 22.7166 14.0621C22.6266 14.0545 22.5628 14.0036 22.5033 13.9754C22.4486 13.9487 22.3673 13.8839 22.3488 13.7736L22.2553 13.1831L21.8235 13.7657C21.6859 13.9487 21.5001 14.0888 21.1867 14.0888H20.5801L20.7387 13.5751H20.9705C21.0375 13.5751 21.0967 13.5497 21.1398 13.5274C21.1848 13.509 21.2239 13.4868 21.2686 13.4223L21.8979 12.5512Z" fill="#FFFFFE"/>
<path fill-rule="evenodd" clip-rule="evenodd" d="M12.7787 11.2656H14.9832L14.82 11.7825H13.9385L13.8013 12.2212H14.7035L14.539 12.7549H13.6378L13.4193 13.4707C13.3924 13.5501 13.632 13.5612 13.7191 13.5612L14.171 13.5002L13.9897 14.0895H12.9726C12.8926 14.0895 12.8301 14.0784 12.7414 14.059C12.656 14.0377 12.6181 14.0003 12.5799 13.9431C12.5433 13.8843 12.487 13.837 12.5252 13.7124L12.8169 12.7638H12.3164L12.4825 12.2212H12.9855L13.1192 11.7825H12.6181L12.7787 11.2656Z" fill="#FFFFFE"/>
<path fill-rule="evenodd" clip-rule="evenodd" d="M14.2623 10.3375H15.1664L15.001 10.8776H13.7654L13.6311 10.991C13.5744 11.0456 13.554 11.0227 13.4796 11.0624C13.4096 11.0971 13.2623 11.1657 13.0723 11.1657H12.6758L12.837 10.646H12.9561C13.0568 10.646 13.1251 10.638 13.1594 10.6161C13.1992 10.592 13.2426 10.537 13.2934 10.4474L13.5203 10.0424H14.4199L14.2623 10.3375Z" fill="#FFFFFE"/>
<path fill-rule="evenodd" clip-rule="evenodd" d="M15.5552 10.0492H16.3256L16.2139 10.4295C16.2139 10.4295 16.4567 10.2392 16.627 10.1709C16.7966 10.1087 17.1812 10.0527 17.1812 10.0527L18.4272 10.0464L18.0024 11.4343C17.9312 11.6726 17.848 11.8264 17.7959 11.8963C17.7487 11.9681 17.6936 12.0281 17.5845 12.0859C17.4797 12.1412 17.3838 12.173 17.2958 12.1815C17.2132 12.1876 17.087 12.1911 16.9119 12.1923H15.7119L15.3726 13.2912C15.3406 13.3992 15.325 13.451 15.3461 13.4802C15.3642 13.5066 15.4046 13.5362 15.461 13.5362L15.9902 13.4872L15.8099 14.0896H15.2166C15.0278 14.0896 14.8906 14.0857 14.7941 14.0784C14.7032 14.0714 14.6073 14.0784 14.5442 14.0295C14.4882 13.9819 14.4044 13.9196 14.4063 13.8551C14.4128 13.7957 14.4371 13.6966 14.4766 13.5612L15.5552 10.0492ZM17.1912 11.4518H15.9281L15.8507 11.7022H16.9433C17.0727 11.686 17.0993 11.7044 17.11 11.6983L17.1912 11.4518ZM15.998 11.2259C15.998 11.2259 16.2444 11.0048 16.6668 10.9327C16.7629 10.9146 17.3638 10.9203 17.3638 10.9203L17.455 10.6239H16.1822L15.998 11.2259Z" fill="#FFFFFE"/>
<path fill-rule="evenodd" clip-rule="evenodd" d="M17.8005 12.2891L17.7299 12.6226C17.6982 12.7262 17.672 12.8059 17.5917 12.8726C17.5085 12.9422 17.4091 13.0156 17.1777 13.0156L16.751 13.0324L16.7471 13.4105C16.7413 13.5175 16.7708 13.5061 16.7886 13.5236C16.808 13.5417 16.8252 13.5503 16.8449 13.5563L16.9796 13.5503L17.3878 13.5271L17.2198 14.0776H16.751C16.4225 14.0776 16.179 14.0706 16.0984 14.0081C16.0204 13.9591 16.0097 13.8972 16.012 13.792L16.0418 12.3224H16.7892L16.7798 12.6226H16.9601C17.0217 12.6226 17.0618 12.6166 17.0887 12.601C17.1103 12.5832 17.1275 12.5604 17.1392 12.5235L17.212 12.2891H17.8005Z" fill="#FFFFFE"/>
<path fill-rule="evenodd" clip-rule="evenodd" d="M7.12639 4.92188C7.0992 5.04005 6.61946 7.21429 6.61784 7.21556C6.51393 7.65492 6.44044 7.97006 6.18471 8.17115C6.03936 8.28806 5.87006 8.34588 5.67421 8.34588C5.35956 8.34588 5.17472 8.19212 5.14332 7.90017L5.1375 7.80041C5.1375 7.80041 5.23332 7.21079 5.23461 7.20825C5.23461 7.20825 5.73799 5.22653 5.8283 4.96572C5.83219 4.9511 5.83413 4.9438 5.83607 4.93617C4.85522 4.94475 4.68041 4.93617 4.66941 4.92188C4.6639 4.94125 4.63736 5.06452 4.63736 5.06452L4.12298 7.29593L4.07831 7.48654L3.99414 8.10507C3.99414 8.28806 4.03104 8.43864 4.10388 8.5654C4.33857 8.96822 5.00769 9.02795 5.38514 9.02795C5.87265 9.02795 6.32909 8.92597 6.63759 8.7414C7.17366 8.43007 7.31479 7.94274 7.43975 7.51196L7.49769 7.29117C7.49769 7.29117 8.01725 5.23352 8.10595 4.96572C8.10854 4.9511 8.11016 4.9438 8.11372 4.93617C7.40284 4.9438 7.19373 4.93617 7.12639 4.92188Z" fill="#FFFFFE"/>
<path fill-rule="evenodd" clip-rule="evenodd" d="M9.99693 9.00571C9.64861 9.00126 9.52625 9.00126 9.11966 9.02127L9.1038 8.99173C9.13973 8.84019 9.17826 8.69025 9.21225 8.53617L9.2621 8.32872C9.33752 8.00532 9.41133 7.62886 9.42039 7.51545C9.42719 7.44619 9.4505 7.27433 9.25044 7.27433C9.16563 7.27433 9.07758 7.31499 8.98856 7.3547C8.93968 7.52689 8.83997 8.00881 8.79465 8.22992C8.69301 8.69374 8.68653 8.74616 8.64154 8.97584L8.6124 9.00571C8.25341 9.00126 8.12975 9.00126 7.71701 9.02127L7.69727 8.98792C7.76686 8.71185 7.83549 8.43387 7.90121 8.15908C8.07439 7.41188 8.11518 7.12597 8.16341 6.74634L8.19578 6.72378C8.59816 6.66818 8.69527 6.65738 9.13067 6.5697L9.16757 6.61005L9.10218 6.84799C9.17567 6.80511 9.24526 6.76158 9.32101 6.72378C9.52625 6.62466 9.75511 6.59543 9.88104 6.59543C10.0711 6.59543 10.2792 6.64785 10.3666 6.86388C10.4495 7.05703 10.3951 7.29498 10.2863 7.76324L10.23 8.00119C10.1183 8.52251 10.0999 8.61813 10.0377 8.97584L9.99693 9.00571Z" fill="#FFFFFE"/>
<path fill-rule="evenodd" clip-rule="evenodd" d="M11.4087 9.00553C11.1996 9.00458 11.065 9.00109 10.9332 9.00458C10.8021 9.00553 10.6746 9.01221 10.48 9.0211L10.468 9.00458L10.4551 8.98774C10.5085 8.79014 10.5383 8.72057 10.5642 8.65068C10.5907 8.58111 10.6166 8.51026 10.6626 8.31012C10.7234 8.04867 10.761 7.866 10.7879 7.70589C10.8157 7.55054 10.8316 7.41934 10.8513 7.26653L10.8675 7.25446L10.885 7.23984C11.0931 7.21062 11.2262 7.19187 11.3608 7.17122C11.4978 7.15185 11.635 7.1258 11.8509 7.08545L11.8593 7.10419L11.8652 7.12294C11.825 7.28464 11.7842 7.44602 11.7451 7.6109C11.7066 7.77451 11.6658 7.93526 11.6295 8.09791C11.5508 8.44228 11.5201 8.56999 11.501 8.6618C11.4838 8.74948 11.478 8.79713 11.4469 8.97567L11.4282 8.99156L11.4087 9.00553Z" fill="#FFFFFE"/>
<path fill-rule="evenodd" clip-rule="evenodd" d="M14.5347 7.83104C14.6567 7.30559 14.5628 7.06034 14.4434 6.91008C14.2615 6.68325 13.9419 6.60986 13.6098 6.60986C13.4104 6.60986 12.9352 6.62988 12.5633 6.96662C12.2975 7.20838 12.1732 7.53814 12.0984 7.85296C12.0236 8.17351 11.9372 8.7536 12.4791 8.96867C12.6474 9.03793 12.887 9.05762 13.043 9.05762C13.4405 9.05762 13.8477 8.94993 14.1527 8.63161C14.3903 8.37269 14.4978 7.9883 14.5347 7.83104ZM13.625 7.79292C13.6059 7.88092 13.5276 8.21036 13.4198 8.35077C13.3457 8.4537 13.2573 8.51565 13.1592 8.51565C13.1317 8.51565 12.9601 8.51565 12.9569 8.265C12.9546 8.14206 12.9808 8.01371 13.0122 7.87711C13.1039 7.47937 13.2123 7.1458 13.4875 7.1458C13.7047 7.1458 13.7189 7.39391 13.625 7.79292Z" fill="#FFFFFE"/>
<path fill-rule="evenodd" clip-rule="evenodd" d="M23.0402 9.04103C22.6207 9.03754 22.5 9.03754 22.1118 9.05342L22.0859 9.02292C22.1918 8.63122 22.298 8.24047 22.3918 7.84495C22.5132 7.33094 22.5408 7.11269 22.5819 6.81247L22.6129 6.78674C23.0296 6.72797 23.1451 6.71209 23.5799 6.6333L23.5935 6.66825C23.5135 6.99038 23.4339 7.31283 23.3581 7.63623C23.1979 8.31353 23.1396 8.65822 23.0784 9.01212L23.0402 9.04103Z" fill="#FFFFFE"/>
<path fill-rule="evenodd" clip-rule="evenodd" d="M23.2407 7.87737C23.3627 7.35478 22.872 7.83131 22.7936 7.65849C22.6729 7.39004 22.7483 6.84426 22.2647 6.66255C22.0792 6.5917 21.6418 6.6832 21.2696 7.01772C21.0054 7.25852 20.8798 7.58415 20.8057 7.89866C20.7306 8.21507 20.6445 8.79357 21.1838 9.00134C21.3541 9.07218 21.5104 9.09283 21.6661 9.0868C22.2083 9.05757 22.6221 8.25446 22.9273 7.93583C23.1633 7.68422 23.2047 8.03081 23.2407 7.87737ZM22.4103 7.8383C22.3903 7.92217 22.3116 8.25573 22.2038 8.39329C22.1326 8.49241 21.963 8.55468 21.8659 8.55468C21.8383 8.55468 21.6677 8.55468 21.6616 8.30688C21.6603 8.18489 21.6865 8.05655 21.7192 7.91867C21.8105 7.52951 21.9189 7.19721 22.1941 7.19721C22.4113 7.19721 22.5039 7.43897 22.4103 7.8383Z" fill="#FFFFFE"/>
<path fill-rule="evenodd" clip-rule="evenodd" d="M16.911 9.00571C16.562 9.00126 16.4439 9.00126 16.0337 9.02127L16.0189 8.99173C16.0535 8.84019 16.093 8.69025 16.1296 8.53617L16.1784 8.32872C16.2542 8.00532 16.3277 7.62886 16.3358 7.51545C16.3429 7.44619 16.3659 7.27433 16.1671 7.27433C16.081 7.27433 15.9943 7.31499 15.9046 7.3547C15.8564 7.52689 15.7563 8.00881 15.7084 8.22992C15.609 8.69374 15.6026 8.74616 15.5572 8.97584L15.5275 9.00571C15.1691 9.00126 15.0458 9.00126 14.634 9.02127L14.6152 8.98792C14.6839 8.71185 14.7512 8.43387 14.8172 8.15908C14.9901 7.41188 15.0309 7.12597 15.0788 6.74634L15.1115 6.72378C15.5135 6.66818 15.6113 6.65738 16.0467 6.5697L16.081 6.61005L16.0182 6.84799C16.0894 6.80511 16.1623 6.76158 16.2367 6.72378C16.4407 6.62466 16.6711 6.59543 16.7945 6.59543C16.9848 6.59543 17.1936 6.64785 17.2833 6.86388C17.3652 7.05703 17.3098 7.29498 17.2001 7.76324L17.1454 8.00119C17.0318 8.52251 17.014 8.61813 16.9537 8.97584L16.911 9.00571Z" fill="#FFFFFE"/>
<path fill-rule="evenodd" clip-rule="evenodd" d="M20.302 6.19397C20.2408 6.46463 20.0618 6.69432 19.8303 6.80519C19.639 6.89954 19.4063 6.90653 19.1654 6.90653H19.0104L19.0217 6.84585C19.0217 6.84585 19.3091 5.62245 19.3079 5.62626L19.3163 5.56368L19.3214 5.51539L19.436 5.52715C19.436 5.52715 20.0258 5.57702 20.0407 5.57893C20.2741 5.66597 20.3693 5.89566 20.302 6.19397ZM19.9255 4.91815C19.9239 4.91815 19.6367 4.92196 19.6367 4.92196C18.8848 4.93022 18.5831 4.92672 18.4594 4.91211C18.4465 4.96612 18.4274 5.06206 18.4274 5.06206L18.159 6.28895C18.159 6.28895 17.5148 8.89492 17.4844 9.01723C18.1405 9.01024 18.4099 9.01024 18.5219 9.02136C18.5481 8.89905 18.7012 8.17123 18.7012 8.17123C18.7012 8.17123 18.832 7.63657 18.8401 7.61688C18.8401 7.61688 18.8806 7.56192 18.9223 7.54031H18.9822C19.5474 7.54031 20.188 7.54031 20.6885 7.17784C21.0287 6.92972 21.2634 6.56343 21.367 6.11899C21.3945 6.00971 21.4139 5.87882 21.4139 5.74921C21.4139 5.57893 21.379 5.41024 21.2773 5.27808C21.0219 4.92672 20.5147 4.92196 19.9255 4.91815Z" fill="#FFFFFE"/>
<path fill-rule="evenodd" clip-rule="evenodd" d="M26.4773 6.6298L26.4437 6.59326C26.0154 6.67713 25.9367 6.69174 25.5418 6.74289L25.512 6.77117C25.5107 6.77593 25.5094 6.78356 25.5088 6.78927L25.5065 6.78356C25.2126 7.45006 25.2223 7.30583 24.9821 7.82969C24.9808 7.80491 24.9805 7.78903 24.9798 7.76456L24.9199 6.6298L24.8824 6.59326C24.4334 6.67713 24.4217 6.69174 24.0064 6.74289L23.9728 6.77117C23.9702 6.78578 23.9692 6.80071 23.9666 6.81628L23.9702 6.82231C24.022 7.08377 24.01 7.02531 24.0611 7.43544C24.0857 7.63654 24.1175 7.84049 24.1414 8.03936C24.1832 8.37261 24.2055 8.53749 24.2547 9.04515C23.9753 9.50103 23.908 9.6729 23.6406 10.0722L23.6552 10.1084C24.0611 10.0938 24.155 10.0938 24.4554 10.0938L24.5218 10.0211C24.7484 9.54074 26.4773 6.6298 26.4773 6.6298Z" fill="#FFFFFE"/>
<path fill-rule="evenodd" clip-rule="evenodd" d="M11.7918 6.91143C12.0209 6.75418 12.0504 6.53688 11.8562 6.42411C11.6594 6.31069 11.3169 6.34627 11.0851 6.50385C10.8517 6.65919 10.8261 6.87713 11.0207 6.99054C11.2155 7.10173 11.5597 7.06901 11.7918 6.91143Z" fill="#FFFFFE"/>
<path fill-rule="evenodd" clip-rule="evenodd" d="M24.4926 10.061L24.1547 10.6287C24.0478 10.8222 23.8494 10.968 23.5341 10.9693L22.9961 10.9604L23.1521 10.4489H23.257C23.312 10.4489 23.3525 10.4454 23.3836 10.4305C23.4101 10.4219 23.4302 10.4013 23.4519 10.3711L23.6503 10.061H24.4926Z" fill="#FFFFFE"/>
</svg>
