<svg width="27" height="17" viewBox="0 0 27 17" fill="none" xmlns="http://www.w3.org/2000/svg">
<path d="M26.0664 15.1905C26.0664 15.7182 25.6479 16.1404 25.1247 16.1404H1.68776C1.16461 16.1404 0.746094 15.7182 0.746094 15.1905V0.977355C0.746094 0.449639 1.16461 0.0274658 1.68776 0.0274658H25.1247C25.6479 0.0274658 26.0664 0.449639 26.0664 0.977355V15.1905Z" fill="#1A1F71"/>
<path d="M10.3717 4.70698L7.54676 11.4969H5.6983L4.30325 6.07904C4.23349 5.76242 4.12886 5.62169 3.88473 5.48097C3.46621 5.26988 2.76868 5.02361 2.17578 4.91807L2.21066 4.70698H5.17516C5.5588 4.70698 5.90756 4.95325 5.97732 5.4106L6.70972 9.35088L8.5233 4.74216H10.3717V4.70698ZM17.5912 9.28052C17.5912 7.48629 15.1498 7.38074 15.1498 6.60676C15.1498 6.36049 15.394 6.11423 15.8822 6.04386C16.1264 6.00868 16.8239 5.9735 17.5912 6.36049L17.9051 4.91807C17.4865 4.77735 16.9634 4.60144 16.2659 4.60144C14.5569 4.60144 13.3362 5.51615 13.3362 6.85303C13.3362 7.8381 14.2082 8.36581 14.8708 8.68244C15.5335 8.99907 15.7776 9.21016 15.7776 9.52679C15.7776 9.98414 15.2545 10.1952 14.7313 10.1952C13.8594 10.1952 13.3363 9.94896 12.9526 9.77306L12.6387 11.2507C13.0572 11.4266 13.7896 11.6025 14.5569 11.6025C16.3705 11.6025 17.5563 10.6878 17.5912 9.28052ZM22.1251 11.4969H23.7294L22.3344 4.70698H20.8347C20.4859 4.70698 20.2069 4.91807 20.1023 5.19952L17.4865 11.4969H19.3001L19.6489 10.4767H21.881L22.1251 11.4969ZM20.172 9.10462L21.0788 6.57158L21.602 9.10462H20.172ZM12.848 4.70698L11.418 11.4969H9.67422L11.1042 4.70698H12.848Z" fill="white"/>
</svg>
