<svg width="19" height="20" viewBox="0 0 19 20" fill="none" xmlns="http://www.w3.org/2000/svg">
<path fill-rule="evenodd" clip-rule="evenodd" d="M6.57422 14.2476C6.57422 14.5824 6.81445 14.8077 7.14947 14.8077C7.48442 14.8077 7.72481 14.5824 7.72481 14.2476C7.72481 13.9193 7.48442 13.6875 7.14947 13.6875C6.81445 13.6875 6.57422 13.9193 6.57422 14.2476Z" fill="#1677FF"/>
<path fill-rule="evenodd" clip-rule="evenodd" d="M6.65039 18.5288H7.64913V15.0781H6.65039V18.5288Z" fill="black"/>
<path fill-rule="evenodd" clip-rule="evenodd" d="M9.50237 17.9366C9.38859 17.9366 9.28121 17.9237 9.16102 17.8851V16.0181C9.36968 15.87 9.54035 15.7992 9.75526 15.7992C10.1282 15.7992 10.4255 16.1017 10.4255 16.7456C10.4255 17.5696 9.98916 17.9366 9.50237 17.9366ZM10.1345 15.0073C9.76784 15.0073 9.48346 15.149 9.16102 15.4194V15.0782H8.16211V19.6232H9.16102V18.4967C9.3506 18.5482 9.52769 18.5739 9.74268 18.5739C10.6341 18.5739 11.4368 17.9044 11.4368 16.7134C11.4368 15.6447 10.8553 15.0073 10.1345 15.0073Z" fill="black"/>
<path fill-rule="evenodd" clip-rule="evenodd" d="M18.0879 15.0846L18.0942 15.0781H17.1522L16.558 17.1769H16.5263L15.8436 15.0781H14.7246L16.0712 18.5417L15.5085 19.5975V19.6232H16.3872L18.0879 15.0846Z" fill="black"/>
<path fill-rule="evenodd" clip-rule="evenodd" d="M13.5298 17.6919C13.2643 17.84 13.1125 17.8979 12.9354 17.8979C12.6953 17.8979 12.5435 17.737 12.5435 17.4794C12.5435 17.3828 12.5624 17.2863 12.6384 17.209C12.7585 17.0867 12.9924 16.9966 13.5298 16.8679V17.6919ZM14.5285 17.6661V16.2241C14.5285 15.4386 14.0734 15.0073 13.2706 15.0073C12.7585 15.0073 12.4044 15.0974 11.7597 15.297L11.9366 16.0888C12.5244 15.8185 12.7838 15.7026 13.0555 15.7026C13.3842 15.7026 13.5298 15.9407 13.5298 16.3077V16.3335C12.3855 16.5524 12.0313 16.6747 11.8102 16.9C11.6458 17.0674 11.5762 17.3056 11.5762 17.5824C11.5762 18.2455 12.082 18.5996 12.5562 18.5996C12.9103 18.5996 13.1947 18.4645 13.5803 18.1682L13.6499 18.5288H14.6486L14.5285 17.6661Z" fill="black"/>
<path fill-rule="evenodd" clip-rule="evenodd" d="M13.0263 0.545898H5.29965C4.29326 0.545898 3.47852 1.38312 3.47852 2.41641V10.3513C3.47852 11.384 4.29326 12.2215 5.29965 12.2215H13.0263C14.0322 12.2215 14.8468 11.384 14.8468 10.3513V2.41641C14.8468 1.38312 14.0322 0.545898 13.0263 0.545898Z" fill="#1677FF"/>
<path fill-rule="evenodd" clip-rule="evenodd" d="M6.55102 9.52432C4.78234 9.52432 4.25946 8.09351 5.13348 7.31079C5.4251 7.04632 5.95826 6.91713 6.24231 6.88817C7.29285 6.7815 8.26544 7.19316 9.41316 7.7685C8.60639 8.84918 7.57895 9.52432 6.55102 9.52432ZM12.8389 7.87692C12.3842 7.72053 11.7736 7.48125 11.0939 7.22858C11.5023 6.49961 11.8282 5.66934 12.0425 4.76724H9.80187V3.93831H12.5468V3.47566H9.80187V2.09375H8.68145C8.48479 2.09375 8.48479 2.29292 8.48479 2.29292V3.47566H5.70857V3.93831H8.48479V4.76724H6.19273V5.22989H10.6384C10.4755 5.80547 10.2573 6.34598 9.99795 6.83693C8.5555 6.34808 7.01611 5.9519 6.04919 6.19579C5.43085 6.35226 5.03236 6.63164 4.79838 6.92417C3.72433 8.26623 4.49443 10.3048 6.76281 10.3048C8.10397 10.3048 9.39589 9.53671 10.3972 8.27125C11.8904 9.00859 14.8474 10.2745 14.8474 10.2745V8.47034C14.8474 8.47034 14.4761 8.43995 12.8389 7.87692Z" fill="white"/>
<path fill-rule="evenodd" clip-rule="evenodd" d="M4.96875 18.5287H5.96757V13.8291H4.96875V18.5287Z" fill="black"/>
<path fill-rule="evenodd" clip-rule="evenodd" d="M1.76348 16.8997L2.35773 14.8074H2.38297L2.94564 16.8997H1.76348ZM3.21753 13.9897H1.87727L0.378906 18.5285H1.30193L1.55482 17.64H3.14164L3.38187 18.5285H4.56395L3.21753 13.9897Z" fill="black"/>
</svg>
