<svg width="16" height="16" viewBox="0 0 16 16" fill="none" xmlns="http://www.w3.org/2000/svg">
<path d="M9.57939 10.5945C9.44399 10.5945 9.30859 10.7176 9.30859 11.13C9.30859 11.5423 9.44399 11.6654 9.57939 11.6654C9.7148 11.6654 9.8502 11.5423 9.8502 11.13C9.8502 10.7176 9.7148 10.5945 9.57939 10.5945Z" fill="#161C2A"/>
<path d="M6.42119 8.56348C6.28579 8.56348 6.15039 8.68659 6.15039 9.09895C6.15039 9.51131 6.28579 9.63442 6.42119 9.63442C6.55659 9.63442 6.69199 9.51131 6.69199 9.09895C6.69199 8.68659 6.55659 8.56348 6.42119 8.56348Z" fill="#161C2A"/>
<path d="M12.6854 5.67626C11.3289 4.17797 10.5227 2.85902 10.0852 2.01637C9.61141 1.10366 9.45615 0.537693 9.45496 0.533189L9.31393 0L8.81024 0.224667C8.75137 0.250909 7.35971 0.885563 6.57992 2.4451C6.18849 3.22801 6.1102 4.09968 6.11348 4.69302C6.11539 5.03832 5.87074 5.33815 5.53178 5.40593C5.29413 5.45341 5.04967 5.37953 4.87814 5.208L3.93991 4.26977L3.61715 4.71482C3.58366 4.76102 2.7949 5.84882 2.6513 6.06617C1.95009 7.12764 1.58445 8.36413 1.59393 9.64198C1.60663 11.3486 2.27778 12.9476 3.48375 14.1443C4.68966 15.341 6.29373 16 8.00049 16C11.5331 16 14.4071 13.126 14.4071 9.59331C14.4072 8.31246 13.7796 6.88477 12.6854 5.67626ZM9.57917 12.3301C8.92678 12.3301 8.43437 11.8993 8.43437 11.13C8.43437 10.3668 8.92675 9.92977 9.57917 9.92977C10.2316 9.92977 10.724 10.3667 10.724 11.13C10.724 11.8993 10.2316 12.3301 9.57917 12.3301ZM8.95139 7.96025H9.99153L7.04956 12.2685H6.00942L8.95139 7.96025ZM5.27702 9.09888C5.27702 8.3357 5.7694 7.89872 6.42182 7.89872C7.07424 7.89872 7.56661 8.3357 7.56661 9.09888C7.56661 9.86821 7.07424 10.2991 6.42182 10.2991C5.7694 10.2991 5.27702 9.86821 5.27702 9.09888Z" fill="#161C2A"/>
</svg>
