<svg width="19" height="19" viewBox="0 0 19 19" fill="none" xmlns="http://www.w3.org/2000/svg">
<path fill-rule="evenodd" clip-rule="evenodd" d="M12.9226 16.6699H6.66176C4.36199 16.6699 2.59769 15.8392 3.09883 12.496L3.68236 7.96508C3.99128 6.29689 5.05535 5.65845 5.98899 5.65845H13.6229C14.5702 5.65845 15.5725 6.34495 15.9295 7.96508L16.513 12.496C16.9386 15.4617 15.2224 16.6699 12.9226 16.6699Z" stroke="#130F26" stroke-width="1.5" stroke-linecap="round" stroke-linejoin="round"/>
<path d="M13.0255 5.49372C13.0255 3.70417 11.5748 2.25345 9.78525 2.25345V2.25345C8.9235 2.2498 8.0958 2.58957 7.48515 3.19763C6.87451 3.8057 6.53124 4.63196 6.53125 5.49372H6.53125" stroke="#130F26" stroke-width="1.5" stroke-linecap="round" stroke-linejoin="round"/>
<path d="M12.0098 8.87133H11.9755" stroke="#130F26" stroke-width="1.5" stroke-linecap="round" stroke-linejoin="round"/>
<path d="M7.63678 8.87133H7.60245" stroke="#130F26" stroke-width="1.5" stroke-linecap="round" stroke-linejoin="round"/>
</svg>
