<svg width="26" height="17" viewBox="0 0 26 17" fill="none" xmlns="http://www.w3.org/2000/svg">
<path d="M16.4893 1.97668H9.64258V14.192H16.4893V1.97668Z" fill="#FF5F00"/>
<path d="M10.077 8.08453C10.0748 5.70082 11.1769 3.44853 13.0656 1.97685C9.85748 -0.526719 5.2501 -0.162334 2.48163 2.81391C-0.286844 5.79014 -0.286844 10.3789 2.48163 13.3552C5.2501 16.3314 9.85748 16.6958 13.0656 14.1922C11.1769 12.7205 10.0748 10.4682 10.077 8.08453Z" fill="#EB001B"/>
<path d="M25.7254 8.08447C25.7254 11.0587 24.0151 13.7719 21.3207 15.0718C18.6262 16.3717 15.4207 16.0302 13.0654 14.1922C14.9524 12.7191 16.054 10.4677 16.054 8.08447C16.054 5.70126 14.9524 3.44989 13.0654 1.97679C15.4207 0.138771 18.6262 -0.20281 21.3207 1.09711C24.0151 2.39703 25.7254 5.11025 25.7254 8.08447Z" fill="#F79E1B"/>
<path d="M24.9794 12.9004V12.6485H25.0809V12.5972H24.8223V12.6485H24.9239V12.9004H24.9794ZM25.4816 12.9004V12.5967H25.4023L25.3111 12.8056L25.2199 12.5967H25.1405V12.9004H25.1965V12.6713L25.282 12.8688H25.3401L25.4256 12.6708V12.9004H25.4816Z" fill="#F79E1B"/>
</svg>
