<svg width="27" height="17" viewBox="0 0 27 17" fill="none" xmlns="http://www.w3.org/2000/svg">
<path d="M26.0654 15.1905C26.0654 15.7182 25.6469 16.1404 25.1238 16.1404H1.68678C1.16363 16.1404 0.745117 15.7182 0.745117 15.1905V0.977355C0.745117 0.449639 1.16363 0.0274658 1.68678 0.0274658H25.1238C25.6469 0.0274658 26.0654 0.449639 26.0654 0.977355V15.1905Z" fill="#1A1F71"/>
<path d="M10.3708 4.70698L7.54578 11.4969H5.69733L4.30227 6.07904C4.23252 5.76242 4.12789 5.62169 3.88375 5.48097C3.46523 5.26988 2.7677 5.02361 2.1748 4.91807L2.20968 4.70698H5.17418C5.55782 4.70698 5.90659 4.95325 5.97634 5.4106L6.70874 9.35088L8.52232 4.74216H10.3708V4.70698ZM17.5902 9.28052C17.5902 7.48629 15.1488 7.38074 15.1488 6.60676C15.1488 6.36049 15.393 6.11423 15.8813 6.04386C16.1254 6.00868 16.8229 5.9735 17.5902 6.36049L17.9041 4.91807C17.4856 4.77735 16.9624 4.60144 16.2649 4.60144C14.5559 4.60144 13.3353 5.51615 13.3353 6.85303C13.3353 7.8381 14.2072 8.36581 14.8698 8.68244C15.5325 8.99907 15.7766 9.21016 15.7766 9.52679C15.7766 9.98414 15.2535 10.1952 14.7303 10.1952C13.8584 10.1952 13.3353 9.94896 12.9516 9.77306L12.6377 11.2507C13.0563 11.4266 13.7887 11.6025 14.5559 11.6025C16.3695 11.6025 17.5553 10.6878 17.5902 9.28052ZM22.1241 11.4969H23.7285L22.3334 4.70698H20.8337C20.4849 4.70698 20.2059 4.91807 20.1013 5.19952L17.4856 11.4969H19.2991L19.6479 10.4767H21.88L22.1241 11.4969ZM20.1711 9.10462L21.0778 6.57158L21.601 9.10462H20.1711ZM12.847 4.70698L11.4171 11.4969H9.67324L11.1032 4.70698H12.847Z" fill="white"/>
</svg>
