<svg width="29" height="18" viewBox="0 0 29 18" fill="none" xmlns="http://www.w3.org/2000/svg">
<mask id="mask0_1_1079" style="mask-type:luminance" maskUnits="userSpaceOnUse" x="0" y="0" width="29" height="18">
<path d="M0.897461 0.586914H28.5928V17.5818H0.897461V0.586914Z" fill="#D93036"/>
</mask>
<g mask="url(#mask0_1_1079)">
<path fill-rule="evenodd" clip-rule="evenodd" d="M6.30604 0.586914H13.2235C14.1888 0.586914 14.7899 1.35952 14.5646 2.31099L11.344 15.8796C11.1161 16.8282 10.1498 17.6008 9.18385 17.6008H2.26642C1.30046 17.6008 0.699969 16.8282 0.925274 15.8796L4.14817 2.31099C4.3725 1.35952 5.33814 0.586914 6.30604 0.586914Z" fill="#D93036"/>
</g>
<mask id="mask1_1_1079" style="mask-type:luminance" maskUnits="userSpaceOnUse" x="0" y="0" width="29" height="18">
<path d="M0.897461 0.586914H28.5928V17.5818H0.897461V0.586914Z" fill="#213152"/>
</mask>
<g mask="url(#mask1_1_1079)">
<path fill-rule="evenodd" clip-rule="evenodd" d="M12.6487 0.586914H20.6039C21.5692 0.586914 21.1342 1.35952 20.9072 2.31099L17.686 15.8796C17.461 16.8282 17.5319 17.6008 16.564 17.6008H8.60936C7.64243 17.6008 7.04356 16.8282 7.2708 15.8796L10.4898 2.31099C10.718 1.35952 11.6827 0.586914 12.6487 0.586914Z" fill="#213152"/>
</g>
<mask id="mask2_1_1079" style="mask-type:luminance" maskUnits="userSpaceOnUse" x="0" y="0" width="29" height="18">
<path d="M0.897461 0.586914H28.5928V17.5818H0.897461V0.586914Z" fill="#10625B"/>
</mask>
<g mask="url(#mask2_1_1079)">
<path fill-rule="evenodd" clip-rule="evenodd" d="M20.2881 0.586914H27.2046C28.1706 0.586914 28.7711 1.35952 28.5448 2.31099L25.3245 15.8796C25.0982 16.8282 24.1322 17.6008 23.163 17.6008H16.2488C15.2809 17.6008 14.6814 16.8282 14.9083 15.8796L18.1277 2.31099C18.3546 1.35952 19.3199 0.586914 20.2881 0.586914Z" fill="#10625B"/>
</g>
<path fill-rule="evenodd" clip-rule="evenodd" d="M21.4199 10.6066L20.5772 13.3441H20.8035L20.6287 13.9102H20.4018L20.3494 14.0859H19.5469L19.6012 13.9102H17.9707L18.1348 13.386H18.2996L19.1545 10.6066L19.3258 10.0449H20.1441L20.0583 10.3286C20.0583 10.3286 20.2762 10.1745 20.483 10.1218C20.6899 10.0684 21.8763 10.0491 21.8763 10.0491L21.7005 10.6066H21.4199ZM19.9777 10.6066L19.7612 11.3061C19.7612 11.3061 20.0036 11.1988 20.1367 11.1632C20.2707 11.1289 20.472 11.1158 20.472 11.1158L20.6287 10.6066H19.9777ZM19.6537 11.6537L19.4297 12.3815C19.4297 12.3815 19.6776 12.257 19.8107 12.2182C19.9447 12.1877 20.1474 12.1629 20.1474 12.1629L20.306 11.6537H19.6537ZM19.1319 13.352H19.7841L19.9725 12.7367H19.3206L19.1319 13.352Z" fill="#FFFFFE"/>
<path fill-rule="evenodd" clip-rule="evenodd" d="M21.7822 10.049H22.6556L22.6653 10.3685C22.6605 10.4219 22.7074 10.4476 22.8084 10.4476H22.9861L22.8236 10.975H22.3523C21.9431 11.0045 21.7887 10.8317 21.7978 10.6383L21.7822 10.049Z" fill="#FFFFFE"/>
<path fill-rule="evenodd" clip-rule="evenodd" d="M21.8969 12.5512H21.0643L21.2071 12.0807H22.1588L22.2954 11.6525H21.355L21.5166 11.1226H24.1322L23.9681 11.6525H23.0911L22.9539 12.0807H23.8327L23.688 12.5512H22.7363L22.568 12.7491H22.9539L23.0474 13.3406C23.0575 13.3988 23.0594 13.4372 23.0782 13.4629C23.0976 13.4849 23.2132 13.4947 23.2802 13.4947H23.3973L23.2193 14.071H22.9225C22.8768 14.071 22.8085 14.0669 22.7156 14.0621C22.6256 14.0545 22.5618 14.0036 22.5023 13.9754C22.4476 13.9487 22.3663 13.8839 22.3479 13.7736L22.2543 13.1831L21.8225 13.7657C21.6849 13.9487 21.4991 14.0888 21.1857 14.0888H20.5791L20.7377 13.5751H20.9695C21.0365 13.5751 21.0957 13.5497 21.1388 13.5274C21.1838 13.509 21.223 13.4868 21.2676 13.4223L21.8969 12.5512Z" fill="#FFFFFE"/>
<path fill-rule="evenodd" clip-rule="evenodd" d="M12.7777 11.2656H14.9822L14.819 11.7825H13.9376L13.8003 12.2212H14.7025L14.538 12.7549H13.6368L13.4183 13.4707C13.3915 13.5501 13.631 13.5612 13.7181 13.5612L14.17 13.5002L13.9887 14.0895H12.9716C12.8916 14.0895 12.8292 14.0784 12.7405 14.059C12.655 14.0377 12.6171 14.0003 12.5789 13.9431C12.5424 13.8843 12.486 13.837 12.5242 13.7124L12.8159 12.7638H12.3154L12.4815 12.2212H12.9845L13.1182 11.7825H12.6171L12.7777 11.2656Z" fill="#FFFFFE"/>
<path fill-rule="evenodd" clip-rule="evenodd" d="M14.2623 10.3375H15.1664L15.001 10.8776H13.7654L13.6311 10.991C13.5744 11.0456 13.554 11.0227 13.4796 11.0624C13.4096 11.0971 13.2623 11.1657 13.0723 11.1657H12.6758L12.837 10.646H12.9561C13.0568 10.646 13.1251 10.638 13.1594 10.6161C13.1992 10.592 13.2426 10.537 13.2934 10.4474L13.5203 10.0424H14.4199L14.2623 10.3375Z" fill="#FFFFFE"/>
<path fill-rule="evenodd" clip-rule="evenodd" d="M15.5552 10.0492H16.3256L16.2139 10.4295C16.2139 10.4295 16.4567 10.2392 16.627 10.1709C16.7966 10.1087 17.1812 10.0527 17.1812 10.0527L18.4272 10.0464L18.0024 11.4343C17.9312 11.6726 17.848 11.8264 17.7959 11.8963C17.7487 11.9681 17.6936 12.0281 17.5845 12.0859C17.4797 12.1412 17.3838 12.173 17.2958 12.1815C17.2132 12.1876 17.087 12.1911 16.9119 12.1923H15.7119L15.3726 13.2912C15.3406 13.3992 15.325 13.451 15.3461 13.4802C15.3642 13.5066 15.4046 13.5362 15.461 13.5362L15.9902 13.4872L15.8099 14.0896H15.2166C15.0278 14.0896 14.8906 14.0857 14.7941 14.0784C14.7032 14.0714 14.6073 14.0784 14.5442 14.0295C14.4882 13.9819 14.4044 13.9196 14.4063 13.8551C14.4128 13.7957 14.4371 13.6966 14.4766 13.5612L15.5552 10.0492ZM17.1912 11.4518H15.9281L15.8507 11.7022H16.9433C17.0727 11.686 17.0993 11.7044 17.11 11.6983L17.1912 11.4518ZM15.998 11.2259C15.998 11.2259 16.2444 11.0048 16.6668 10.9327C16.7629 10.9146 17.3638 10.9203 17.3638 10.9203L17.455 10.6239H16.1822L15.998 11.2259Z" fill="#FFFFFE"/>
<path fill-rule="evenodd" clip-rule="evenodd" d="M17.8005 12.2891L17.7299 12.6226C17.6982 12.7262 17.672 12.8059 17.5917 12.8726C17.5085 12.9422 17.4091 13.0156 17.1777 13.0156L16.751 13.0324L16.7471 13.4105C16.7413 13.5175 16.7708 13.5061 16.7886 13.5236C16.808 13.5417 16.8252 13.5503 16.8449 13.5563L16.9796 13.5503L17.3878 13.5271L17.2198 14.0776H16.751C16.4225 14.0776 16.179 14.0706 16.0984 14.0081C16.0204 13.9591 16.0097 13.8972 16.012 13.792L16.0418 12.3224H16.7892L16.7798 12.6226H16.9601C17.0217 12.6226 17.0618 12.6166 17.0887 12.601C17.1103 12.5832 17.1275 12.5604 17.1392 12.5235L17.212 12.2891H17.8005Z" fill="#FFFFFE"/>
<path fill-rule="evenodd" clip-rule="evenodd" d="M7.12542 4.92188C7.09822 5.04005 6.61848 7.21429 6.61686 7.21556C6.51295 7.65492 6.43947 7.97006 6.18373 8.17115C6.03839 8.28806 5.86908 8.34588 5.67324 8.34588C5.35859 8.34588 5.17375 8.19212 5.14235 7.90017L5.13652 7.80041C5.13652 7.80041 5.23234 7.21079 5.23363 7.20825C5.23363 7.20825 5.73701 5.22653 5.82733 4.96572C5.83121 4.9511 5.83315 4.9438 5.83509 4.93617C4.85424 4.94475 4.67944 4.93617 4.66843 4.92188C4.66293 4.94125 4.63638 5.06452 4.63638 5.06452L4.122 7.29593L4.07733 7.48654L3.99316 8.10507C3.99316 8.28806 4.03007 8.43864 4.1029 8.5654C4.3376 8.96822 5.00671 9.02795 5.38416 9.02795C5.87167 9.02795 6.32811 8.92597 6.63661 8.7414C7.17268 8.43007 7.31382 7.94274 7.43877 7.51196L7.49672 7.29117C7.49672 7.29117 8.01628 5.23352 8.10497 4.96572C8.10756 4.9511 8.10918 4.9438 8.11274 4.93617C7.40187 4.9438 7.19275 4.93617 7.12542 4.92188Z" fill="#FFFFFE"/>
<path fill-rule="evenodd" clip-rule="evenodd" d="M9.99497 9.00571C9.64666 9.00126 9.52429 9.00126 9.11771 9.02127L9.10185 8.99173C9.13778 8.84019 9.1763 8.69025 9.21029 8.53617L9.26014 8.32872C9.33557 8.00532 9.40938 7.62886 9.41844 7.51545C9.42524 7.44619 9.44855 7.27433 9.24849 7.27433C9.16368 7.27433 9.07563 7.31499 8.98661 7.3547C8.93772 7.52689 8.83802 8.00881 8.7927 8.22992C8.69106 8.69374 8.68458 8.74616 8.63958 8.97584L8.61045 9.00571C8.25145 9.00126 8.12779 9.00126 7.71506 9.02127L7.69531 8.98792C7.76491 8.71185 7.83354 8.43387 7.89925 8.15908C8.07244 7.41188 8.11323 7.12597 8.16146 6.74634L8.19383 6.72378C8.59621 6.66818 8.69332 6.65738 9.12872 6.5697L9.16562 6.61005L9.10023 6.84799C9.17371 6.80511 9.24331 6.76158 9.31906 6.72378C9.52429 6.62466 9.75316 6.59543 9.87908 6.59543C10.0691 6.59543 10.2773 6.64785 10.3647 6.86388C10.4475 7.05703 10.3931 7.29498 10.2844 7.76324L10.228 8.00119C10.1164 8.52251 10.0979 8.61813 10.0358 8.97584L9.99497 9.00571Z" fill="#FFFFFE"/>
<path fill-rule="evenodd" clip-rule="evenodd" d="M11.4078 9.00553C11.1986 9.00458 11.064 9.00109 10.9322 9.00458C10.8011 9.00553 10.6736 9.01221 10.479 9.0211L10.4671 9.00458L10.4541 8.98774C10.5075 8.79014 10.5373 8.72057 10.5632 8.65068C10.5897 8.58111 10.6156 8.51026 10.6616 8.31012C10.7225 8.04867 10.76 7.866 10.7869 7.70589C10.8147 7.55054 10.8306 7.41934 10.8503 7.26653L10.8665 7.25446L10.884 7.23984C11.0921 7.21062 11.2252 7.19187 11.3599 7.17122C11.4968 7.15185 11.634 7.1258 11.85 7.08545L11.8584 7.10419L11.8642 7.12294C11.8241 7.28464 11.7833 7.44602 11.7441 7.6109C11.7056 7.77451 11.6648 7.93526 11.6285 8.09791C11.5499 8.44228 11.5191 8.56999 11.5 8.6618C11.4829 8.74948 11.477 8.79713 11.446 8.97567L11.4272 8.99156L11.4078 9.00553Z" fill="#FFFFFE"/>
<path fill-rule="evenodd" clip-rule="evenodd" d="M14.5347 7.83104C14.6567 7.30559 14.5628 7.06034 14.4434 6.91008C14.2615 6.68325 13.9419 6.60986 13.6098 6.60986C13.4104 6.60986 12.9352 6.62988 12.5633 6.96662C12.2975 7.20838 12.1732 7.53814 12.0984 7.85296C12.0236 8.17351 11.9372 8.7536 12.4791 8.96867C12.6474 9.03793 12.887 9.05762 13.043 9.05762C13.4405 9.05762 13.8477 8.94993 14.1527 8.63161C14.3903 8.37269 14.4978 7.9883 14.5347 7.83104ZM13.625 7.79292C13.6059 7.88092 13.5276 8.21036 13.4198 8.35077C13.3457 8.4537 13.2573 8.51565 13.1592 8.51565C13.1317 8.51565 12.9601 8.51565 12.9569 8.265C12.9546 8.14206 12.9808 8.01371 13.0122 7.87711C13.1039 7.47937 13.2123 7.1458 13.4875 7.1458C13.7047 7.1458 13.7189 7.39391 13.625 7.79292Z" fill="#FFFFFE"/>
<path fill-rule="evenodd" clip-rule="evenodd" d="M23.0393 9.04103C22.6197 9.03754 22.499 9.03754 22.1109 9.05342L22.085 9.02292C22.1908 8.63122 22.297 8.24047 22.3909 7.84495C22.5123 7.33094 22.5398 7.11269 22.5809 6.81247L22.612 6.78674C23.0286 6.72797 23.1442 6.71209 23.5789 6.6333L23.5925 6.66825C23.5125 6.99038 23.4329 7.31283 23.3572 7.63623C23.1969 8.31353 23.1386 8.65822 23.0775 9.01212L23.0393 9.04103Z" fill="#FFFFFE"/>
<path fill-rule="evenodd" clip-rule="evenodd" d="M23.2397 7.87737C23.3617 7.35478 22.871 7.83131 22.7926 7.65849C22.6719 7.39004 22.7473 6.84426 22.2637 6.66255C22.0782 6.5917 21.6409 6.6832 21.2686 7.01772C21.0045 7.25852 20.8789 7.58415 20.8047 7.89866C20.7296 8.21507 20.6435 8.79357 21.1828 9.00134C21.3531 9.07218 21.5094 9.09283 21.6652 9.0868C22.2074 9.05757 22.6211 8.25446 22.9263 7.93583C23.1623 7.68422 23.2038 8.03081 23.2397 7.87737ZM22.4094 7.8383C22.3893 7.92217 22.3106 8.25573 22.2028 8.39329C22.1316 8.49241 21.962 8.55468 21.8649 8.55468C21.8374 8.55468 21.6668 8.55468 21.6606 8.30688C21.6593 8.18489 21.6855 8.05655 21.7182 7.91867C21.8095 7.52951 21.918 7.19721 22.1931 7.19721C22.4103 7.19721 22.5029 7.43897 22.4094 7.8383Z" fill="#FFFFFE"/>
<path fill-rule="evenodd" clip-rule="evenodd" d="M16.91 9.00571C16.5611 9.00126 16.4429 9.00126 16.0328 9.02127L16.0179 8.99173C16.0525 8.84019 16.092 8.69025 16.1286 8.53617L16.1775 8.32872C16.2532 8.00532 16.3267 7.62886 16.3348 7.51545C16.3419 7.44619 16.3649 7.27433 16.1661 7.27433C16.08 7.27433 15.9933 7.31499 15.9036 7.3547C15.8554 7.52689 15.7553 8.00881 15.7074 8.22992C15.6081 8.69374 15.6016 8.74616 15.5563 8.97584L15.5265 9.00571C15.1681 9.00126 15.0448 9.00126 14.633 9.02127L14.6143 8.98792C14.6829 8.71185 14.7502 8.43387 14.8163 8.15908C14.9891 7.41188 15.0299 7.12597 15.0778 6.74634L15.1105 6.72378C15.5126 6.66818 15.6103 6.65738 16.0457 6.5697L16.08 6.61005L16.0172 6.84799C16.0884 6.80511 16.1613 6.76158 16.2357 6.72378C16.4397 6.62466 16.6702 6.59543 16.7935 6.59543C16.9838 6.59543 17.1926 6.64785 17.2823 6.86388C17.3642 7.05703 17.3088 7.29498 17.1991 7.76324L17.1444 8.00119C17.0308 8.52251 17.013 8.61813 16.9528 8.97584L16.91 9.00571Z" fill="#FFFFFE"/>
<path fill-rule="evenodd" clip-rule="evenodd" d="M20.301 6.19397C20.2398 6.46463 20.0608 6.69432 19.8294 6.80519C19.638 6.89954 19.4053 6.90653 19.1644 6.90653H19.0094L19.0207 6.84585C19.0207 6.84585 19.3082 5.62245 19.3069 5.62626L19.3153 5.56368L19.3205 5.51539L19.4351 5.52715C19.4351 5.52715 20.0249 5.57702 20.0398 5.57893C20.2732 5.66597 20.3683 5.89566 20.301 6.19397ZM19.9245 4.91815C19.9229 4.91815 19.6358 4.92196 19.6358 4.92196C18.8838 4.93022 18.5821 4.92672 18.4584 4.91211C18.4455 4.96612 18.4264 5.06206 18.4264 5.06206L18.158 6.28895C18.158 6.28895 17.5138 8.89492 17.4834 9.01723C18.1396 9.01024 18.4089 9.01024 18.5209 9.02136C18.5471 8.89905 18.7002 8.17123 18.7002 8.17123C18.7002 8.17123 18.831 7.63657 18.8391 7.61688C18.8391 7.61688 18.8796 7.56192 18.9213 7.54031H18.9812C19.5464 7.54031 20.1871 7.54031 20.6875 7.17784C21.0277 6.92972 21.2624 6.56343 21.366 6.11899C21.3935 6.00971 21.413 5.87882 21.413 5.74921C21.413 5.57893 21.378 5.41024 21.2763 5.27808C21.0209 4.92672 20.5137 4.92196 19.9245 4.91815Z" fill="#FFFFFE"/>
<path fill-rule="evenodd" clip-rule="evenodd" d="M26.4763 6.6298L26.4427 6.59326C26.0144 6.67713 25.9357 6.69174 25.5408 6.74289L25.511 6.77117C25.5097 6.77593 25.5084 6.78356 25.5078 6.78927L25.5055 6.78356C25.2116 7.45006 25.2213 7.30583 24.9811 7.82969C24.9798 7.80491 24.9795 7.78903 24.9789 7.76456L24.919 6.6298L24.8814 6.59326C24.4324 6.67713 24.4208 6.69174 24.0054 6.74289L23.9718 6.77117C23.9692 6.78578 23.9682 6.80071 23.9656 6.81628L23.9692 6.82231C24.021 7.08377 24.009 7.02531 24.0602 7.43544C24.0848 7.63654 24.1165 7.84049 24.1404 8.03936C24.1822 8.37261 24.2045 8.53749 24.2537 9.04515C23.9744 9.50103 23.907 9.6729 23.6396 10.0722L23.6542 10.1084C24.0602 10.0938 24.154 10.0938 24.4544 10.0938L24.5208 10.0211C24.7474 9.54074 26.4763 6.6298 26.4763 6.6298Z" fill="#FFFFFE"/>
<path fill-rule="evenodd" clip-rule="evenodd" d="M11.7908 6.91143C12.02 6.75418 12.0494 6.53688 11.8552 6.42411C11.6584 6.31069 11.3159 6.34627 11.0841 6.50385C10.8507 6.65919 10.8251 6.87713 11.0197 6.99054C11.2146 7.10173 11.5587 7.06901 11.7908 6.91143Z" fill="#FFFFFE"/>
<path fill-rule="evenodd" clip-rule="evenodd" d="M24.4907 10.061L24.1527 10.6287C24.0459 10.8222 23.8474 10.968 23.5322 10.9693L22.9941 10.9604L23.1502 10.4489H23.2551C23.3101 10.4489 23.3505 10.4454 23.3816 10.4305C23.4082 10.4219 23.4282 10.4013 23.4499 10.3711L23.6484 10.061H24.4907Z" fill="#FFFFFE"/>
</svg>
