<svg width="24" height="25" viewBox="0 0 24 25" fill="none" xmlns="http://www.w3.org/2000/svg">
<path d="M12 2.47552C6.48036 2.47552 1.97559 6.98061 1.97559 12.5C1.97559 18.0196 6.48067 22.5244 12 22.5244C17.5197 22.5244 22.0245 18.0193 22.0245 12.5C22.0245 6.9803 17.5194 2.47552 12 2.47552ZM9.00985 4.17067C8.32208 5.04511 7.82227 6.12623 7.47642 7.17448H4.93675C5.96516 5.8139 7.37684 4.75871 9.00985 4.17067ZM4.18613 8.34531H7.14405C6.87832 9.45884 6.72146 10.6677 6.68379 11.9126H3.1703C3.25464 10.6319 3.61251 9.42086 4.18613 8.34531ZM4.18613 16.6507C3.61251 15.5752 3.25464 14.3681 3.1703 13.0873H6.68379C6.72146 14.3323 6.87832 15.5372 7.14405 16.6507H4.18613ZM4.93675 17.8255H7.47638C7.82215 18.8734 8.32196 19.9547 9.00985 20.8293C7.37684 20.2412 5.96516 19.186 4.93675 17.8255ZM11.4127 21.25C10.1012 20.8091 9.19703 19.1255 8.71945 17.8255H11.4127V21.25ZM11.4127 16.6507H8.35384C8.06837 15.5529 7.89921 14.3449 7.859 13.0873H11.4127V16.6507ZM11.4127 11.9126H7.859C7.89925 10.655 8.06841 9.44702 8.35384 8.34922H11.4127V11.9126ZM11.4127 7.17448H8.71945C9.19699 5.87448 10.1012 4.1908 11.4127 3.74996V7.17448ZM19.8139 8.34922C20.3876 9.42478 20.7454 10.6319 20.8298 11.9126H17.3163C17.2786 10.6677 17.1217 9.46276 16.856 8.34922H19.8139ZM19.0633 7.17448H16.5237C16.1779 6.1265 15.6781 5.04523 14.9902 4.17067C16.6232 4.75871 18.0349 5.8139 19.0633 7.17448ZM12.5874 3.74996C13.8988 4.1908 14.803 5.87444 15.2806 7.17448H12.5874V3.74996ZM12.5874 8.34922H15.6462C15.9317 9.44702 16.1009 10.655 16.1411 11.9126H12.5874V8.34922ZM12.5874 13.0834H16.1411C16.1008 14.341 15.9317 15.5529 15.6462 16.6507H12.5874V13.0834ZM12.5874 21.25V17.8215H15.2806C14.8031 19.1216 13.8988 20.8091 12.5874 21.25ZM14.9902 20.8293C15.678 19.9548 16.1778 18.8698 16.5237 17.8215H19.0633C18.0349 19.1821 16.6232 20.2412 14.9902 20.8293ZM19.8139 16.6507H16.856C17.1217 15.5372 17.2786 14.3284 17.3163 13.0834H20.8298C20.7454 14.3642 20.3876 15.5752 19.8139 16.6507Z" fill="#081B27"/>
</svg>
